<?xml version="1.0" standalone="no"?>
<!DOCTYPE svg PUBLIC "-//W3C//DTD SVG 20010904//EN"
 "http://www.w3.org/TR/2001/REC-SVG-20010904/DTD/svg10.dtd">
<svg version="1.0" xmlns="http://www.w3.org/2000/svg"
 width="750.000000pt" height="500.000000pt" viewBox="0 0 750.000000 500.000000"
 preserveAspectRatio="xMidYMid meet">
<metadata>
Created by potrace 1.16, written by Peter Selinger 2001-2019
</metadata>
<g transform="translate(0.000000,500.000000) scale(0.100000,-0.100000)"
fill="#000000" stroke="none">
<path d="M930 4225 c0 -184 1 -197 18 -190 9 4 40 14 67 22 173 49 372 -99
376 -280 2 -87 20 13 20 113 2 266 -172 470 -448 525 l-33 7 0 -197z"/>
<path d="M714 4396 c-75 -24 -161 -77 -222 -138 -34 -34 -62 -67 -62 -73 0
-13 41 -27 134 -45 100 -20 166 -100 166 -200 l0 -33 -19 24 c-10 13 -34 33
-52 43 l-34 20 38 -43 c60 -67 90 -151 40 -112 -14 12 -51 29 -82 37 -76 22
-120 46 -158 86 -40 42 -53 76 -53 141 l-1 52 -19 -35 c-48 -92 -63 -244 -35
-353 47 -182 190 -327 374 -381 68 -20 217 -21 290 -1 65 17 146 56 186 90
l30 25 -44 -15 c-58 -20 -156 -19 -217 2 -33 11 -67 34 -105 72 -88 89 -89 93
-89 503 0 272 -3 348 -12 347 -7 0 -31 -6 -54 -13z"/>
<path d="M5878 4375 c-126 -34 -226 -114 -274 -218 -26 -56 -29 -72 -29 -167
0 -86 4 -113 21 -151 31 -67 87 -124 152 -156 51 -25 67 -28 157 -27 91 0 107
3 165 30 36 17 80 43 98 58 78 67 149 248 139 358 -11 118 -91 229 -195 268
-61 23 -161 25 -234 5z m170 -129 c81 -42 123 -144 101 -247 -29 -138 -121
-221 -244 -222 -113 0 -185 86 -185 222 0 63 40 160 82 198 63 58 182 82 246
49z"/>
<path d="M6456 4353 c-3 -16 -22 -140 -42 -278 -19 -137 -41 -285 -48 -327 -7
-43 -11 -80 -8 -83 9 -9 121 -5 126 4 3 5 19 100 36 212 17 112 39 261 50 330
29 181 32 169 -44 169 -62 0 -65 -1 -70 -27z"/>
<path d="M4465 4224 c-6 -2 -9 -40 -8 -91 l2 -88 43 0 c39 1 43 3 40 24 -3 16
1 22 10 19 7 -3 13 -13 13 -24 0 -14 8 -19 33 -21 31 -1 32 0 33 40 l2 42 7
-35 6 -35 12 35 11 35 -2 -40 c-2 -38 -1 -39 31 -41 28 -1 32 1 30 19 -2 11 3
22 10 24 7 3 12 -5 12 -21 0 -16 6 -26 14 -26 23 0 25 12 11 70 -7 30 -16 67
-19 83 -10 44 -23 31 -30 -30 -9 -79 -16 -104 -28 -97 -5 4 -8 40 -6 83 3 83
-10 99 -28 35 l-12 -39 -7 30 c-11 50 -14 56 -24 51 -5 -3 -6 -35 -4 -70 6
-71 -2 -113 -16 -86 -5 8 -14 45 -21 83 -7 37 -16 69 -20 72 -4 3 -13 -31 -20
-75 -7 -44 -17 -80 -22 -80 -5 0 -6 5 -3 10 3 6 1 10 -4 10 -6 0 -11 -5 -11
-11 0 -5 -5 -7 -11 -3 -6 4 -9 33 -8 74 4 70 1 80 -16 74z"/>
<path d="M4105 4135 c0 -69 3 -85 15 -86 8 0 27 -2 43 -4 23 -3 27 0 27 22 0
15 5 23 12 21 7 -3 13 -13 13 -23 0 -16 9 -18 70 -18 66 0 70 1 67 21 -2 15 2
22 14 22 12 0 15 -6 11 -21 -5 -19 17 -39 29 -26 7 7 -27 177 -36 177 -4 0
-13 -34 -20 -75 -12 -73 -30 -110 -30 -64 0 22 0 22 -15 3 -17 -23 -20 -7 -6
46 24 92 24 90 -8 90 -21 0 -30 -6 -34 -22 -7 -27 1 -38 13 -18 5 8 11 12 13
10 7 -7 -25 -131 -32 -124 -3 3 -13 38 -21 77 -16 77 -33 91 -38 31 -2 -24 0
-34 7 -29 6 3 11 -1 11 -10 0 -11 -5 -15 -15 -11 -11 4 -15 -1 -15 -19 0 -29
-17 -42 -23 -18 -4 17 -5 17 -6 1 0 -10 -6 -18 -12 -18 -8 0 -10 24 -7 75 3
62 1 75 -12 75 -12 0 -15 -16 -15 -85z"/>
<path d="M6811 4149 c-91 -18 -159 -89 -186 -197 -19 -71 -10 -143 25 -199 44
-73 156 -112 267 -94 95 15 109 24 122 75 19 76 19 75 -61 48 -130 -43 -218
-10 -218 83 l0 25 163 2 162 3 -1 58 c-2 87 -35 145 -104 180 -56 28 -91 32
-169 16z"/>
<path d="M6276 3541 c-3 -4 -8 -31 -12 -59 l-7 -52 31 0 c17 0 37 -3 46 -6 10
-4 17 2 21 19 5 18 15 26 37 29 27 4 29 3 23 -19 -8 -31 13 -30 25 3 11 28 30
24 30 -7 0 -10 5 -19 10 -19 6 0 10 -7 10 -15 0 -11 11 -15 40 -15 22 0 40 5
40 10 0 6 -12 10 -26 10 -34 0 -26 24 9 28 31 4 37 22 7 22 -11 0 -20 7 -20
15 0 31 43 13 54 -23 15 -45 86 -50 86 -5 0 13 -3 14 -12 5 -7 -7 -20 -12 -30
-12 -14 0 -18 8 -18 35 0 40 21 55 45 35 18 -15 30 -7 22 15 -9 21 -49 19 -76
-4 -16 -14 -32 -18 -55 -14 -29 4 -34 2 -39 -18 -4 -13 -7 -34 -7 -47 0 -13
-4 -21 -8 -18 -10 6 -8 44 2 69 16 35 -9 45 -119 45 -58 0 -107 -3 -109 -7z"/>
<path d="M6552 3125 c-18 -8 -47 -24 -64 -36 -28 -20 -30 -25 -24 -63 9 -55
18 -61 57 -37 41 25 77 27 108 5 35 -25 51 -75 51 -158 0 -61 -6 -91 -31 -153
-17 -43 -37 -89 -46 -101 -26 -41 -7 -35 31 10 65 75 115 215 116 320 1 156
-95 260 -198 213z"/>
<path d="M6534 2890 c-113 -16 -199 -58 -282 -135 -34 -31 -70 -75 -81 -99
-25 -51 -27 -123 -5 -155 21 -30 89 -61 136 -61 31 0 39 5 57 36 12 19 21 37
21 39 0 2 -16 7 -35 11 -111 20 -113 143 -3 239 42 37 157 97 211 110 15 4 30
11 33 16 3 5 4 8 2 8 -2 -1 -26 -5 -54 -9z"/>
<path d="M3849 2857 c-56 -30 -92 -82 -124 -180 -56 -174 -56 -355 0 -525 45
-135 109 -192 217 -192 87 0 161 48 182 118 7 20 4 22 -24 22 -42 0 -67 15
-85 50 -72 139 110 278 224 171 57 -53 61 -165 10 -280 -11 -24 -17 -47 -14
-50 10 -9 426 413 423 430 -3 16 -428 437 -428 423 0 -4 11 -35 24 -68 47
-121 43 -207 -14 -261 -40 -38 -128 -47 -176 -17 -97 62 -77 232 28 232 21 0
38 2 38 5 0 23 -34 77 -61 97 -71 53 -150 62 -220 25z"/>
<path d="M3386 2644 c-125 -119 -225 -221 -223 -227 4 -12 450 -437 454 -433
2 1 -19 45 -45 97 -57 112 -82 215 -82 339 0 144 34 271 101 379 17 29 29 54
27 56 -2 3 -107 -92 -232 -211z"/>
<path d="M2223 2686 c-107 -26 -138 -66 -138 -177 0 -93 16 -121 91 -159 43
-22 62 -25 154 -25 125 0 184 22 222 83 47 76 24 210 -44 251 -63 39 -187 50
-285 27z m145 -122 c30 -21 31 -95 2 -124 -54 -54 -129 19 -99 97 17 46 55 56
97 27z"/>
<path d="M237 2684 c-4 -4 -7 -51 -7 -104 0 -114 -7 -128 -70 -132 l-45 -3 -3
-52 c-4 -62 3 -66 123 -66 93 -1 147 19 164 62 7 16 11 78 9 161 l-3 135 -80
3 c-45 1 -84 0 -88 -4z"/>
<path d="M460 2550 c0 -83 5 -150 11 -162 21 -39 94 -61 204 -61 116 -1 164
13 200 55 25 30 25 33 23 167 l-3 136 -87 3 -88 3 0 -125 c0 -115 -2 -126 -20
-136 -14 -8 -26 -8 -40 0 -17 9 -20 23 -22 133 l-3 122 -87 3 -88 3 0 -141z"/>
<path d="M950 2510 l0 -180 85 0 84 0 3 88 3 87 30 -85 30 -85 47 -3 c54 -3
61 5 94 113 l19 60 5 -85 5 -85 85 0 85 0 0 175 0 175 -115 0 -115 0 -29 -84
-30 -85 -25 75 c-14 41 -30 80 -34 87 -6 8 -42 12 -118 12 l-109 0 0 -180z"/>
<path d="M1580 2511 l0 -181 179 0 c204 0 231 4 266 36 46 43 23 134 -35 134
-11 0 -20 5 -20 10 0 6 6 10 14 10 7 0 25 11 40 25 33 31 34 74 2 112 l-24 28
-211 3 -211 3 0 -180z"/>
<path d="M6437 2434 c-4 -4 -7 -29 -7 -55 l0 -48 -50 6 c-57 7 -78 -6 -111
-67 l-18 -35 -1 41 c0 53 -19 68 -84 68 -51 0 -116 -19 -116 -34 0 -33 13 -41
56 -34 36 5 44 3 44 -9 0 -10 -14 -18 -40 -22 -23 -4 -54 -18 -69 -31 -59 -49
-154 -22 -154 45 0 44 24 66 76 65 48 0 57 8 57 53 0 39 -23 48 -101 41 -88
-9 -149 -75 -149 -160 0 -62 20 -100 67 -129 36 -22 82 -27 188 -20 11 1 34
-1 51 -5 20 -4 42 0 62 10 26 14 31 14 42 1 15 -18 57 -19 90 -2 21 11 30 11
58 -2 26 -12 41 -13 73 -4 21 6 42 7 45 2 3 -5 19 -7 37 -5 18 2 38 4 45 5 7
0 12 9 11 19 -3 31 1 32 25 7 28 -27 80 -40 138 -32 50 7 62 18 54 50 -5 22
-9 24 -54 19 -36 -3 -51 0 -61 12 -12 14 -6 16 63 16 75 0 76 0 76 25 0 35
-24 79 -54 99 -49 31 -141 15 -169 -31 -16 -27 -22 -11 -22 64 l0 78 -45 3
c-25 2 -49 0 -53 -4z"/>
<path d="M5112 2258 l3 -153 98 -1 c134 -2 139 -1 135 49 l-3 40 -60 1 -60 1
-3 108 -3 107 -55 0 -55 0 3 -152z"/>
<path d="M5465 2344 c-96 -24 -103 -69 -11 -69 56 0 57 -21 0 -30 -82 -12
-121 -79 -72 -125 25 -23 62 -25 97 -6 21 12 28 12 48 -1 16 -10 34 -13 63 -8
34 6 40 10 40 31 0 14 -7 27 -15 30 -11 5 -15 22 -15 69 0 78 -18 105 -75 110
-22 2 -49 1 -60 -1z"/>
<path d="M7135 2344 c-38 -9 -75 -26 -75 -34 0 -33 13 -41 56 -34 36 5 44 3
44 -9 0 -10 -14 -18 -39 -22 -22 -3 -47 -13 -58 -20 -29 -22 -33 -18 -33 33 0
75 -46 102 -112 68 -24 -13 -29 -13 -36 0 -6 11 -21 14 -48 12 l-39 -3 0 -115
0 -115 45 0 45 0 5 75 c4 61 8 75 23 78 15 3 17 -6 17 -72 0 -70 2 -76 23 -81
30 -8 70 -1 75 13 3 9 10 8 25 -3 27 -19 60 -19 96 0 26 13 30 13 41 0 24 -29
110 -10 110 24 0 11 -6 24 -14 28 -9 5 -15 32 -18 76 -2 43 -10 73 -20 83 -16
16 -79 26 -113 18z"/>
<path d="M959 1480 c-81 -43 -138 -142 -125 -215 12 -61 47 -97 139 -145 98
-50 141 -87 151 -127 14 -54 -66 -119 -135 -109 -20 3 -77 21 -125 40 -151 58
-257 57 -379 -4 -50 -25 -135 -90 -135 -104 0 -2 24 2 53 10 67 19 217 19 286
0 29 -8 54 -16 56 -18 2 -2 -1 -28 -6 -58 -6 -30 -7 -91 -4 -135 7 -82 33
-205 44 -205 3 0 13 31 22 68 23 92 72 207 114 264 48 66 96 94 190 113 141
28 205 76 220 165 5 31 1 52 -18 93 -31 67 -73 100 -174 136 -130 46 -193 98
-193 158 1 31 13 51 50 76 33 23 14 21 -31 -3z"/>
<path d="M2868 1169 c-291 -31 -567 -108 -709 -199 -27 -18 -69 -55 -94 -82
-70 -78 -82 -150 -39 -236 76 -154 359 -273 780 -329 179 -23 599 -23 774 0
507 69 800 223 800 421 0 204 -329 365 -875 426 -105 11 -525 11 -637 -1z
m682 -29 c500 -57 844 -238 804 -423 -18 -84 -78 -147 -204 -211 -232 -119
-545 -176 -960 -176 -394 0 -705 55 -935 165 -291 139 -302 337 -28 482 176
93 407 146 773 177 77 7 450 -3 550 -14z"/>
<path d="M3730 975 c0 -9 -9 -15 -23 -15 -13 0 -28 -5 -35 -12 -15 -15 -16
-48 -2 -48 6 0 10 -4 10 -10 0 -5 -19 -9 -42 -9 -24 1 -33 4 -21 6 24 4 41 43
28 62 -3 6 -18 10 -33 10 -24 -2 -24 -2 -4 -6 26 -5 20 -23 -8 -23 -25 0 -35
-17 -20 -35 10 -12 9 -15 -4 -15 -9 0 -16 7 -16 15 0 8 -7 15 -15 15 -23 0
-18 30 8 40 21 8 21 9 2 9 -42 2 -62 -48 -27 -68 13 -8 8 -10 -25 -11 l-42 0
10 30 c6 17 17 30 25 30 8 0 14 5 14 10 0 6 -11 10 -25 10 -21 0 -26 -6 -31
-39 -4 -25 -13 -42 -23 -44 -9 -3 44 -5 117 -6 105 -1 137 2 148 14 8 8 20 12
27 9 9 -3 16 12 23 46 8 40 8 50 -3 50 -7 0 -13 -7 -13 -15z"/>
<path d="M2350 745 l0 -225 30 0 30 0 0 132 c0 81 4 128 9 122 5 -5 29 -63 53
-129 43 -117 45 -120 76 -123 l32 -3 0 225 0 226 -30 0 -29 0 -3 -122 c-2 -68
-6 -116 -10 -108 -4 8 -24 63 -45 122 l-38 108 -37 0 -38 0 0 -225z"/>
<path d="M3950 745 l0 -225 40 0 40 0 0 225 0 225 -40 0 -40 0 0 -225z"/>
<path d="M2684 841 c-17 -10 -36 -34 -43 -52 -13 -37 -15 -34 25 -42 23 -4 33
-1 42 14 16 26 41 24 51 -3 8 -21 4 -24 -36 -35 -54 -14 -72 -28 -90 -72 -15
-36 -10 -81 13 -118 22 -34 76 -31 103 5 19 25 20 26 21 6 0 -17 8 -23 31 -26
20 -3 33 0 36 8 3 8 3 72 2 144 -4 123 -5 131 -30 155 -34 35 -85 41 -125 16z"/>
<path d="M2954 853 c-49 -9 -84 -80 -84 -167 0 -109 39 -176 104 -176 39 0 62
19 82 67 21 50 18 63 -16 63 -23 0 -31 -5 -36 -26 -5 -18 -12 -24 -28 -22 -19
3 -21 10 -24 84 -2 65 0 84 13 94 14 12 18 11 26 -1 5 -8 9 -22 9 -33 0 -15 5
-17 32 -12 42 8 43 10 30 54 -18 58 -57 85 -108 75z"/>
<path d="M3285 849 c-80 -40 -97 -227 -28 -309 34 -41 91 -42 128 -2 33 35 40
61 40 152 -1 62 -5 83 -24 114 -32 50 -73 66 -116 45z"/>
<path d="M3566 839 c-29 -23 -36 -24 -36 -4 0 10 -10 15 -30 15 l-30 0 0 -165
0 -165 35 0 35 0 0 120 c0 101 3 122 16 127 27 10 34 -17 34 -134 l0 -113 35
0 35 0 0 135 c0 146 -11 188 -49 198 -12 3 -31 -3 -45 -14z"/>
<path d="M3775 849 c-35 -10 -64 -45 -65 -76 0 -30 48 -36 72 -8 13 16 20 18
35 9 36 -22 26 -39 -31 -57 -31 -10 -62 -28 -71 -40 -23 -33 -20 -122 5 -147
26 -26 76 -26 92 0 15 24 28 26 28 5 0 -10 11 -15 35 -15 l35 0 0 118 c0 150
-10 189 -55 208 -38 16 -39 16 -80 3z"/>
<path d="M3100 685 l0 -165 40 0 40 0 0 165 0 165 -40 0 -40 0 0 -165z"/>
<path d="M5416 993 c4 -20 1 -33 -10 -42 -22 -19 -27 -10 -17 27 9 31 8 32
-20 32 -16 0 -28 -3 -27 -7 4 -13 -25 -127 -35 -140 -7 -10 -1 -13 27 -13 21
0 35 4 32 8 -7 12 7 62 18 62 6 0 10 -15 10 -33 l1 -32 63 -3 c35 -2 62 1 59
5 -3 5 0 31 7 58 29 114 29 106 0 102 -19 -2 -28 -10 -31 -27 -7 -48 -35 -130
-44 -130 -5 0 -9 13 -9 28 0 15 -5 33 -12 40 -8 8 -9 12 -1 12 13 0 43 27 43
38 0 15 -16 30 -37 36 -21 7 -22 5 -17 -21z"/>
<path d="M5852 954 c-18 -8 -33 -40 -26 -59 4 -9 22 -22 42 -31 27 -11 33 -17
24 -26 -9 -9 -15 -9 -24 0 -14 14 -54 16 -63 3 -10 -18 26 -41 66 -41 76 0
106 71 42 99 -46 20 -41 33 8 25 37 -6 41 -5 37 12 -2 15 -13 19 -48 21 -25 1
-51 -1 -58 -3z"/>
<path d="M5996 952 c-5 -9 -36 -126 -36 -140 0 -5 11 -7 24 -5 20 4 26 13 31
44 10 56 26 60 19 5 -7 -46 -7 -46 23 -46 25 0 33 6 48 40 26 57 37 60 20 5
l-13 -46 26 3 c27 3 26 1 55 121 7 26 6 27 -34 27 -38 0 -42 -3 -57 -40 -22
-51 -36 -51 -27 0 l7 40 -41 0 c-22 0 -42 -3 -45 -8z"/>
<path d="M6222 888 c-40 -69 -41 -73 -21 -76 12 -2 26 1 32 7 14 14 57 14 57
1 0 -5 14 -10 30 -10 33 0 36 12 24 104 -7 45 -7 46 -43 46 -36 0 -39 -3 -79
-72z"/>
<path d="M6386 895 c-21 -83 -20 -85 8 -85 18 0 27 8 35 30 5 17 15 30 20 30
6 0 11 -13 11 -30 0 -25 4 -30 25 -30 29 0 45 41 25 65 -8 10 -9 15 -2 15 6 0
16 9 22 21 18 33 -4 49 -70 49 l-58 0 -16 -65z"/>
</g>
</svg>
