<?xml version="1.0" encoding="utf-8"?>
<!-- Generator: Adobe Illustrator 18.0.0, SVG Export Plug-In . SVG Version: 6.00 Build 0)  -->
<!DOCTYPE svg PUBLIC "-//W3C//DTD SVG 1.1//EN" "http://www.w3.org/Graphics/SVG/1.1/DTD/svg11.dtd" [
	<!ENTITY ns_flows "http://ns.adobe.com/Flows/1.0/">
	<!ENTITY ns_extend "http://ns.adobe.com/Extensibility/1.0/">
	<!ENTITY ns_ai "http://ns.adobe.com/AdobeIllustrator/10.0/">
	<!ENTITY ns_graphs "http://ns.adobe.com/Graphs/1.0/">
]>
<svg version="1.1" id="Layer_1" xmlns:x="&ns_extend;" xmlns:i="&ns_ai;" xmlns:graph="&ns_graphs;"
	 xmlns="http://www.w3.org/2000/svg" xmlns:xlink="http://www.w3.org/1999/xlink" xmlns:a="http://ns.adobe.com/AdobeSVGViewerExtensions/3.0/"
	 x="0px" y="0px" viewBox="0 0 1400 980" enable-background="new 0 0 1400 980" xml:space="preserve">
<g>
	<rect y="0" fill="#FFFFFF" width="1400" height="980"/>
	<g>
		<g>
			<ellipse fill="#E5E1DC" cx="189.2" cy="453" rx="110.5" ry="19.4"/>
			<g>
				<path fill="#FED296" d="M97.9,194.5c0,0,15.2-14.7,18-14.5c2.9,0.2-1.3,10.8-13.3,18.9C90.6,206.9,97.9,194.5,97.9,194.5z"/>
				<path fill="#141414" d="M130.1,431.6c0,0,2.4,15.5,7.1,15.9c4.7,0.3-2-18.2-2-18.2L130.1,431.6z"/>
				<path fill="#141414" d="M161.1,446.1c0,0-13.2,9.4-12.8,12.8c0.3,3.4,18.9,1.4,20.9-2.4c2-3.7-2-11.1-2-11.1L161.1,446.1z"/>
				<polygon fill="#8B5E3C" points="106.8,317.6 121,398.5 129.1,432.9 138.2,432.9 139.2,399.2 147.3,335.1 158.4,446.8 
					169.5,446.8 180.3,318.9 				"/>
				<path fill="#FED296" d="M202.6,265.3c0,0-32.9,12.9-30.9,15.7c2,2.8,30.1-10.6,30.9-10.6C203.4,270.4,202.6,265.3,202.6,265.3z"
					/>
				<path fill="#00B0D8" d="M96.5,192.4l8.1,8.1l-23.4,31c0,0,18.6-4.7,24.6-7.1c6.1-2.4,60.4-1.3,66.8-0.7
					c6.4,0.7,34.1,8.8,34.1,8.8l-18.9-32.4c0,0,3.4-9.4,8.1-9.4s28,42.2,28,42.2s-9.8,15.9-11.8,17.5c-2,1.7-34.1-2-34.1-2l9.1,69.8
					l-10.5,7.1h-66.8l-11.5-11.5l8.1-69.8c0,0-26.6,4.7-33.4,4c-6.7-0.7-15.5-13.8-15.5-13.8L96.5,192.4z"/>
				<path fill="#8B5E3C" d="M160.3,230.2c-14.7-5.4-26.5-0.7-35.3-0.2c-13.5,0.8-12.8-4.4-12.8-4.4s2.5-12.8,5.4-14.3
					c2.9-1.5,4-1.9,4-1.9s-0.7-1.5-0.2-2c0.5-0.5,41.5,1.3,41.5,1.3s0.5,1.5,0.2,2c-0.3,0.5,7.6,2.5,9.3,7.1c1.7,4.6,0.8,9.8,0.3,10
					C172.6,227.9,174.9,235.6,160.3,230.2z"/>
				<path fill="#C49A6C" d="M119.4,208.3c0,0,1.4-6.8,0.6-13.9c-0.8-7.1-4.7-6-5.1-12.9c-0.5-6.8,1.2-9.2,11.2-12.7
					c10-3.5,32.2-3.3,37.5-2.9c5.3,0.5,11.3,10.3,12.1,11.6c0.8,1.4-2.6,11.3-7.6,8c-5-3.3-4.1,20.1-4.1,20.1s3,4.7-3.6,5.3
					C153.7,211.6,119.4,208.3,119.4,208.3z"/>
				<path fill="#333333" d="M124.3,211l-1.9-25.1l2.7-11l-2.9,2.5l1.9-4.9c0,0,6.1-5.6,14.5-5.9c8.4-0.3,15,3,15,3l-1.5-2.4l5.1,3.4
					l4.7,14l-3.5,27.5L124.3,211z"/>
				<path fill="#FED296" d="M123.5,223.3c0,0-0.7-6.7-5.1-6.6c-4.4,0.2-3.2,24.6-1.7,25.5C118.3,243,124.3,232.2,123.5,223.3z"/>
				<path fill="#FED296" d="M171.6,223.3c0,0-0.7-6.7-5.1-6.6c-4.4,0.2-3.2,24.6-1.7,25.5C166.3,243,172.4,232.2,171.6,223.3z"/>
				<path fill="#FED296" d="M126.3,181l-0.6,31.1l10.6,2.9l-1.2,10.6l-8.5-0.3c0,0-0.9,10,15.3,9.4c16.2-0.6,20-8.2,20-8.2l-8.2-0.3
					l-2.6-10.3l7.3-2.4l-1.8-33.7l-15.3,5l5-3.5l-12.9,4.1l5-4.1L126.3,181z"/>
				<ellipse fill="#FED296" cx="126.4" cy="201.5" rx="3.5" ry="5.2"/>
				<ellipse fill="#FED296" cx="157.2" cy="201" rx="3.5" ry="5.2"/>
				<path fill="#333333" d="M128,211.2l14.6,3.4l12.7-3.9l1.8-4.7l1.6,0.3l-0.4,6.9l-8.6,6.2l0.9-2.9l-9.3,6.2l-0.7-3l-0.4,2.9
					l-5.1-5.7l-0.4,2.5l-9-7.4l-1.2-5.1C124.5,206.9,128.2,204.6,128,211.2z"/>
				<path fill="#333333" d="M132.9,213c0,0,1.7-3,2.7-3.5c1-0.5,4.7-0.5,5.6-0.5c0.8,0,5.9-0.2,5.9-0.2l2.7,4l2.4-0.2
					c0,0-1.5-5.1-3-5.6c-1.5-0.5-8.3-0.3-8.3-0.3l0.2-1l-1.7,1c0,0-4.4-0.5-5.2,0.2c-0.8,0.7-3.4,5.7-3.4,5.7L132.9,213z"/>
				<path fill="#333333" d="M150.5,194.8c1.7,0,3.2,1.1,3.5,2.6c0-0.2,0.1-0.4,0.1-0.6c0-1.8-1.6-3.2-3.5-3.2c-2,0-3.5,1.4-3.5,3.2
					c0,0.2,0,0.4,0.1,0.6C147.3,195.9,148.8,194.8,150.5,194.8z"/>
				<path fill="#333333" d="M133.6,194.3c1.7,0,3.2,1.1,3.5,2.6c0-0.2,0.1-0.4,0.1-0.6c0-1.8-1.6-3.2-3.5-3.2s-3.5,1.4-3.5,3.2
					c0,0.2,0,0.4,0.1,0.6C130.5,195.4,131.9,194.3,133.6,194.3z"/>
				<path fill="#333333" d="M147.6,190.6c-0.5-0.1,3.5-1.5,4.7-1.3C153.5,189.4,149.3,190.9,147.6,190.6z"/>
				<path fill="#333333" d="M131.1,190.6c-0.5-0.1,3.5-1.5,4.7-1.3C137,189.4,132.8,190.9,131.1,190.6z"/>
				<path fill="#FED296" d="M123.7,186.7c0,0,10.7-3.5,13.4-7.6c2.7-4.2-5.2-2.8-9.8-2.8C122.8,176.3,118.2,181,123.7,186.7z"/>
				<path fill="#FED296" d="M167.2,182.8c0,0,18.4,7.8,24,6.1c5.6-1.7-18.2-11.6-18.2-11.6S167.7,179.8,167.2,182.8z"/>
				<path fill="#FED296" d="M190.8,198.8c0,0-7.1-10.1-8.3-13.5c-1.2-3.4,1.3-5.2,5.1-2.9c3.7,2.4,8.4,12,8.3,12.5
					C195.7,195.5,190.8,198.8,190.8,198.8z"/>
				<path fill="#333333" d="M129.7,169.4c0,0-6.4-6-6.8-6.2c-0.5-0.2-5.7-8.8-2.3-18.9c3.5-10.1,29.3-13.5,34.8-1.7
					C160.8,154.4,129.7,169.4,129.7,169.4z"/>
				<path fill="#FED296" d="M136.8,169.4c0,0,18.3,1.1,22.8-6.5c4.5-7.6-4.8-21.8-4.8-21.8s-16.8,1.8-22.5,3.6
					c-5.7,1.8,1.4,3.9,1.4,3.9l-4.4,0.3l-0.5,4.1c0,0-8-0.2-6.5,4.5c1.5,4.7,5.9,2.1,5.9,2.1s-1.8,6.2-0.3,7.4
					C129.4,168.4,136.8,169.4,136.8,169.4z"/>
				<path fill="#999999" d="M119.6,151.4c0,0,5.8-7.7,17.2-10.4c11.3-2.7,16.7-1.4,16.7-1.4s-3.1-6.2-6.9-8.9
					c-3.8-2.7-16.4-1.5-22.1,3.2C118.8,138.6,119.1,145.4,119.6,151.4z"/>
				<path fill="#CCCCCC" d="M125,146.1c0,0,12.4-10.6,16.9-11.8c4.5-1.2,16.3-1.2,17.4,0.6c1.1,1.8-4.2,4.7-4.2,4.7
					S144.1,136.7,125,146.1z"/>
				<path fill="#333333" d="M141.8,151c-1.1,0-2-0.9-2-2c0-0.5,0.2-1,0.5-1.4c0,0-0.1,0-0.1,0c-1.5,0-2.7,1.2-2.7,2.7
					c0,1.5,1.2,2.7,2.7,2.7c1.4,0,2.6-1.1,2.7-2.5C142.6,150.8,142.2,151,141.8,151z"/>
				<path fill="#333333" d="M154.3,149.6c-1.1,0-2-0.9-2-2c0-0.5,0.2-1,0.5-1.4c0,0-0.1,0-0.1,0c-1.5,0-2.7,1.2-2.7,2.7
					c0,1.5,1.2,2.7,2.7,2.7c1.4,0,2.6-1.1,2.7-2.5C155.2,149.4,154.8,149.6,154.3,149.6z"/>
				<path fill="#333333" d="M153.1,157.3l-11.8,2.7c0,0-0.5,6.2,7.1,5.1C156,164.1,153.1,157.3,153.1,157.3z"/>
				<path fill="#FFFFFF" d="M141.5,161.7l10.4-1.9l-0.6-2l-10,2.3C141.3,160,141.3,160.8,141.5,161.7z"/>
				<path fill="#333333" d="M136.8,147.2c0,0,1.8-3.3,3.5-2.9C141.9,144.8,136.8,147.2,136.8,147.2z"/>
				<path fill="#333333" d="M148.1,145.1c0,0,1.8-3.3,3.5-2.9C153.3,142.6,148.1,145.1,148.1,145.1z"/>
				<path fill="#333333" d="M184,197.9l-1.3-0.2c0-0.1,2.3-13.4,1.7-36.3c-0.6-20.2,0.1-37.4,1.7-46l1.3,0.2
					c-0.6,3.2-2.5,16-1.7,45.7C186.4,184.5,184,197.8,184,197.9z"/>
				<path fill="#27AAE1" d="M183,140.5c0,0-4.4,2.4-2.7,3c1.7,0.7,3.7-0.7,3.7-0.7s-0.3,4.4,1.7,2.7l0.7-3c0,0,1,2.7,2.7,1.7
					c1.7-1-2-4-2-4s13.5-10.1,13.5-20.6c0-10.5-2.4-22.6-19.2-19.2C164.5,103.7,169.5,130,183,140.5z"/>
				<path fill="#CCCCCC" d="M197.2,115.5c0,0-1-7.8-5.4-8.8C187.4,105.7,194.5,111.1,197.2,115.5z"/>
				<path fill="#333333" d="M229.9,217.1c0,0-3-10.5,7.8-12.1c10.8-1.7,27.7,3.7,27.3,26.6c-0.3,22.9,1.3,31,1.3,31
					s-36.4,1-45.2-7.8C212.4,246.1,218.5,232.9,229.9,217.1z"/>
				<path fill="#58B7DD" d="M268.9,331.6l-2.7-13.2c0,0-17.2,2.2-20.9,5.6c-3.7,3.4-17.5,30-16.2,32.7c1.3,2.7,5.7,0.7,5.7,0.7
					s-2.2,7.8,3.2,8.9c5.4,1.2,13.3-0.3,16.4-1.4C257.4,364,268.9,331.6,268.9,331.6z"/>
				<polygon fill="#999999" points="273.4,366.7 258.3,325.3 261.3,320.4 287.9,315.4 311.6,354.1 308.1,361.2 283.3,371.3 				"/>
				<polygon fill="#696969" points="283.3,371.3 308.1,361.2 311.6,354.1 288.1,315.8 287.1,317.2 281.5,324 303.3,358.7 
					278.8,324.5 258.3,325.3 273.4,366.7 				"/>
				<g>
					<path fill="#333333" d="M262.5,310.2c0-0.9,0.1-1.6,0.6-2.1l0,0c0.2-0.2,0.5-0.3,0.7-0.3l0,0c1.2,0.1,2.4,1,4.1,2.4l0,0
						c1.7,1.4,3.7,3.2,5.5,5l0,0c3.8,3.6,7.2,7.3,7.2,7.3l0,0l-0.9,0.9c0,0-7.7-8.2-12.6-12.2l0,0c-1.5-1.2-2.9-2.1-3.2-2.1l0,0
						c-0.1,0.1-0.2,0.5-0.2,1.1l0,0c0,3.8,3.1,13.6,3.2,13.6l0,0l0,0l-1.2,0.4C265.7,324.1,262.5,314.5,262.5,310.2L262.5,310.2z"/>
				</g>
				<g>
					<path fill="#333333" d="M262.7,329.8c0,0,0.1-2.2,0.1-5.2l0,0c0-2.8-0.1-6.4-0.3-9.5l0,0c-0.2-3.1-0.8-5.8-1.4-6.5l0,0
						c-0.2-0.2-0.2-0.2-0.2-0.2l0,0c0,0-0.4,0.1-0.8,0.7l0,0c-0.4,0.5-0.8,1.3-1.3,2.3l0,0c-0.9,2-1.8,4.7-2.6,7.4l0,0
						c-1.6,5.4-2.8,10.8-2.8,10.8l0,0v0l-1.3-0.3c0,0,2.7-12.2,5.5-18.5l0,0c1-2,1.7-3.6,3.2-3.8l0,0c1.1,0.1,1.6,1.1,2,2.2l0,0
						c0.4,1.1,0.6,2.7,0.8,4.4l0,0c0.4,3.4,0.5,7.7,0.5,10.9l0,0c0,3-0.1,5.2-0.1,5.2l0,0L262.7,329.8L262.7,329.8z"/>
				</g>
				<path fill="#FED296" d="M251.2,291.9c0,0,9.6,21.8,12.7,21.5c3-0.3-8.3-25.6-8.3-25.6L251.2,291.9z"/>
				<path fill="#141414" d="M238.3,436.6l1.8,16.2c0,0-7.8,3.3-7.3,5.1c0.5,1.8,13.2-2,13.2-3c0-1-2.3-1.8-2.3-1.8v-18.7
					L238.3,436.6z"/>
				<path fill="#141414" d="M203.9,436.6l1.8,16.2c0,0-7.8,3.3-7.3,5.1c0.5,1.8,13.2-2,13.2-3c0-1-2.3-1.8-2.3-1.8v-18.7
					L203.9,436.6z"/>
				<path fill="#8B5E3C" d="M202.4,317.7l-13.7,117.6c0,0,18,7.3,35.4,5.6c17.5-1.8,37.2-10.1,37.2-10.1L240,320.7L202.4,317.7z"/>
				<path fill="#00B0D8" d="M216.8,252.9h7.8l17.2,5.6l15.7,28.8l-9.1,7.6l-7.6-14.7l3.8,45.5l-46.8-5.1l12.6-29.3l0.3-4.6
					c0,0-3.5-4.3-3.5-6.6c0-2.3,2.5-9.6,2.5-9.6l-7.3,3l-3.5-9.9L216.8,252.9z"/>
				<path fill="#FED296" d="M235.7,241.5l-2.8,15.7l6.1,3.5c0,0-7.6,0.3-11.6-2.3c-4-2.5-4.3-3.8-4.3-3.8l3.3,0.5l2.8-13.2
					L235.7,241.5z"/>
				<path fill="#FED296" d="M231.6,210.6l6.4,8.4l-0.7-5.7l7.1,7.8l-1-5.1c0,0,9.8,9.1,12.8,9.4c3,0.3-10.1,26-29,24
					C227.2,249.4,205.3,237,231.6,210.6z"/>
				<circle fill="#FED296" cx="248.5" cy="241.3" r="4.4"/>
				<g>
					<path fill="#333333" d="M265.7,318.2c-0.6-5.4-2.3-10.9-4-11.4l0,0c-0.1,0-0.2-0.1-0.3-0.1l0,0c-0.6-0.1-1.5,0.8-2.2,2.6l0,0
						c-0.7,1.7-1.3,4.1-1.8,6.4l0,0c-0.9,4.7-1.4,11.3-1.4,11.3l0-1.9l0,1.9l-1.3-0.1c0,0,0.9-12.6,3.3-18.2l0,0
						c0.8-1.8,1.8-3.3,3.4-3.4l0,0c0.3,0,0.5,0,0.8,0.1l0,0c3,1.3,4.1,7,4.9,12.4l0,0c0.7,5.5,0.9,10.7,0.9,10.7l0,0l-1.3,0
						C266.5,328.8,266.4,323.6,265.7,318.2L265.7,318.2z"/>
				</g>
				<path fill="#FED296" d="M259.9,308c0,0-19.1,16.1-18.3,18.1c0.8,2,22.7-13.7,22.7-13.7S262.3,305.8,259.9,308z"/>
				<polygon fill="#FEBE10" points="252.2,326.3 277,327.8 283.1,365.5 275.5,372.6 252.2,370.3 243.8,360.9 				"/>
				<polygon fill="#D49D1F" points="283.1,365.5 277.8,332.9 276.5,327.8 276.3,327.7 279.5,364.7 273.2,368 272.2,355.9 
					270.7,366.5 256,366.7 254.2,354.6 253.2,366.2 246.9,359.2 252.4,326.3 252.2,326.3 243.8,360.9 252.2,370.3 275.5,372.6 				
					"/>
				<path fill="#333333" d="M229.2,218.1c0,0,2.5,3,3.4,3C233.5,221.1,231.3,217.2,229.2,218.1z"/>
				<path fill="#333333" d="M243,223.4c0,0,2.5,3,3.4,3C247.3,226.5,245.1,222.5,243,223.4z"/>
				<path fill="#333333" d="M228.6,221c-0.1,1-1,1.8-2.1,1.8c-0.7,0-1.3-0.3-1.6-0.8c-0.3,0.4-0.4,1-0.4,1.5c0,1.6,1.3,2.8,2.8,2.8
					s2.8-1.3,2.8-2.8C230.2,222.4,229.6,221.4,228.6,221z"/>
				<path fill="#333333" d="M241.4,226.5c-0.1,1-1,1.8-2.1,1.8c-0.7,0-1.3-0.3-1.6-0.8c-0.3,0.4-0.4,1-0.4,1.5
					c0,1.6,1.3,2.8,2.8,2.8c1.6,0,2.8-1.3,2.8-2.8C243,228,242.3,227,241.4,226.5z"/>
				<path fill="#333333" d="M225.1,233.5c0,0-2.2,5.9,0.9,6.2c3,0.3,6.7-3.2,6.7-3.2s-4.8,6.6-7.2,5.2
					C223.1,240.4,222.3,237.5,225.1,233.5z"/>
				<path fill="#333333" d="M250.7,219.9c0,0-3.9,13.4,0.8,18.5c4.7,5.1,6.7-11.3,6.7-11.9C258.1,225.8,250.7,219.9,250.7,219.9z"/>
				<path fill="#FFD600" d="M256.1,221.7c0,0,0.8-2.2,2.2-1c1.4,1.1,0.3,2.4,0.3,2.4s3.2-3.2,5.1-0.4c2.3,6.7-4.2,1.6-5.1,0.8
					c0,0-1.3,2.3-2.2-0.3c0,0-4.3,2.9-4.4,0.1C251.8,220.5,251.9,217.2,256.1,221.7z"/>
			</g>
		</g>
		<g>
			<ellipse fill="#E5E1DC" cx="228.7" cy="860.9" rx="170.5" ry="19.4"/>
			<g>
				<path fill="#4A4B4C" d="M182.9,852.9c0,0-4.6,11.5-7.4,13.8c-2.8,2.3-0.5,6.9,11.1,2.8c11.5-4.1,1.4-18.9,1.4-18.9L182.9,852.9z
					"/>
				<path fill="#4A4B4C" d="M157.1,832.6c0,0-0.9,19.3,4.1,19.3c5.1,0,6.4-9.7,2.8-17.5C160.3,826.6,157.1,832.6,157.1,832.6z"/>
				<path fill="#7E8083" d="M143.3,725.3c0,0,10.6,102.7,13.4,109.2c2.8,6.4,7.4,0,7.4,0s6.9-80.2,6.9-82.5c0-2.3,6.9,100,6.9,100
					s7.4,7.8,12.9-2.3c5.5-10.1,3.7-122.1,3.7-122.1L143.3,725.3z"/>
				<path fill="#FED296" d="M211.5,660.8c0,0,13.8,57.6,14.3,69.1c0.5,11.5,5.5,11.5,5.5-7.4s-10.6-61.3-11.5-64.9
					C218.8,653.9,211.5,660.8,211.5,660.8z"/>
				<path fill="#4A4B4C" d="M155.3,617.5c0,0-29.5,1.8-37.3,25.3s-7.8,23.5-7.8,23.5l19.3,9.2l1.4-6.4c0,0,13.4,49.3,12.4,56.2
					c-0.9,6.9,49.3,12.4,51.1,2.3c1.8-10.1,11.5-67.7,11.5-67.7l3.7,8.3l12-10.1c0,0-2.8-18-10.6-30.4S179.2,615.2,155.3,617.5z"/>
				<path fill="#FED296" d="M157.6,612.9c0,0,0,5.5-5.5,7.8c-5.5,2.3,8.3,9.2,13.8,9.2c5.5,0,18.4-8.3,18.4-8.3s-6.9-3.2-7.4-8.8
					C176.5,607.4,157.6,612.9,157.6,612.9z"/>
				<ellipse fill="#FED296" cx="166.3" cy="580.9" rx="25.8" ry="36.2"/>
				<ellipse fill="#FED296" cx="192.6" cy="583.7" rx="5.5" ry="9"/>
				<path fill="#4A4B4C" d="M190.3,586c0,0,1.2,6.9,1.2,9c0,2.1-1.4,4.6-1.4,4.6l-2.3-5.1L190.3,586z"/>
				<ellipse fill="#FED296" cx="141.4" cy="583.7" rx="5.5" ry="9"/>
				<path fill="#FED296" d="M116.1,664.5c0,0-6.4,77.4,0,80.2s11.5-76,11.5-76L116.1,664.5z"/>
				<path fill="#F7941E" d="M118,734c-1.4,0.5-30.9,48.4-30.9,48.4l-2.8,31.3l57.1,4.1l0.5-27.2C141.9,790.7,119.3,733.6,118,734z
					 M127.6,784.3c-5.1,0-8.3,0-15.7-0.9c-7.4-0.9-13.4,0-15.2-2.8c-1.8-2.8,19.3-38.2,19.3-38.2c1.8-2.3,14.3,30.9,14.3,30.9
					S132.7,784.3,127.6,784.3z"/>
				<path fill="#F7941E" d="M251.1,780.1c-11.5-48.4-24-59.9-26.3-53.4c0,0-15.2,56.7-12,72.3C216.1,814.7,262.6,828.5,251.1,780.1z
					 M234,778.3c-5.1,2.3-6-4.1-6-4.1s-6.9,6.4-7.8,2.3c-0.9-4.1,7.4-45.6,7.4-45.6c4.6-3.7,11.1,24,12.4,35.5
					C241.4,777.8,239.1,776,234,778.3z"/>
				<path fill="#4A4B4C" d="M260.9,725.4c0,0-5.9-12.4,0.3-21.1s14.2-8.3,14.2-8.3s5.9-6.6,17.6,1.4c11.7,7.9,13.5,37.7,8.3,51.8
					c-5.2,14.2-2.4,14.5-2.4,14.5l-23.1-18.7L260.9,725.4z"/>
				<path fill="#FED296" d="M259.1,831.5l1.4,25.6c0,0-14.5,6.9-10.4,8.6c4.1,1.7,18.7-4.8,18.7-6.2c0-1.4-1-28.3-1-28.3
					L259.1,831.5z"/>
				<path fill="#FED296" d="M278.8,828.7l8.7,24.1c0,0-11.9,10.8-7.5,11.2c4.5,0.5,16.5-10,16.1-11.3c-0.4-1.3-9.1-26.8-9.1-26.8
					L278.8,828.7z"/>
				<path fill="#F48183" d="M260.2,795.5l-20.4,25.6c0,0,17.6,16.9,32.5,18c14.9,1,26.9-15.9,26.9-15.9l-11.7-25.9L260.2,795.5z"/>
				<path fill="#00B0D8" d="M264,740.6L250.2,753l3.5,7.9l5.9-3.8l0.3,40.8c0,0,9.3,13.8,20,10.7c10.7-3.1,10-8.6,10-8.6v-29.7
					l3.5-4.5c0,0,0.3-14.9-5.5-21.1C281.9,738.5,275.7,731.6,264,740.6z"/>
				<ellipse fill="#FED296" cx="273.8" cy="725.9" rx="17.5" ry="22.2"/>
				<ellipse fill="#FED296" cx="289.5" cy="729.8" rx="5.9" ry="7.7"/>
				<path fill="#4A4B4C" d="M260.5,705.7c0,0,1.7,10.4,6.9,11.4c5.2,1,12.4,5.2,12.4,5.2l-4.1-9c0,0,7.9,11.1,14.9,7.3
					S283,689.8,260.5,705.7z"/>
				<path fill="#FED296" d="M294.7,782.1c0,0-2.8-16.9-5.9-19c-3.1-2.1-5.2,4.5-1.7,15.5c3.5,11.1,4.1,22.1,4.1,22.1
					S299.2,803.1,294.7,782.1z"/>
				<path fill="#FED296" d="M252.2,752.7c0,0-24.9,13.8-23.8,15.9c1,2.1,23.1-5.2,25.6-10.7C256.4,752.4,252.2,752.7,252.2,752.7z"
					/>
				<path fill="#4A4B4C" d="M303.7,632.1c0,0-5.2-11.4,5.5-19c0,0,7.9-23.8,18.3-25.6c10.4-1.7,13.8,5.2,13.8,5.2s10-2.8,16.6,3.8
					s6.6,13.1,6.6,13.1s7.3,6.2,7.3,12.1s-6.6,8.3-6.6,8.3s3.5,7.6-1.7,12.8s-5.2,5.2-5.2,5.2s-1.7,6.6-6.2,9.7
					c-4.5,3.1-8.3,1.7-8.3,1.7s-2.4,5.2-5.5,5.2s-5.2-2.8-5.2-2.8s-3.1,5.2-7.3,5.2c-4.1,0-4.8-8.3-4.8-9.7
					C321,656,303.7,632.1,303.7,632.1z"/>
				<path fill="#F48183" d="M308.3,615.5c0,0,31.4-8.6,27.9,19.8c0,0,9.5-22.8-12.9-24.5C301,609.1,308.3,615.5,308.3,615.5z"/>
				<path fill="#F48183" d="M315.4,849.4l-1.7,6.9c0,0-12.8,1-15.9,5.2c-3.1,4.1,20.7,1,20.7,1l0.7-14.2L315.4,849.4z"/>
				<path fill="#F48183" d="M354.6,846.4l1.2,7c0,0-11.3,6.2-12.4,11.2c-1.1,5.1,19.4-7.5,19.4-7.5l-5.1-13.2L354.6,846.4z"/>
				<path fill="#7E8083" d="M320.6,744.8L313,850.5c0,0,4.5,1,7.3,0c2.8-1,13.5-75.7,13.5-75.7l19.3,73.9c0,0,5.2,2.1,6.9-1.7
					c1.7-3.8-5.9-79.5-6.2-88.1c-0.3-8.6-1.4-14.5-11.1-14.5C333.1,744.4,320.6,744.8,320.6,744.8z"/>
				<path fill="#C7C8CA" d="M318.2,727.1l3.1,20c0,0,26.3,2.4,26.9-2.1c0.7-4.5-3.8-15.9-3.8-15.9L318.2,727.1z"/>
				<path fill="#FED296" d="M300.6,682.2c0,0-19,5.9-27.6,12.8c-8.6,6.9-3.1,8.3,1,10.4c4.1,2.1,8.3-7.6,8.3-7.6s15.9-2.4,21.1-9.3
					C308.5,681.5,300.6,682.2,300.6,682.2z"/>
				<path fill="#4A4B4C" d="M296.8,678.8c0,0,4.1-6.6,14.2-6.6s26.6-3.5,33.9,1c7.3,4.5,9.3,9,10.4,10.7c1,1.7-10.4,15.2-10.4,15.2
					l3.5,34.9c0,0-25.2,2.8-32.8-3.1c-7.6-5.9-9.7-27.6-10-29c-0.3-1.4,0.3-10.7,0.3-10.7l-4.1,4.1
					C301.6,695.4,292.6,679.5,296.8,678.8z"/>
				<path fill="#FED296" d="M321.3,659.8l5.2,12.8l11.4,1.4c0,0-6.6,8.3-15.2,8.3c-8.6,0-13.1-8.3-13.1-8.3l9-0.3l-3.1-9.7
					L321.3,659.8z"/>
				<path fill="#FED296" d="M302.7,626.2c0,0-6.4,28.4,4.3,38.2c10.7,9.9,23.6-14.6,23.6-14.6s9,4.7,10.7-3c1.7-7.7-8.6-8.6-8.6-8.6
					l-0.9-11.6l-9,1.3l5.2-5.6c0,0-12.9,3.4-14.6,3.9c-1.7,0.4,3.4-6.4,3.4-6.4l-10.7,8.2l3.4-7.7
					C309.6,620.2,305.7,618.5,302.7,626.2z"/>
				<path fill="#FED296" d="M347.2,691.2l17.3,27.6l-12.4,29c0,0-2.1,4.1,4.5,2.1c6.6-2.1,16.6-32.5,16.6-32.5l-20-32.8
					C353.1,684.6,347.9,684.3,347.2,691.2z"/>
				<path fill="#4A4B4C" d="M182.7,583c-2,0-3.7-1.6-3.7-3.7c0-1.3,0.7-2.4,1.7-3.1c-0.6-0.2-1.2-0.4-1.9-0.4
					c-2.9,0-5.3,2.4-5.3,5.3s2.4,5.3,5.3,5.3c2.3,0,4.3-1.5,5-3.6C183.4,582.9,183.1,583,182.7,583z"/>
				<path fill="#4A4B4C" d="M161,586c-2,0-3.7-1.6-3.7-3.7c0-1.3,0.7-2.4,1.7-3.1c-0.6-0.2-1.2-0.4-1.9-0.4c-2.9,0-5.3,2.4-5.3,5.3
					s2.4,5.3,5.3,5.3c2.3,0,4.3-1.5,5-3.6C161.8,585.9,161.4,586,161,586z"/>
				<path fill="#4A4B4C" d="M151.1,577.2c0,0,3.9-5.1,5.8-4.8C158.7,572.6,154.1,576.5,151.1,577.2z"/>
				<path fill="#4A4B4C" d="M173.5,571.9c0,0,4.4-3.5,6-2.3C181.1,570.8,177.8,572.4,173.5,571.9z"/>
				<path fill="#4A4B4C" d="M159.9,599.8c0,0,4.4,3.5,9.2,0.7c4.8-2.8,7.1-4.4,7.1-4.4s1.2,13.1-7.4,15
					C160.3,612.9,159.9,599.8,159.9,599.8z"/>
				<path fill="#FFFFFF" d="M163.6,601.4l0.2,1.6c0,0,1.6,0.7,5.5-0.5c3.2-0.9,6.4-3.4,7-5.3c0-0.7,0-1.1,0-1.1s-2.3,1.6-7.1,4.4
					C167.1,601.6,165.2,601.7,163.6,601.4z"/>
				<path fill="#4A4B4C" d="M147.2,603.7l1.2-3.7l6.2-3.2l-1.6,4.4l2.8-1.6c0,0-0.9,1.8-0.2,5.8c0.7,3.9,6,9,6.7,9.4
					c0.7,0.5,0.7-2.8,0.7-2.8s1.2,4.6,2.3,4.1c1.2-0.5,2.5-4.1,2.5-4.1s-0.9,3.7,0.2,3.7s4.6-4.1,4.6-4.1v3.5c0,0,1.2-3.5,2.8-3.9
					c1.6-0.5,4.1-2.3,4.1-2.3s4.1-2.5,5.3-6.4c1.2-3.9,0.2-10.6,0.2-10.6l2.8,2.8l2.3-1.2c0,0,0.5,2.5,0,6.2
					c-0.5,3.7-5.8,12.2-9,16.6c-3.2,4.4-4.6,1.8-4.6,1.8l-2.5,5.5l-2.1-3.2l-1.2,5.8l-5.1-5.8l-1.8,5.1c0,0-10.6-7.1-15.9-12.9
					c-5.3-5.8-5.8-15.4-6.4-17.5c-0.7-2.1,0.7-3.9,0.7-6.9c0-3,1.4,6.9,1.4,6.9s2.8-2.8,2.8-1.6c0,1.2-0.2,4.1,0,6
					C146.5,601.2,147.2,603.7,147.2,603.7z"/>
				<path fill="#4A4B4C" d="M155.5,596.5c0,0,2.1-2.8,3.5-2.8s3.5,0.7,5.3,0.7c1.8,0,6.2-2.1,7.1-2.1s3.2,0,3.9,0s2.8-2.3,2.8-2.3
					l2.3,3.7l2.5-1.8c0,0,2.5,0.5,3,1.2c0.5,0.7,0.2,8.5,0.2,8.5l-2.5-3.9l-1.8-0.2l-5.8-3.9c0,0-1.4,2.1-5.3,3.5
					c-3.9,1.4-11.5,0-11.5,0l-4.8,5.8c0,0-0.2-1.6-1.4-1.6S151.1,597.7,155.5,596.5z"/>
				<path fill="#4A4B4C" d="M274.7,730.4c0,0,3.8-4.7,5.7-2.8c1.9,1.9,1.9,5.2,1.9,5.2S280.7,726.3,274.7,730.4z"/>
				<path fill="#4A4B4C" d="M260.2,728.2c0,0,3.8-4.7,5.7-2.8c1.9,1.9,1.9,5.2,1.9,5.2S266.2,724,260.2,728.2z"/>
				<path fill="#4A4B4C" d="M265,721.6c0,0,2.8-0.2,3.6,1C269.5,723.9,266.2,723.2,265,721.6z"/>
				<path fill="#4A4B4C" d="M276.1,723.9c0,0,2.8-0.2,3.6,1C280.6,726.1,277.3,725.4,276.1,723.9z"/>
				<path fill="#4A4B4C" d="M265.5,735.3c0,0-1.6,6.6,4,7.6s7.4-5.5,7.4-5.5L265.5,735.3z"/>
				<path fill="#FFFFFF" d="M268.3,737l7.7,2.5c0.7-1.2,1-2.2,1-2.2l-8.7-1.6L268.3,737z"/>
				<path fill="#4A4B4C" d="M320.6,640.7H314c0,0.1,0,0.3,0,0.4c0,0.7,0.2,1.3,0.5,1.8c0.3-0.1,0.5-0.2,0.8-0.2c1,0,1.7,0.6,1.7,1.3
					c0,0.1-0.1,0.3-0.1,0.4c0.1,0,0.2,0,0.4,0c1.9,0,3.4-1.5,3.4-3.4C320.7,641,320.6,640.9,320.6,640.7z"/>
				<path fill="#4A4B4C" d="M309.7,640.7h-6.7c0,0.1,0,0.3,0,0.4c0,0.7,0.2,1.3,0.5,1.8c0.3-0.1,0.5-0.2,0.8-0.2
					c1,0,1.7,0.6,1.7,1.3c0,0.1-0.1,0.3-0.1,0.4c0.1,0,0.2,0,0.4,0c1.9,0,3.4-1.5,3.4-3.4C309.8,641,309.8,640.9,309.7,640.7z"/>
				<path fill="#4A4B4C" d="M315.3,637.4c0,0,4.1-3.3,5.7-1.6C322.6,637.6,315.3,637.4,315.3,637.4z"/>
				<path fill="#4A4B4C" d="M304.6,637.4c0,0,4.1-3.3,5.7-1.6C311.9,637.6,304.6,637.4,304.6,637.4z"/>
				<path fill="#4A4B4C" d="M307.5,657c0,0,7.8,1.6,11.2-4.7C318.7,652.3,315.4,661.5,307.5,657z"/>
			</g>
		</g>
		<g>
			<ellipse fill="#E5E1DC" cx="561.7" cy="860.9" rx="114.5" ry="19.4"/>
			<g>
				<path fill="#141414" d="M502.8,676.1c-7.7,3.1,2.5-0.8,2.5-6.7c0.1-6-10.1-5.5-11-12.2c-0.9-6.7,5.1-13,5.1-13s-5-5.7-4.8-13.4
					c0.3-7.7,5.7-11.8,5.7-11.8s-1.9-7.8,3.5-15.4c5.4-7.5,18.4-12.2,37.2-11.7c18.8,0.5,30.9,27.8,23.8,44.5c0,0,9.6,11.1,2.7,20.1
					c-6.9,9-2.3,18.2-2.3,18.2s-11.9,0.3-13.8-7.5c0,0-1.3,6.6,5.1,9.5c0,0-14.2-4.1-21.7-3.5C527.2,673.7,510.5,673,502.8,676.1z"
					/>
				<path fill="#141414" d="M519.2,844.9l1.3,12.7c0,0-19.9-2.8-19.9-0.3c0,2.5-0.9,6-0.9,6h26.9l-0.9-17.7L519.2,844.9z"/>
				<path fill="#141414" d="M556.9,836.3l1.9,21.2c0,0-19.9-2.8-19.9-0.3c0,2.5-0.9,6-0.9,6h26.9l-1.6-26.3L556.9,836.3z"/>
				<path fill="#A97C50" d="M520.8,731.9l-18.4,110.8c0,0,19.9,7.3,41.8,4.4s36.7-15.8,38-17.1c1.3-1.3-28.5-93.1-28.2-94.3
					C554.3,734.4,520.8,731.9,520.8,731.9z"/>
				<path fill="#FFE39C" d="M501.5,687l-5.1,49.7c0,0,5.1,26.6,8.9,27.9c3.8,1.3-2.2-28.8-2.2-28.8l7.3-42.1l-0.3-5.4L501.5,687z"/>
				<path fill="#F7941E" d="M527,665.4c0,0-12.7-0.4-18.6,6.3c-5.9,6.8-9.7,13.9-9.7,13.9l10.1,7.6l-0.8,11l6.3,7.6l3,26.4
					c0,0,17.5,3.6,24.7,1.9c7.2-1.7,14.6-2.1,14.6-2.1l0.8-44.7l8.4-9.7c0,0-6.8-11-11.8-14.3C548.9,665.9,527,665.4,527,665.4z"/>
				<path fill="#FFFFFF" d="M550.2,671.3c0,0-21.5-9.3-34.2-1.3l-1.7,2.5l13.5,13.9l2.1,11l3.4-10.1
					C533.3,687.4,553.6,675.6,550.2,671.3z"/>
				<path fill="#FFE39C" d="M505.5,612.7c0,0-5.5,45,12.8,48.5c10.5-1,20.2-14.6,20.2-14.6s7.1,2.5,6.8-3c-0.3-5.5-1.7-16.4-9.2-8.6
					c0,0,2.6-22.1,2.5-23.3c-0.2-1.3-14.8,3.7-20.4-5.8C518.2,606,515.5,614,505.5,612.7z"/>
				<path fill="#FFE39C" d="M538.3,645.4c0,0-5.1,16-3.3,20.4c1.9,4.4,9.6,4.7,9.6,4.7s-4.8,9.1-13,8.1c-8.2-1-14.4-8.7-14.4-8.7
					l8.3-1.5c0,0,6.2-8.1-0.7-11.4C518.1,653.6,538.3,645.4,538.3,645.4z"/>
				<path fill="#FFE39C" d="M556.5,691.1c0,0,4.4-5.4,6.3-5.4c1.9,0,11.7,73.1,11.7,73.1s-2.2,1.6-7-4.1
					C562.9,749,554.6,699.6,556.5,691.1z"/>
				<circle fill="#141414" cx="515.1" cy="634.3" r="2.2"/>
				<circle fill="#141414" cx="528.4" cy="633.3" r="2.2"/>
				<path fill="#141414" d="M507.8,625.2c0,0,3.6-4.3,7.2-3C518.6,623.5,507.8,625.2,507.8,625.2z"/>
				<path fill="#141414" d="M523.4,625.2c0,0,3.6-4.3,7.2-3C534.2,623.5,523.4,625.2,523.4,625.2z"/>
				<path fill="#141414" d="M512.9,640.3c0,0,2.3,11.4,5.7,10.6c3.4-0.8,9.1-11.6,9.1-11.6s-4.4,14.3-9.5,13.1
					C513.1,651.1,512.9,640.3,512.9,640.3z"/>
				<g>
					<path fill="#FFE39C" d="M613.2,816.7c0,0,3.5,9.8,5.7,9.5c2.2-0.3,0-7.3-1.6-10.8C615.7,812,615.1,812.3,613.2,816.7z"/>
					<path fill="#FFE39C" d="M571.7,777.8c0,0-4.1-13.6-2.5-17.1c1.6-3.5,7.6,7.3,7.6,13S571.7,777.8,571.7,777.8z"/>
					<path fill="#FFE39C" d="M577.4,848.4l0.3,12.3c0,0-7.3-2.5-7.3,0.3s0,2.8,0,2.8H586l0.6-14.6L577.4,848.4z"/>
					<path fill="#FFE39C" d="M603.7,848.4l0.3,12.3c0,0-7.3-2.5-7.3,0.3s0,2.8,0,2.8h15.5l0.6-14.6L603.7,848.4z"/>
					<path fill="#A97C50" d="M574.9,828.1l-2.8,21.8c0,0,5.4,2.8,12.3,1.9c7-0.9,7-0.9,7-0.9l3.2-9.5l4.4,12c0,0,13.6,0.3,15.5-6.3
						c1.9-6.6-6-19.9-6-19.9L574.9,828.1z"/>
					<path fill="#F7941E" d="M583.1,790.5l-4.4-15.5c0,0-8.9-0.3-8.5,2.5c0.3,2.8,2.2,19,2.2,19l-2.8,32.3c0,0,8.9,3.8,21.5,4.7
						c12.7,0.9,20.6-7,20.6-7l-1.3-9.2l5.1,3.2c0,0,1.6-1.9,1.9-5.1c0.3-3.2-5.4-17.7-7-17.7S583.1,790.5,583.1,790.5z"/>
					<path fill="#FFE39C" d="M612.5,787.6c0,0,6.7-26.4-22-21.8c-20.1,2.7-12,22-12,22s-14,7-6,12.3c7.9,5.3,33,5,40.7-1.1
						c0,0,8.4,2.7,9.4-5.9C623.5,784.4,618.4,784.3,612.5,787.6z"/>
					<circle fill="#141414" cx="595.9" cy="786.9" r="2.2"/>
					<path fill="#141414" d="M581.9,789.1l4.9-0.8C586.7,788.2,583.3,785.9,581.9,789.1z"/>
					<path fill="#141414" d="M583.3,782.5c0,0,0.6,0,2.3,0.4C587.3,783.4,587.1,780.6,583.3,782.5z"/>
					<path fill="#141414" d="M593.7,782.3c0,0,0.6,0,2.3,0.4C597.7,783.2,597.5,780.4,593.7,782.3z"/>
					<path fill="#141414" d="M578.3,771.6c0.4,1,6.2-2.3,7.8-3.6c1.6-1.3,8,8.7,14.4,9.1c6.4,0.4,10.4,11.4,10.4,11.4
						s4.2-1.9,4.9-1.9c0.7,0,1.8-7.8-0.7-16.5c-2.4-8.7-18.4-7.2-18.4-7.2s-4.2-0.8-8-0.8C584.9,762.1,576.5,766.7,578.3,771.6z"/>
					<path fill="#141414" d="M584,795.8c0,0,1.5,5.1,6.3,3.8c4.9-1.3,6.1-3.8,6.1-3.8H584z"/>
					<polygon fill="#FFFFFF" points="590.9,797.9 591.3,795.8 586.9,795.8 587.1,797.7 					"/>
				</g>
			</g>
		</g>
		<g>
			<ellipse fill="#E5E1DC" cx="805.8" cy="453" rx="170.5" ry="19.4"/>
			<g>
				<path fill="#141414" d="M761,248.6c0,0,6.2,4.8,29.9,6.1c23.7,1.3,32.1-7.9,32.1-7.9s6.2-14.9-4-36.3
					c-10.1-21.4-28.6-23.2-38.7-14.4C770.2,204.9,781.2,235.9,761,248.6z"/>
				<path fill="#141414" d="M748.7,437l-0.4,7.8c0,0-18.6-0.7-20.9,3.4c-2.2,4.1,15.3,1.1,20.9,1.5c5.6,0.4,5.6,0.4,5.6,0.4
					l0.7-14.5L748.7,437z"/>
				<path fill="#141414" d="M818.4,427.7l15.7,5.6l-3,12.3c0,0-4.1-3-6.3,0c-2.2,3,0,4.1,0,4.1s7.5,0,8.9,0s7.1-15.3,6.3-18.3
					c-0.7-3-20.5-7.5-20.5-7.5L818.4,427.7z"/>
				<path fill="#7E8083" d="M772.9,330.7l-26.8,108.1l9.3-0.7l23.9-72.7c0,0,8.6,44.4,11.6,47.7c3,3.4,29.8,17.1,29.8,17.1l2.6-6
					c0,0-23.5-14.2-25-21.2c-1.5-7.1,8.2-47.3,5.6-61.5C801.2,327.4,772.9,330.7,772.9,330.7z"/>
				<path fill="#FED296" d="M748.3,299.1l-20.1,40.6c0,0,2.6,3.7,8.9-3c6.3-6.7,17.9-36.5,17.9-36.5L748.3,299.1z"/>
				<path fill="#141414" d="M863.5,432.5l0.7,11.2c0,0-17.1,3-15.7,4.8c1.5,1.9,23.9-1.1,23.9-1.1l-3.4-13.8L863.5,432.5z"/>
				<path fill="#141414" d="M917.6,423.6l6,14.2c0,0,7.5,11.9,10.4,12.3c3,0.4,10.4,0.7,10.4,0.7s0-4.8-6.3-6
					c-6.3-1.1-11.2-17.1-12.3-19C924.6,423.9,917.6,423.6,917.6,423.6z"/>
				<path fill="#7E8083" d="M847.8,319.9L859,434.4l12.3,2.2V355c0,0,39.5,66,46.2,70.8c6.7,4.8,10.1,0,10.1,0
					s-34.7-93.9-34.7-103.3C892.9,313.2,847.8,319.9,847.8,319.9z"/>
				<path fill="#00B0D8" d="M857.7,238.9l-17.1,0.2l-16.2,16.9c0,0-3.7,10.7,3.5,16.7l11.7-9.2c0,0-1.5,52.2-1.5,56.2
					c0,4,19.1,16.9,38,15.9c18.9-1,20.4-12.7,20.4-12.7l-4.2-47.2c0,0,10.2-3.7,9.9-11.2c-0.2-7.5-10.2-21.9-11.4-22.4
					C889.5,241.6,874.1,234.2,857.7,238.9z"/>
				<path fill="#FED296" d="M825.8,268c0,0,4.7-1.5,3.5-5.5c-1.2-4-11.2-5.5-14.9-7.2c-3.7-1.7-18.4-3.7-18.4,1.5
					C796,262,825.8,268,825.8,268z"/>
				<path fill="#F37D8C" d="M747.6,300.2c0,0,23.1-43.2,28.7-44.7c5.6-1.5,34.3-2.2,42.1,3.4c7.8,5.6,9.7,57,9.7,57l-9.7,1.5
					l-7.1-35l-8.9,55.2c0,0-21.2,5.2-27.6,1.5c-6.3-3.7-0.4-44.4-0.4-44.4s-4.1-2.2-4.1-4.5c0-2.2,3.4-13.4,3.4-13.4l-20.1,26.1
					L747.6,300.2z"/>
				<path fill="#FED296" d="M790.8,242.8l0.4,15.3l-10.4-0.7c0,0,3.4,7.5,11.6,8.6c8.2,1.1,16.4-8.2,16.4-8.2l-11.2-0.4l1.5-16.8
					L790.8,242.8z"/>
				<path fill="#FED296" d="M781.5,201c0,0-7.6,37.7,4.8,45.6c12.4,8,20.4-17.9,20.4-17.9s5.5,3,6-2.5c0.5-5.5-1.5-10.4-6-6
					c0,0-16.3-8.5-16.3-23.7L781.5,201z"/>
				<path fill="#FED296" d="M783,327.8c0,0,39.1-13,40.3-13c1.1,0,6.3-0.4,3,6C822.9,327,778.9,334.8,783,327.8z"/>
				<path fill="#141414" d="M825.7,326.1c-0.6-2.8-1.3-5.7-2.3-7.9c-1-2.1-2.2-3.9-4.2-3.9c-0.2,0-0.4,0-0.5,0.1
					c-1.5,0.3-2.8,1.4-4,3c1-0.3,2-0.6,2.9-0.9c0,0,0,0,0.1,0c0.5-0.4,0.9-0.6,1.3-0.6c0.1,0,0.2,0,0.3,0c0.8-0.1,1.9,1,2.9,3.1
					c1.4,3,2.4,7.7,3,11.6c0.6,3.9,0.9,7,0.9,7l1.5-0.1C827.3,337.4,826.9,331.8,825.7,326.1z M806.1,336.9l1.4,0.4
					c0-0.1,1.4-4.9,3.5-10c-0.6,0.1-1.2,0.3-1.8,0.4C807.3,332.6,806.1,336.9,806.1,336.9z"/>
				<path fill="#00B0D8" d="M800,336.3c0,0-2.3,40.9-1.1,41.2c1.3,0.3,6.3,3,6.3,3l28.3-0.4c0,0,4.4-6.7,4.6-7.1
					c0.1-0.5-5.6-38.2-5.6-38.2L800,336.3z"/>
				<circle fill="#FFFFFF" cx="817.7" cy="357.7" r="12.4"/>
				<path fill="#FED296" d="M665.5,369.5c0,0-22.7-3.4-22.7,0.4c0,3.7,17.5,6,19.4,6C664,375.9,665.5,369.5,665.5,369.5z"/>
				<path fill="#141414" d="M691.4,410.7c0,0,8.5,34,8.5,34.8c0,0.7-9.9,0.5-10.2,2.2c-0.2,1.7,16.7,2,16.7,2l-3-29.6l10.7,1.5
					l5,22.1c0,0-8.5,3.2-6.2,4c2.2,0.7,11.9,0,11.9,0s-2.2-36.5-2.2-39.3C722.4,405.7,691.4,410.7,691.4,410.7z"/>
				<path fill="#DCDDDE" d="M683.2,371.9c0,0,0,0.3,0.1,1c0.6,6.2,4.2,40.2,4.6,41.8c0.5,1.7,20.4,7,32.1,2
					c11.7-5,6.2-20.4,6.2-20.4s-5.2-28.8-7-32.6c-1.7-3.7-3.5-6-8.9-5.2C704.8,359.2,684.4,347.3,683.2,371.9z"/>
				<path fill="#00B0D8" d="M662.6,380.3l-1.2-11.7l20.9-3l2.7-4.5l6.7-0.7l-1.7,2.2c0,0,4.5,2.7,6.5,3.2c2,0.5,2.7,6.7,2.7,6.7
					l-6-2l1.2,34.5c0,0-11.4-4-12.7-6.7c-1.2-2.7-2.7-19.6-2.7-19.6L662.6,380.3z"/>
				<path fill="#00B0D8" d="M711.8,358.7l3,3.5l-3.5,2.2l1.7,7.7l3-4.2c0,0,6.5,31.3,8.7,33.3c2.2,2,5.2,3.2,5.2,3.2s-0.2-2-0.5-6.5
					c-0.2-4.5-3.5-32.3-3.5-32.3l6.5-6.7l-7.2-6.2L711.8,358.7z"/>
				<path fill="#FED296" d="M711.8,345.3c0,0-2.2-19-14.5-20.9c-12.3-1.9-23.9,11.6-22,25.4c0,0-5.6,1.9-4.1,8.6
					c1.5,6.7,7.5,0,7.5,0s18.3,7.5,32.8,3C725.9,356.8,711.8,345.3,711.8,345.3z"/>
				<path fill="#FED296" d="M724.1,355.7c0,0,9.7-23.1,12.7-23.1s-5.2,26.8-5.2,26.8L724.1,355.7z"/>
				<path fill="#141414" d="M711.6,357.2c0,0-1.1-6.8-4.7-6.6c-3.6,0.2-4,8.6-4,8.6s1.7-2.6,3.7-2.6
					C708.7,356.6,711.6,357.2,711.6,357.2z"/>
				<path fill="#FFFFFF" d="M704.6,353l3.7-0.6l-0.2-1.5c-0.4-0.1-0.7-0.2-1.2-0.2c-1.1,0.1-1.9,0.9-2.5,2
					C704.5,352.9,704.6,353,704.6,353z"/>
				<path fill="#141414" d="M707.2,341.2c-0.9,0-1.6-0.7-1.6-1.6c0-0.3,0.1-0.5,0.2-0.8c-0.1,0-0.2,0-0.2,0c-1.6,0-2.9,1.3-2.9,2.9
					c0,1.6,1.3,2.9,2.9,2.9c1.6,0,2.9-1.3,2.9-2.9c0-0.3-0.1-0.7-0.2-1C708.1,341,707.7,341.2,707.2,341.2z"/>
				<path fill="#141414" d="M784.3,222.9c-0.9,0-1.6-0.7-1.6-1.6c0-0.3,0.1-0.5,0.2-0.8c-0.1,0-0.2,0-0.2,0c-1.6,0-2.9,1.3-2.9,2.9
					c0,1.6,1.3,2.9,2.9,2.9s2.9-1.3,2.9-2.9c0-0.3-0.1-0.7-0.2-1C785.2,222.7,784.8,222.9,784.3,222.9z"/>
				<path fill="#141414" d="M793.7,223.7c-0.9,0-1.6-0.7-1.6-1.6c0-0.3,0.1-0.5,0.2-0.8c-0.1,0-0.2,0-0.2,0c-1.6,0-2.9,1.3-2.9,2.9
					c0,1.6,1.3,2.9,2.9,2.9c1.6,0,2.9-1.3,2.9-2.9c0-0.3-0.1-0.7-0.2-1C794.5,223.5,794.2,223.7,793.7,223.7z"/>
				<path fill="#141414" d="M697.8,343.8c-0.9,0-1.6-0.7-1.6-1.6c0-0.3,0.1-0.5,0.2-0.8c-0.1,0-0.2,0-0.2,0c-1.6,0-2.9,1.3-2.9,2.9
					c0,1.6,1.3,2.9,2.9,2.9c1.6,0,2.9-1.3,2.9-2.9c0-0.3-0.1-0.7-0.2-1C698.6,343.6,698.2,343.8,697.8,343.8z"/>
				<path fill="#141414" d="M693.2,339.9c0,0,0.9-2.1,2-2C696.4,338.1,695,339.8,693.2,339.9z"/>
				<path fill="#141414" d="M701.7,337.7c0,0,0.9-2.1,2-2C704.8,335.8,703.4,337.6,701.7,337.7z"/>
				<path fill="#141414" d="M675.6,350.1c1.4,2.2,3.9,6.2,4.8,4.2c1-2,1-3.7,4-11.6c3-7.8,7.5-16.9,15.5-15.4c8.1,1.5,3-1.9,3-1.9
					l1.2-5.2l-4.6,0.4l3.1-2.9c0,0-16-0.2-22,7.7c-6,8-5.3,10.3-5.3,10.3s-2.4-0.5-3.6,4.1c-1.2,4.6,1.7,10.3,1.7,10.3L675.6,350.1z
					"/>
				<path fill="#141414" d="M682.9,338.3c0,0-0.4,15.2,1,16.8c1.4,1.6-3.7-2-3.7-2L682.9,338.3z"/>
				<path fill="#141414" d="M781.8,218.9c0,0,0.9-2.4,2.2-1.9C785.2,217.6,781.8,218.9,781.8,218.9z"/>
				<path fill="#141414" d="M790.6,219.5c0,0,0.9-2.4,2.2-1.9C794,218.1,790.6,219.5,790.6,219.5z"/>
				<path fill="#141414" d="M784.5,239.5c0,0,0.4-8.1,3.3-7.3c2.9,0.7,2.9,7.9,2.9,7.9L784.5,239.5z"/>
				<path fill="#141414" d="M848,193.6c0,0-3-4.2,0.9-10.8c3.9-6.6,16.2-1.5,23.1-1.5c7,0,14.9-4,14.9-4l-1,4.6l3-0.5
					c0,0,6.5,8.9,2.4,20.4c-4.1,11.4-11.8,20.8-11.8,22.4c0,1.6-5.3,1.5-5.3,1.5L848,193.6z"/>
				<path fill="#FED296" d="M853.6,184.6l14,0.5l6.3,6l3.1,17.1c0,0,4.6-7,8.4-3.8c3.8,3.1-0.2,14.2-5.3,13l-4.1,4.8l-2.2,19.5
					l10.6,2.4c0,0-3.6,5.3-13.7,6.3c-10.1,1-19.5-8.4-19.5-8.4l12-1.2l0.5-13.5c0,0-11.3-1.4-13.7-4.1c-2.4-2.6-2.4-32.7-2.4-32.7
					L853.6,184.6z"/>
				<path fill="#FED296" d="M882,266.3c0,0,5.7,3.5,2,7.5c-3.7,4-27.3,5.5-27.3,5.5s-33.6-2-35.5-4.5c-2-2.5,1.7-7,12.4-5.7
					c10.7,1.2,24.4,3,24.4,3L882,266.3z"/>
				<path fill="#141414" d="M854.1,214.4l8.1,0.5c0,0-1.4,5.9-4.5,4.8C854.5,218.6,854.1,214.4,854.1,214.4z"/>
				<path fill="#141414" d="M860.6,202.6c0,0,2.7-3.4,4.6-2.2c1.9,1.1,2,1.7,2,1.7S864.1,200.1,860.6,202.6z"/>
				<path fill="#141414" d="M861.5,199.4c0,0,1.6-4,3.1-3.1S861.5,199.4,861.5,199.4z"/>
				<path fill="#141414" d="M851.3,199.1c0,0,1.6-4,3.1-3.1C855.9,196.9,851.3,199.1,851.3,199.1z"/>
				<path fill="#141414" d="M855.5,203.6c0,0-0.5-3-2.2-3c-1.7,0-2.2,2-2.2,2s1.9-1.2,2.7-1C854.7,201.9,854,203.9,855.5,203.6z"/>
				<path fill="#141414" d="M857.9,211.6c0,0-1.6-2.9-4.3-1.7c-2.7,1.1-5-1.6-5-1.6s-1.6,4.5,1,5c2.6,0.5,17.2,1.7,18.9,0.2
					c1.7-1.5,2.2-3.7,2.2-3.7s-1.9,1.6-3.4,1.9C865.9,211.8,861.4,207.3,857.9,211.6z"/>
				<path fill="#FFFFFF" d="M862.1,215l-6.1-0.4v1l6,0.1C862,215.2,862.1,215,862.1,215z"/>
			</g>
		</g>
		<g>
			<ellipse fill="#E5E1DC" cx="469.3" cy="453" rx="127.3" ry="19.4"/>
			<g>
				<g>
					<path fill="#141414" d="M413.4,435.8l-4.6,11.5c0,0-16.6-11.1-21.7-10.6c-5.1,0.5-5.5,5.5-5.5,5.5l32.7,14.3l6.4-16.1
						L413.4,435.8z"/>
					<path fill="#141414" d="M501.9,416l6.8,10.3c0,0-2.1,8-7.8,10.9c-4.2,2.1-12.2-1-13.2,0.9c-2.5,4.4,1.4,7.7,1.4,7.7l14.6-2.1
						l15.8-16.6l-9.6-14.5L501.9,416z"/>
					<path fill="#A97C50" d="M429,328.5l4.6,39.2l-26.3,70.9l18.4,6.5l29-58.5l19.3,19.8l28.1,18.4c0,0,7.8-10.6,7.8-13.8
						c0-3.2-24-18.4-24-18.4s-15.2-27.6-15.2-29s12-33.6,12-42.8C482.9,311.4,429,328.5,429,328.5z"/>
					<path fill="#7E8083" d="M462.6,228.9l-31.5,0.9l-23.7,31.5l-6.6-50.2l-16,5.4c0,0,8.6,61.6,16.9,64.2
						c8.2,2.6,27.9-17.6,27.9-17.6s-13.7,58-11.9,68c1.8,10,49.9,1.8,65.4,2.5c15.4,0.8,6-63.5,5.3-68.5c-0.7-5,24.8,19,26.3,19.8
						c1.5,0.7-11.6,21.5-11.6,21.5s4,5.5,9.6,5.7c5.6,0.2,19.1-31.3,18.2-37.7c-0.8-6.4-43.1-38-44.5-41.1
						C485.1,230.1,462.6,228.9,462.6,228.9z"/>
					<path fill="#141414" d="M440.6,199.3c0,0-3-15.9-1.4-24.4c1.7-8.6,28.7-14.5,48-9.6c19.2,4.9-2.3,56.5-2.3,56.5L440.6,199.3z"
						/>
					<path fill="#FFE39C" d="M441.5,178.2l-3.9,40.5l19.7,8.5l-1,9.9l-10-1.5c0,0-0.7,8.9,11.9,9.1c12.6,0.2,18-8,18-8l-11.2-0.4
						l1.6-5.8l12.7-5.9c0,0,12.2,1.2,11.1-11.2c-1.2-12.4-9.2-2.5-9.2-2.5l-1.7-34.2l-17.3,6.5l2-6.3l-13.6,2.7l3.4-5.6L441.5,178.2
						z"/>
					<polygon fill="#58B7DD" points="485.9,349.8 491.8,345 526,343.6 536.4,391.9 491.5,392.3 					"/>
					<path fill="#FFE39C" d="M396.8,217c0,0,6.4-8.3,4.1-15.2c-2.3-6.9-19.3-8.3-18.4,4.1C383.4,218.4,396.8,217,396.8,217z"/>
					<g>
						<path d="M520,347.7c-0.4-0.1-0.6-0.4-0.5-0.8l0,0c0.4-2.1,0.6-4.2,0.6-6.2l0,0c0-6.6-2.2-12.7-5.4-17l0,0
							c-3.2-4.4-7.6-7-11.8-7l0,0c-1.4,0-2.8,0.3-4.2,0.9l0,0c-4.3,1.9-5.6,6.5-5.6,11.6l0,0c0,7.9,3.2,16.5,3.2,16.5l0,0v0
							c0.1,0.4,0,0.8-0.4,0.9l0,0c-0.4,0.1-0.8,0-0.9-0.4l0,0c0,0-3.3-8.8-3.3-17l0,0c0-5.3,1.4-10.7,6.5-12.9l0,0
							c1.6-0.7,3.2-1,4.8-1l0,0c9.7,0.1,18.6,11.5,18.6,25.4l0,0c0,2.1-0.2,4.3-0.7,6.5l0,0c-0.1,0.3-0.4,0.6-0.7,0.6l0,0
							C520.1,347.7,520,347.7,520,347.7L520,347.7z"/>
					</g>
					<path fill="#FFE39C" d="M506.9,305.9c0,0-12.4,13.8-10.1,17c2.3,3.2,14.7,4.6,14.7,0.9c0-3.7-1.4-10.1-1.4-10.1l2.3-6.9
						L506.9,305.9z"/>
					<polygon fill="#A97C50" points="373,286.9 370.5,258.9 384.4,252.4 403,260.7 391.3,288.3 					"/>
					<path fill="#58B7DD" d="M391.3,205.5c-7.8-0.5-47.4,100.4-29.5,115.6c18,15.2,50.7,10.1,55.7-20.7
						C422.6,269.5,399.1,206,391.3,205.5z M400.9,274.1c-5.5,0.5-7.4-7.8-7.4-7.8s-9.7,11.5-13.8,10.6c-4.1-0.9-5.1-9.2-5.1-9.2
						s-6.4,7.4-7.8,3.7c-1.4-3.7,23-57.1,23-57.1c9.2-8.8,18.4,51.6,18.4,51.6S406.5,273.7,400.9,274.1z"/>
					<path fill="#141414" d="M444.9,217.9h24c0,0-3.7-4.4-11.5-4.6C449.5,213.1,445.9,213.1,444.9,217.9z"/>
					<circle fill="#141414" cx="464.6" cy="200.6" r="2.4"/>
					<circle fill="#141414" cx="447.5" cy="200.6" r="2.4"/>
					<path fill="#141414" d="M453.5,220.2l6-0.2C459.4,220,457.1,223,453.5,220.2z"/>
					<path fill="#141414" d="M444.9,193.8c0,0,1.8-3,3.7-2.1C450.5,192.6,444.9,193.8,444.9,193.8z"/>
					<path fill="#141414" d="M462.2,193.8c0,0,1.8-3,3.7-2.1C467.7,192.6,462.2,193.8,462.2,193.8z"/>
				</g>
				<g>
					<path fill="#FFE39C" d="M553.2,438.6l1.2,13.7c0,0-8.8-3-8.8,0.1s0,3.1,0,3.1h15.8l1.8-15.9L553.2,438.6z"/>
					<path fill="#A97C50" d="M562.8,448.8c-3-0.9-6.3-1-9.4-0.3l0.1,3.6c0,0-7.9-2.8-7.9,0.3c0,3.1,0,3.1,0,3.1h16.9L562.8,448.8z"
						/>
					<path fill="#141414" d="M557.6,344.5c-0.1-2.2,1.1-4.2,2.8-5.7c1.6-1.4,3.7-2.2,5.8-2.8c1.4-0.4,2.9-0.6,4.3-0.3
						c0.7,0.1,1.4,0.4,2,0.7c5.6,2.6,9,8.5,10.7,14.4c1.8,5.9,2.3,12.1,4.2,18c0.7,2.2,1.7,4.5,3.3,6.2c1.6,1.8,3.8,3,6.2,2.9
						c-2.4,1.9-6.6,1.4-9.3-0.2c-2.8-1.6-4.6-5.3-6-8.2c-0.8-1.6-1.3-3.3-2-4.9c-1.5-3.4-3.9-6.4-7.2-8.2s-7.4-2.1-10.7-0.4
						L557.6,344.5z"/>
					<path fill="#F37D86" d="M570.3,346.6c-1.5-2.3-3.9-3.8-6.5-4.7c-1.9-0.6-5.9-1.8-7.3,0c-0.2,0.3-0.3,0.7-0.3,1.1
						c-0.1,1.9,1.1,2.3,2,3.6c0.8,1,1.1,2.7,1.5,3.9c0.6,1.8,1.2,3.7,2,5.5c1.7-0.7,2.2-0.1,3.7,0.7c1.5,0.8,3.2,1.3,4.9,1.4
						c0.6,0,1.2,0,1.7-0.2c1.6-0.6,1.8-2.3,1.7-3.8C573.5,350.9,571.9,349,570.3,346.6z"/>
					<path fill="#FFE39C" d="M528.8,438.6l1.2,13.7c0,0-8.8-3-8.8,0.1s0,3.1,0,3.1h15.8l1.8-15.9L528.8,438.6z"/>
					<path fill="#F37D86" d="M526.2,418.8l-0.1,0.6l-4.1,19.3c0,0,14.8,2.8,19.9,1.9l2.7-9.5v9.6c0,0,17.1,4.8,25.7-2l-4.5-22.4
						c0,0-21.5,4.6-39.4-1.5L526.2,418.8z"/>
					<path fill="#FFE39C" d="M564.8,404.4c0,0,3.8,10.7,6.2,10.4c2.4-0.3,0-7.9-1.7-11.7C567.5,399.2,566.8,399.6,564.8,404.4z"/>
					<path fill="#FFE39C" d="M532.7,396.2c0,0-4.3,14.9-7.9,17.1c-3.5,2.2-2.6-11.2,0.8-16.4C529,391.8,532.7,396.2,532.7,396.2z"/>
					<path fill="#7E8083" d="M539.2,382.9c-2.1,1.1-4,2.7-5.8,4.2c-2.7,2.3-5.4,4.8-7.6,7.7c-1,1.4-2,2.9-2.7,4.6
						c-0.9,2.3,1.1,2.7,3.1,3.8c0.9,0.5-0.5,6.6-0.6,7.5c-0.2,2.3-0.7,5.2-0.9,7.4c0,0,7.3,3.2,20.1,4.2c12.8,1,22.1-7.1,22.1-7.1
						l-2.6-9.3l1.4,3.6c0,0,3.8-1.8,5.2-4.2c1.6-2.8-5-19.3-6.6-19.3c-2.7,0-5.8-1.4-8.4-2.1c-5.5-1.5-10.9-4.3-16.4-1.5
						C539.6,382.7,539.4,382.8,539.2,382.9z"/>
					<path fill="#FFE39C" d="M567.1,372.3c0,0,7.3-28.8-24-23.8c-5.1,0.8-10.2,2.5-13,7.2c-1.9,3.2-2.2,7.1-1.7,10.8
						c0.3,2,0.7,4.2,1.6,6.1c-2.2,1.1-3.2,2.7-3.9,5.1c-0.7,2.4-0.8,5,0.2,7.3c2.5,5.6,12,5.1,17,5.1c6.6,0.1,13.5-0.5,19.7-2.8
						c1.7-0.6,3.4-1.4,4.8-2.5c0,0,9.2,3,10.3-6.5C579.1,368.9,573.5,368.7,567.1,372.3z"/>
					<circle fill="#141414" cx="549" cy="371.5" r="2.4"/>
					<circle fill="#141414" cx="537.1" cy="371.5" r="2.4"/>
					<path fill="#141414" d="M535.3,366.8c0,0,0.7,0,2.5,0.5C539.6,367.7,539.4,364.7,535.3,366.8z"/>
					<path fill="#141414" d="M546.6,366.6c0,0,0.7,0,2.5,0.5C550.9,367.5,550.7,364.5,546.6,366.6z"/>
					<path fill="#141414" d="M536,381.3c0,0,1.6,5.5,6.9,4.1s6.7-4.1,6.7-4.1H536z"/>
					<path fill="#141414" d="M531,361c-0.7,2.3,0.1-10.5,2.1-12c-1.1,0.1-2.1,0.1-3.2,0.2c0.8-1.1,1.9-1.8,3.1-2.4
						c1.2-0.5,2.5-0.9,3.7-1.5c3.4-1.5,7.1-2.9,10.8-2.5c0,0,20.3-2.1,22.7,11.7c0,0,0,0,0,0c2.2,8.9,1.1,16.6,0.4,16.6
						c-0.7,0-4.1,2.8-4.1,2.8c-11.6-4-21.1-13.6-25.3-18.9c1.3,3.3,3.4,6.4,3.4,6.4c-3.9-2-6.6-7-7.9-9.7
						C536.8,351.7,532.7,355,531,361z"/>
					<path fill="#141414" d="M573.4,362.6c-2.3-23.4-24.4-20-24.4-20l14.5,21.3c6.1,18.4-1.9,29.8-1.9,29.8s10,5.5,11.8-3.8
						C575.9,377.6,573.4,362.6,573.4,362.6z"/>
					<path fill="#141414" d="M532.7,352.6c0,0-4.3,18.4-2.8,29.4s5.3,12.4,5.3,12.4s-9.4,0.7-9.7-13.2c-0.2-13.9,0.7-30,9.1-32.8
						C543,345.7,532.7,352.6,532.7,352.6z"/>
					<path fill="#A97C50" d="M538.4,448.8c-3-0.9-6.3-1-9.4-0.3l0.1,3.6c0,0-7.9-2.8-7.9,0.3c0,3.1,0,3.1,0,3.1h16.9L538.4,448.8z"
						/>
				</g>
			</g>
		</g>
		<g>
			<ellipse fill="#E5E1DC" cx="1171.9" cy="453" rx="170.5" ry="19.4"/>
			<g>
				<path fill="#FED296" d="M1187.3,313.5c0,0-0.1,12.4,2.8,13.5c2.9,1.2,3.6-10,3.6-10L1187.3,313.5z"/>
				<path fill="#00345E" d="M1215.7,440.9l0.3,3.8c0,0-19.8,4.8-20.1,7.4s27.2-0.3,27.2-0.3l-1.3-10.2L1215.7,440.9z"/>
				<path fill="#00345E" d="M1112.4,439l0.3,3.8c0,0-19.8,4.8-20.1,7.4c-0.3,2.6,27.2-0.3,27.2-0.3l-1.3-10.2L1112.4,439z"/>
				<path fill="#00345E" d="M1153.7,439l0.3,3.8c0,0-19.8,4.8-20.1,7.4c-0.3,2.6,27.2-0.3,27.2-0.3l-1.3-10.2L1153.7,439z"/>
				<path fill="#00345E" d="M1251.8,442.5l0.3,3.8c0,0-19.8,4.8-20.1,7.4c-0.3,2.6,27.2-0.3,27.2-0.3l-1.3-10.2L1251.8,442.5z"/>
				<path fill="#754C29" d="M1205.8,324.4c0,0,4.3,118.9,5.5,119.3c1.3,0.4,16.6,1.7,16.6,1.7l5.1-92l9.8,92.5c0,0,17.5,0.4,20-3.8
					c2.6-4.3-3.8-113.4-3.8-113.4L1205.8,324.4z"/>
				<path fill="#74B74A" d="M1201.5,225.5c0,0,16.5-9.8,34.8-12.2c18.2-2.3,40.5,7.8,40.5,7.8l13,70.1l4.1,33.9l-13,4.1l-5.2-37.9
					l-9.3-40l-0.6,83.4c0,0-12.2,4.9-27.2,2c-15.1-2.9-37.1-8.4-37.1-8.4l4.9-79.4l-8.7,36.5l-2.2,33c0,0-8.7-0.3-9.8-4.3
					c-1.2-4.1-0.4-39.7-0.4-39.7L1201.5,225.5z"/>
				<path fill="#00345E" d="M1265.2,215.4c0,0-15.6,18.9-17.4,23.4l-23.6-3.1c0,0-6.8-15.8-7-17.8c-0.2-1.9-3.7-1.4-7,1.2
					c-3.3,2.5,2.9,30.9,2.9,30.9s-6.6,40.7-6.4,41.9c0.2,1.2-3.9,3.3-3.9,3.3s-1.2,7.9-0.4,9.3c0.8,1.4,6-3.1,6-3.1s12.4,6.8,22,5.2
					c9.7-1.5,13.1-4.8,13.1-4.8s10.4,6.4,15.6,7.3c5.2,1,8.3,0.2,8.3,0.2s1.4-5.6,0-7.1c-1.4-1.5-9.5-7.3-12.9-9.7
					c-3.5-2.3,3.3-50.8,3.3-52.9s13.9-19.9,13.9-19.9S1273.9,214.6,1265.2,215.4z"/>
				<path fill="#FED296" d="M1232.2,202.5l-0.4,15.1l-10.8,3.1c0,0,7.3,4.6,14.3,5.4c7,0.8,17.4-8.5,17.4-8.5l-10.8-0.8l-0.4-18.2
					L1232.2,202.5z"/>
				<path fill="#754C29" d="M1208.6,171.5c0,0-7-4.8,0.3-15c7.4-10.2,34.8-12.1,39,1.9c0,0,9.6-2.9,11.8,5.4
					c2.2,8.3-5.4,24.6-6.4,26.8S1208.6,171.5,1208.6,171.5z"/>
				<path fill="#FED296" d="M1207.8,166.9c0,0-3.5,37.5,12.4,42.1c15.8,4.6,29-12.4,29-12.4s7.7,3.1,8.9-4.2
					c1.2-7.3-2.7-9.7-5.8-8.1c-3.1,1.5-3.9-17.4-3.9-17.4l-1.5,12c0,0-4.2-10-4.6-11.2C1241.8,166.6,1224.4,153.8,1207.8,166.9z"/>
				<path fill="#FED296" d="M1248.6,243.9c0,0-3.1-14.7-23.6-15.1c-20.5-0.4-12,25.5-12,25.5s-7,4.6-2.3,8.5
					c4.6,3.9,28.2,8.5,34.4-2.7c0,0,3.1,4.2,7-2.7c3.9-7-5-5-5-5L1248.6,243.9z"/>
				<path fill="#FED296" d="M1212.5,300.2c0,0,0.6-9.5,5.6-7.5c5,1.9,5.4,8.7,2.9,11.4c-2.5,2.7-3.7,12.2-3.7,12.2s-5,3.5-8.1,3.1
					c-3.1-0.4-3.5-4.4,1.4-7.1L1212.5,300.2z"/>
				<path fill="#FED296" d="M1230.8,300.7c0,0,0.6-9.5,5.6-7.5c5,1.9,5.4,8.7,2.9,11.4c-2.5,2.7-3.7,12.2-3.7,12.2s-5,3.5-8.1,3.1
					c-3.1-0.4-3.5-4.4,1.4-7.1L1230.8,300.7z"/>
				<path fill="#FED296" d="M1213.4,269.9c0,0-12.9,4.4-12.2,5.8c0.8,1.4,0,2.3,5.2,1.4c5.2-1,8.1-1.9,8.1-1.9L1213.4,269.9z"/>
				<path fill="#FED296" d="M1250.7,276.4c0,0-4.6-5.8-6.4-6c-1.7-0.2-3.9,3.9-2.9,5C1242.4,276.6,1251.5,283.2,1250.7,276.4z"/>
				<path fill="#F7941E" d="M1305.1,338.8c-3.5-4.6-11.6-11-16.8-9.7c-5.2,1.4-20.3,22.6-20.3,24.7c0,2.1,3.9,35.9,3.9,35.9
					c19.3,15.1,46.3-3.5,46.3-3.5S1308.6,343.4,1305.1,338.8z M1301.7,348.6c-1.2,3.9-23.6,9.7-25.1,6c-1.5-3.7,10-21.2,10-21.2
					c2.1-3.9,5.8-0.8,9.8,2.9C1300.5,339.9,1302.8,344.8,1301.7,348.6z"/>
				<path fill="#F7941E" d="M1202.5,329.9c-2.2-4.5-8.1-11.2-12.7-10.9c-4.7,0.3-20.9,15.9-21.3,17.7c-0.3,1.8-2.5,31.2-2.5,31.2
					c14,15.9,40,4.5,40,4.5S1204.7,334.4,1202.5,329.9z M1198,337.7c-1.6,3.1-21.6,4.4-22.3,1c-0.7-3.4,12-16.4,12-16.4
					c2.4-2.9,5.1,0.3,7.9,4.1C1198.4,330.1,1199.6,334.6,1198,337.7z"/>
				<path fill="#FED296" d="M1283.1,326.2c0,0,1.9,13.1,5.8,13.1c3.9,0,3.9-14.3,3.9-14.3L1283.1,326.2z"/>
				<path fill="#754C29" d="M1211,200.1h22.5c0,0-4.6-5-8.8-5S1213.1,193.7,1211,200.1z"/>
				<path fill="#754C29" d="M1219.7,207.4c0.4-0.3,4.8-1.9,6.1-0.2s-1.6,5.4-3.7,5.4C1220,212.7,1217.4,209.5,1219.7,207.4z"/>
				<path fill="#754C29" d="M1217.8,233c0,0,1.4,3.2,5.6,2.9c4.2-0.3,8.6-4.5,9.1-4.5s-6.2-2.1-6.2-4c0-1.9-1.8,2.2-1.8,2.2
					s-1.1-4.8,0.2-6.6c1.3-1.8-3.8,4.2-3.7,5.4c0.2,1.3-1-5.9-1-5.9S1215.2,230.3,1217.8,233z"/>
				<path fill="#754C29" d="M1229.3,182.7c-1.7,0-3.1,1.4-3.1,3.1c0,0.7,0.2,1.3,0.5,1.8c0.3-0.4,0.9-0.7,1.5-0.7
					c1,0,1.8,0.8,1.8,1.8c0,0.1,0,0.1,0,0.2c1.4-0.3,2.4-1.6,2.4-3C1232.5,184.1,1231.1,182.7,1229.3,182.7z"/>
				<path fill="#754C29" d="M1215,183.6c-1.7,0-3.1,1.4-3.1,3.1c0,0.7,0.2,1.3,0.5,1.8c0.3-0.4,0.9-0.7,1.5-0.7c1,0,1.8,0.8,1.8,1.8
					c0,0.1,0,0.1,0,0.2c1.4-0.3,2.4-1.6,2.4-3C1218.1,185,1216.7,183.6,1215,183.6z"/>
				<path fill="#754C29" d="M1210.6,178.5c0,0,2.6-3.7,4.8-2.1S1210.6,178.5,1210.6,178.5z"/>
				<path fill="#754C29" d="M1227.3,177.6c0,0,2.6-3.7,4.8-2.1C1234.4,177.1,1227.3,177.6,1227.3,177.6z"/>
				<path fill="#754C29" d="M1217.9,201.4c0,0,2.9,0.8,5,0.8c2.1,0,4.2-1.1,4.2-1.1s-1.4,3-5.3,2.4
					C1217.9,202.8,1217.9,201.4,1217.9,201.4z"/>
				<path fill="#754C29" d="M1224.5,254.1c0,0,5.9-3.2,10.5,0.3L1224.5,254.1z"/>
				<path fill="#754C29" d="M1219.7,254.1c0,0-4.8-1.9-5-0.6C1214.6,254.7,1219.7,254.1,1219.7,254.1z"/>
				<path fill="#754C29" d="M1229.3,250.4c0,0,2.4-1.3,3.4-0.6C1233.6,250.4,1229.3,250.4,1229.3,250.4z"/>
				<path fill="#754C29" d="M1219.7,250.8c0,0-2.6-2.4-3.4-1.8C1215.5,249.6,1219.7,250.8,1219.7,250.8z"/>
				<path fill="#754C29" d="M1225.6,264c0,0-0.8-1.6-2.7-1.8c-1.9-0.2-2.6,2.1-1.6,2.6C1222.2,265.3,1224.6,266.3,1225.6,264z"/>
				<path fill="#754C29" d="M1119.9,216.7c0,0-3.4,8.5-8.8,11.2c-5.4,2.7,3.4,11.9,23.4,11.5c20-0.3,28.5-9.1,28.5-9.1
					s-6.8-0.7-6.8-8.8c0-8.1,4.4-29.5-0.7-40.3c-5.1-10.8-49.5-7.1-37.9,13.2C1129.1,214.6,1119.9,216.7,1119.9,216.7z"/>
				<path fill="#754C29" d="M1110.2,322.7L1088.5,440c0,0,19.8,5.4,49.2,3.5c29.4-1.9,35.8-5.1,35.8-5.1l-14.1-109.6L1110.2,322.7z"
					/>
				<path fill="#FED296" d="M1096.5,284.1c0,0-9.4,50.3-7.2,51.3c2.1,1.1,14.3-43,14.3-45.8C1103.5,286.9,1096.5,284.1,1096.5,284.1
					z"/>
				<path fill="#74B74A" d="M1116.5,230.8c0,0,17.7-1,22.7-1s18.4,5.3,19.4,5.6c1,0.3,13.7,57.8,13.7,57.8l-5.9,5.3l-10.4-26
					c0,0,3,52.2,4.9,57.1c2,4.9-53.8-2.6-53.8-2.6l4.3-56.5l-8.4,23l-7-8C1095.8,285.6,1107,232.5,1116.5,230.8z"/>
				<polygon fill="#00A0BD" points="1154.6,329.9 1144.8,323.9 1167.2,323.1 1178.9,326.3 				"/>
				<path fill="#FED296" d="M1143.4,203.2c0,0,1.9-2.1,5.6-1.5c3.7,0.7,5.1,11.9-5.8,10.5l-3.7,20.7l10.2,2c0,0-7.1,5.4-13.9,3.7
					c-6.8-1.7-11.5-5.4-11.5-5.4l8.8-0.7l1.7-6.8c0,0-20.3,2.7-20.7-13.2c-0.3-15.9,4.4-25.7,4.4-25.7s-1.7,1.7,4.4,2.7
					c6.1,1,17.6-2,17.6-2l-5.4,5.1l10.8-2.7C1146,189.9,1136.1,196.9,1143.4,203.2z"/>
				<path fill="#689A40" d="M1114.2,250.8c0,0-6.9,10.8-6.9,14.1s5.6,7.9,5.6,7.9l15.1,1.6c0,0-14.8-4.9-15.1-10.8
					C1112.5,257.7,1114.2,250.8,1114.2,250.8z"/>
				<g>
					<path fill="#754C29" d="M1152.8,325.6c-0.3-0.1-0.6-0.4-0.5-0.8l0,0l4.9-24.3c0.1-0.3,0.4-0.6,0.8-0.5l0,0
						c0.3,0.1,0.6,0.4,0.5,0.8l0,0l-4.9,24.3c-0.1,0.3-0.3,0.5-0.6,0.5l0,0C1152.9,325.6,1152.8,325.6,1152.8,325.6L1152.8,325.6z"
						/>
				</g>
				<path fill="#FED296" d="M1165.9,293.7c0,0-37.5,6-37.5,9.2s42.2-1.1,43.5-1.9C1173.2,300.1,1175.1,292.4,1165.9,293.7z"/>
				<path fill="#F7941E" d="M1097.7,357.2c-1.3-32.2-5.3-34.5-7.7-34.5s-13.6,34.1-14.9,48.4c-1.3,14.3,6.2,19.6,8.5,19.2
					C1083.7,390.2,1099,389.4,1097.7,357.2z M1093.9,356.3c-0.9,2.3-3.6-5.3-3.6-5.3s0,5.5-1.1,6.8c-1.1,1.3-1.9-6.6-1.9-6.6
					s-3.4,7.9-4.3,4.9s7.7-28.3,7.7-28.3C1093.7,327.6,1094.8,354,1093.9,356.3z"/>
				<g>
					<path fill="#754C29" d="M1172.3,328c0,0-0.4-15.7-2.1-25.1l0,0c-0.6-3.1-1.4-5.6-2.1-6.2l0,0c-1.5-1.5-3.1-1.9-4.5-1.9l0,0
						c-0.9,0-1.8,0.2-2.3,0.4l0,0c-0.6,0.2-0.9,0.4-0.9,0.4l0,0v0c-0.3,0.2-0.7,0.1-0.9-0.3l0,0c-0.2-0.3-0.1-0.7,0.3-0.9l0,0
						c0.1,0,1.7-0.9,3.9-0.9l0,0c1.6,0,3.6,0.5,5.4,2.3l0,0c1.2,1.2,1.9,3.7,2.5,6.9l0,0c0.6,3.2,1,7.1,1.4,10.8l0,0
						c0.6,7.5,0.8,14.5,0.8,14.5l0,0c0,0.4-0.3,0.6-0.6,0.7l0,0c0,0,0,0,0,0l0,0C1172.6,328.6,1172.3,328.4,1172.3,328L1172.3,328z"
						/>
				</g>
				<polygon fill="#58B7DD" points="1151.6,325.2 1178.9,326.3 1183,367.2 1152.3,369.8 1135.9,361.2 1144.8,323.9 				"/>
				<polygon fill="#00A0BD" points="1154.4,367 1158.5,329.9 1176.8,328.6 1181.1,364.6 				"/>
				<path fill="#754C29" d="M1124.7,204.3c-1.3,0-2.3-1-2.3-2.3c0-0.5,0.1-0.9,0.4-1.3c-0.2,0-0.4-0.1-0.6-0.1
					c-1.5,0-2.8,1.3-2.8,2.8c0,1.5,1.3,2.8,2.8,2.8C1123.4,206.2,1124.4,205.4,1124.7,204.3C1124.7,204.2,1124.7,204.3,1124.7,204.3
					z"/>
				<path fill="#754C29" d="M1137.3,204.7c-1.3,0-2.3-1-2.3-2.3c0-0.5,0.1-0.9,0.4-1.3c-0.2,0-0.4-0.1-0.6-0.1
					c-1.5,0-2.8,1.3-2.8,2.8c0,1.5,1.3,2.8,2.8,2.8C1136,206.6,1137,205.8,1137.3,204.7C1137.4,204.7,1137.3,204.7,1137.3,204.7z"/>
				<path fill="#754C29" d="M1120.8,199.1c0,0,2.2-2.3,3.3-1.8C1125.1,197.8,1122.7,199,1120.8,199.1z"/>
				<path fill="#754C29" d="M1135.2,200.2c0,0-2.2-2.3-3.3-1.8C1130.8,198.8,1133.3,200,1135.2,200.2z"/>
				<path fill="#754C29" d="M1120.8,212.8c0,0,1.4,7.4,6.1,6.8s7.9-8.5,7.9-8.5s-0.9,9-7.6,9.8
					C1120.4,221.7,1120.8,212.8,1120.8,212.8z"/>
				<ellipse fill="#FAB38B" cx="1137.3" cy="208.7" rx="0.8" ry="0.3"/>
				<ellipse fill="#FAB38B" cx="1139.1" cy="210.4" rx="0.8" ry="0.3"/>
				<ellipse fill="#FAB38B" cx="1136.5" cy="210.5" rx="0.8" ry="0.3"/>
				<ellipse fill="#FAB38B" cx="1118.5" cy="208.6" rx="0.8" ry="0.3"/>
				<ellipse fill="#FAB38B" cx="1120.4" cy="210.2" rx="0.8" ry="0.3"/>
				<ellipse fill="#FAB38B" cx="1117.7" cy="210.3" rx="0.8" ry="0.3"/>
			</g>
		</g>
		<g>
			<ellipse fill="#E5E1DC" cx="874.8" cy="859.8" rx="135.5" ry="19.4"/>
			<g>
				<g>
					<polygon fill="#F37D8C" points="806.2,765.5 771.2,759.8 754,803.4 765,815.3 807.1,820 815.5,771 					"/>
					<path fill="#754C29" d="M796.1,737.9c-1.3-0.4-2.7-0.2-3.9,0.6c-6.5,4.3-8.9,25.5-9,26.4l1.3,0.1c0-0.2,2.4-21.4,8.4-25.4
						c0.9-0.6,1.8-0.7,2.8-0.5c6.8,2,5.9,23.8,4.9,32l1.3,0.2C802.1,770.1,805.4,740.7,796.1,737.9z"/>
					<polygon fill="#F05F80" points="815.5,771 811.1,774.2 784.7,772.5 774.4,765.3 779,773.2 763.9,814.1 765,815.3 807.1,820 
						815.5,771 					"/>
				</g>
				<g>
					<polygon fill="#58B7DD" points="810.5,764.3 775.1,765 766,810.9 778.9,820.7 821.2,817.7 820.7,768.1 					"/>
					<path fill="#754C29" d="M795.7,739c-1.4-0.2-2.6,0.3-3.7,1.3c-5.7,5.4-4.2,26.7-4.2,27.6l1.3-0.1c0-0.2-1.5-21.5,3.8-26.5
						c0.8-0.7,1.6-1.1,2.6-0.9c7.1,0.8,10,22.4,10.6,30.6l1.3-0.1C807.4,769.5,805.3,740,795.7,739z"/>
					<polygon fill="#00A0BD" points="820.7,768 817,772 790.7,775 779.3,769.8 785.2,776.7 777.6,819.7 778.9,820.7 821.2,817.7 
						820.7,768.1 					"/>
				</g>
				<g>
					<path fill="#00345E" d="M947.7,845.7l-0.3,3.8c0,0,19.8,4.8,20.1,7.4c0.3,2.6-27.2-0.3-27.2-0.3l1.3-10.2L947.7,845.7z"/>
					<path fill="#00345E" d="M897.5,845.7l-0.3,3.8c0,0,19.8,4.8,20.1,7.4c0.3,2.6-27.2-0.3-27.2-0.3l1.3-10.2L897.5,845.7z"/>
					<path fill="#7E8083" d="M940,716.6l9.6,132.9c0,0-5.6,1.3-9.1,0c-3.5-1.3-16.9-95.1-16.9-95.1l-24.3,92.9c0,0-6.5,2.6-8.7-2.2
						c-2.2-4.8,7.4-99.9,7.8-110.8s1.7-18.2,13.9-18.2C924.4,716.1,940,716.6,940,716.6z"/>
					<g>
						<path fill="#FED296" d="M801.2,733c0,0-1.9,13.1-5.8,13.1c-3.9,0-3.9-14.3-3.9-14.3L801.2,733z"/>
						<path fill="#FED296" d="M897,720.2c0,0,0.1,12.4-2.8,13.5c-2.9,1.2-3.6-10-3.6-10L897,720.2z"/>
						<path fill="#00345E" d="M868.6,847.6l-0.3,3.8c0,0,19.8,4.8,20.1,7.4c0.3,2.6-27.2-0.3-27.2-0.3l1.3-10.2L868.6,847.6z"/>
						<path fill="#00345E" d="M832.5,849.2l-0.3,3.8c0,0,19.8,4.8,20.1,7.4c0.3,2.6-27.2-0.3-27.2-0.3l1.3-10.2L832.5,849.2z"/>
						<path fill="#7E8083" d="M878.5,731.1c0,0-4.3,118.9-5.5,119.3s-16.6,1.7-16.6,1.7l-5.1-92l-9.8,92.5c0,0-17.5,0.4-20-3.8
							c-2.6-4.3,3.8-113.4,3.8-113.4L878.5,731.1z"/>
						<path fill="#00B0D8" d="M882.8,632.3c0,0-16.5-9.8-34.8-12.2c-18.2-2.3-40.5,7.8-40.5,7.8l-13,70.1l-4.1,33.9l13,4.1l5.2-37.9
							l9.3-40l0.6,83.4c0,0,12.2,4.9,27.2,2c15.1-2.9,37.1-8.4,37.1-8.4l-4.9-79.4l8.7,36.5l2.2,33c0,0,8.7-0.3,9.8-4.3
							c1.2-4.1,0.4-39.7,0.4-39.7L882.8,632.3z"/>
						<path fill="#FED296" d="M852.1,609.2l0.4,15.1l10.8,3.1c0,0-7.3,4.6-14.3,5.4c-7,0.8-17.4-8.5-17.4-8.5l10.8-0.8l0.4-18.2
							L852.1,609.2z"/>
						<path fill="#754C29" d="M882.3,564.6c-1.4,3.8-3.2,11.2-6.7,13.6c0,0-43.8,21.4-44.7,19.2c-2-4.8-4.1-9.5-5.4-14.5
							c-0.9-3.2-1.6-6.7-1.4-10c0.3-4,2.9-6.2,6.4-8c6.7-7.5,18.2-10.7,28-9.6c4.9,0.5,9.3,2,14.2,0.8c4.8-1.2,9.3-4.1,12-8.3
							C884.8,547.8,885.8,555.3,882.3,564.6z"/>
						<path fill="#FED296" d="M876.5,573.7c0,0,3.5,37.5-12.4,42.1c-15.8,4.6-29-12.4-29-12.4s-7.7,3.1-8.9-4.2
							c-1.2-7.3,2.7-9.7,5.8-8.1c3.1,1.5,3.9-17.4,3.9-17.4l1.5,12c0,0,4.2-10,4.6-11.2C842.5,573.3,859.8,560.5,876.5,573.7z"/>
						<path fill="#754C29" d="M873.2,606.8c0,0-22.4,0-22.5,0c0,0,3.3-4.2,5.1-4.4c2.5-0.3,5.1,0.4,7.2,1.7c-0.6-0.4,4.7-2,5.6-1.8
							C870.9,603,872.5,604.6,873.2,606.8z"/>
						<path fill="#754C29" d="M854.9,589.4c1.7,0,3.1,1.4,3.1,3.1c0,0.7-0.2,1.3-0.5,1.8c-0.3-0.4-0.9-0.7-1.5-0.7
							c-1,0-1.8,0.8-1.8,1.8c0,0.1,0,0.1,0,0.2c-1.4-0.3-2.4-1.6-2.4-3C851.8,590.8,853.2,589.4,854.9,589.4z"/>
						<path fill="#754C29" d="M869.3,590.4c1.7,0,3.1,1.4,3.1,3.1c0,0.7-0.2,1.3-0.5,1.8c-0.3-0.4-0.9-0.7-1.5-0.7
							c-1,0-1.8,0.8-1.8,1.8c0,0.1,0,0.1,0,0.2c-1.4-0.3-2.4-1.6-2.4-3C866.2,591.8,867.6,590.4,869.3,590.4z"/>
						<path fill="#754C29" d="M873.7,585.2c0,0-2.6-3.7-4.8-2.1C866.7,584.8,873.7,585.2,873.7,585.2z"/>
						<path fill="#754C29" d="M856.9,584.3c0,0-2.6-3.7-4.8-2.1S856.9,584.3,856.9,584.3z"/>
						<path fill="#754C29" d="M866.4,608.1c0,0-2.9,0.8-5,0.8s-4.2-1.1-4.2-1.1s1.4,3,5.3,2.4C866.4,609.5,866.4,608.1,866.4,608.1z
							"/>
					</g>
					<path fill="#754C29" d="M929.6,621.8c-0.8,2.2-2.2,4.2-4.7,5.8c-2.9,1.9-6.3,2.8-9.7,3.4c-3.7,0.7-7.5,1.1-11.3,0.5
						c-3.7-0.6-7.4-2.3-9.8-5.2c-2-2.3-3-5.3-3.7-8.2c-2.1-9.5-0.1-20,6-27.6c6.1-7.6,16.3-11.9,25.9-10.3c2.5,0.4,4.8,1.2,7.1,2.3
						c2.7,1.3,5.2,3,6.8,5.5c4.3,6.7-0.1,13.5-3.1,19.7C930.8,612.4,931.2,617.5,929.6,621.8z"/>
					<path fill="#FED296" d="M957.4,690.8c0,0,9.4,50.3,7.2,51.3c-2.1,1.1-14.3-43-14.3-45.8C950.4,693.6,957.4,690.8,957.4,690.8z"
						/>
					<path fill="#F37D8C" d="M942.7,677.3l8.4,23l7-8c0,0-11.1-53.1-20.7-54.8c0,0-17.7-1-22.7-1s-18.4,5.3-19.4,5.6
						c-1,0.3-13.7,57.8-13.7,57.8l5.9,5.3l10.4-26c0,0-3,52.2-4.9,57.1c-2,4.9,48.2-2.6,48.2-2.6S968,720.2,942.7,677.3z"/>
					<path fill="#FED296" d="M910.4,609.4c-0.1,0-0.2,0.1-0.3,0.1c-1.5,0.2-3.2-1.4-5.2-1c-3.7,0.7-5.1,11.9,5.8,10.5l3.7,20.7
						l-10.2,2c0,0,7.1,5.4,13.9,3.7c6.8-1.7,11.5-5.4,11.5-5.4l-8.8-0.7l-1.7-6.8c0,0,20.3,2.7,20.7-13.2
						c0.3-15.9-4.4-25.7-4.4-25.7s1.7,1.7-4.4,2.7c-3.4,0.6-6.6-0.6-9.9-0.4c-2.3,0.1-1.7-0.4-2.8,1.9c-0.8,1.8-1.5,3.6-2.4,5.4
						c-0.5,1.1-1.1,2.1-1.9,3.1C913.2,607.2,911.7,609,910.4,609.4z"/>
					<path fill="#F05F80" d="M939.7,657.6c0,0,6.9,10.8,6.9,14.1c0,3.3-5.6,7.9-5.6,7.9l-15.1,1.6c0,0,14.8-4.9,15.1-10.8
						C941.3,664.5,939.7,657.6,939.7,657.6z"/>
					<path fill="#FED296" d="M888,700.4c0,0,37.5,6,37.5,9.2c0,3.2-42.2-1.1-43.5-1.9C880.7,706.8,878.8,699.1,888,700.4z"/>
					<path fill="#754C29" d="M929.2,611c1.3,0,2.3-1,2.3-2.3c0-0.5-0.1-0.9-0.4-1.3c0.2,0,0.4-0.1,0.6-0.1c1.5,0,2.8,1.3,2.8,2.8
						c0,1.5-1.3,2.8-2.8,2.8C930.5,612.9,929.5,612.1,929.2,611C929.2,611,929.2,611,929.2,611z"/>
					<path fill="#754C29" d="M916.6,611.5c1.3,0,2.3-1,2.3-2.3c0-0.5-0.1-0.9-0.4-1.3c0.2,0,0.4-0.1,0.6-0.1c1.5,0,2.8,1.3,2.8,2.8
						c0,1.5-1.3,2.8-2.8,2.8C917.9,613.4,916.9,612.6,916.6,611.5C916.5,611.4,916.6,611.5,916.6,611.5z"/>
					<path fill="#754C29" d="M933.1,605.9c0,0-2.2-2.3-3.3-1.8C928.7,604.5,931.2,605.7,933.1,605.9z"/>
					<path fill="#754C29" d="M918.7,606.9c0,0,2.2-2.3,3.3-1.8C923.1,605.5,920.6,606.7,918.7,606.9z"/>
					<path fill="#754C29" d="M933.1,619.5c0,0-1.4,7.4-6.1,6.8c-4.7-0.6-7.9-8.5-7.9-8.5s0.9,9,7.6,9.8
						C933.5,628.5,933.1,619.5,933.1,619.5z"/>
					<ellipse fill="#FAB38B" cx="916.6" cy="615.4" rx="0.8" ry="0.3"/>
					<ellipse fill="#FAB38B" cx="914.8" cy="617.1" rx="0.8" ry="0.3"/>
					<ellipse fill="#FAB38B" cx="917.4" cy="617.2" rx="0.8" ry="0.3"/>
					<ellipse fill="#FAB38B" cx="935.4" cy="615.3" rx="0.8" ry="0.3"/>
					<ellipse fill="#FAB38B" cx="933.5" cy="617" rx="0.8" ry="0.3"/>
					<ellipse fill="#FAB38B" cx="936.2" cy="617" rx="0.8" ry="0.3"/>
				</g>
				<path fill="#754C29" d="M903.6,580.1c-2.9-4.2-8.4-6.4-13.4-5.3c-2.1,0.5-4.1,1.5-5.9,2.7c-1.4,0.9-2.8,2-3.6,3.5
					c-0.6,1.2-0.7,2.6-0.8,3.9c-0.2,4.9,0.9,10.2,4.2,13.9c3.3,3.7,9.1,5.4,13.4,2.9c1.3-0.8,2.5-1.9,3.5-3c1.2-1.3,2.3-2.6,3.2-4.2
					C906.7,590.2,906.5,584.3,903.6,580.1z"/>
				<path fill="#F05F80" d="M942.7,677.3c0,0,10.6,9.2,10.6,20.5l-1.2,1.3C952.1,699.1,950.6,686.8,942.7,677.3z"/>
			</g>
		</g>
		<g>
			<ellipse fill="#E5E1DC" cx="1199.4" cy="851.8" rx="115.3" ry="20.2"/>
			<g>
				<g>
					<path fill="#FED296" d="M1161,806.6l-7.4-1.3l-2.8,24.2l1.2,21.8c0,0-12.4,5.9-8.8,7.4c3.5,1.5,15.9-4.1,15.9-5.3
						s-0.9-24.1-0.9-24.1L1161,806.6z"/>
					<path fill="#FED296" d="M1174.5,824.8l2.3-16.7l-7.2,0.9l-2.1,18.1l7.4,20.5c0,0-10.2,9.2-6.3,9.6c3.8,0.4,14-8.5,13.7-9.6
						C1181.9,846.5,1174.5,824.8,1174.5,824.8z"/>
					<path fill="#FED296" d="M1183.4,782.3c0,0-2.4-14.4-5-16.2c-2.6-1.8-4.4,3.8-1.5,13.2c2.9,9.4,3.5,18.8,3.5,18.8
						S1187.2,800.2,1183.4,782.3z"/>
					<path fill="#FED296" d="M1144.7,758.8c0,0-21.2,11.8-20.3,13.5c0.9,1.8,19.7-4.4,21.8-9.1S1144.7,758.8,1144.7,758.8z"/>
					<path fill="#4A4B4C" d="M1152.3,739.2c0,0-5-10.6,0.3-17.9c5.3-7.4,12.1-7.1,12.1-7.1s5-5.6,15,1.2c10,6.8,11.5,32.1,7.1,44.1
						c-4.4,12.1-2.1,12.4-2.1,12.4l-19.7-15.9L1152.3,739.2z"/>
					<path fill="#F48183" d="M1153.1,782.4l-17.4,21.8c0,0,12.7,8.1,25.3,9c12.7,0.9,25.3-7.2,25.3-7.2l-10-22.1L1153.1,782.4z"/>
					<path fill="#F37D8C" d="M1154.9,751.2l-11.8,8.1l2.9,5.1l5-2.5l0.3,22.6c0,0,7.3,6.3,16.4,4.3s9.7-2.5,9.7-2.5l-0.5-15.9
						l2.9-2.9c0,0,0.3-9.6-4.7-13.6C1170.2,749.9,1164.9,745.4,1154.9,751.2z"/>
					<ellipse fill="#FED296" cx="1163.3" cy="739.6" rx="14.9" ry="18.9"/>
					<ellipse fill="#FED296" cx="1176.7" cy="742.9" rx="5" ry="6.5"/>
					<path fill="#4A4B4C" d="M1152,722.4c0,0,1.5,8.8,5.9,9.7c4.4,0.9,10.6,4.4,10.6,4.4l-3.5-7.7c0,0,6.8,9.4,12.7,6.2
						C1183.5,731.8,1171.1,708.9,1152,722.4z"/>
					<path fill="#4A4B4C" d="M1164.1,743.4c0,0,3.2-4,4.9-2.4s1.6,4.4,1.6,4.4S1169.2,739.9,1164.1,743.4z"/>
					<path fill="#4A4B4C" d="M1151.7,741.5c0,0,3.2-4,4.9-2.4s1.6,4.4,1.6,4.4S1156.8,738,1151.7,741.5z"/>
					<path fill="#4A4B4C" d="M1155.8,735.9c0,0,2.4-0.1,3.1,0.9S1156.8,737.2,1155.8,735.9z"/>
					<path fill="#4A4B4C" d="M1165.2,737.8c0,0,2.4-0.1,3.1,0.9C1169.1,739.7,1166.3,739.2,1165.2,737.8z"/>
					<path fill="#4A4B4C" d="M1156.3,747.5c0,0-1.3,5.6,3.4,6.5c4.7,0.9,6.3-4.7,6.3-4.7L1156.3,747.5z"/>
					<path fill="#FFFFFF" d="M1158.6,749l6.5,2.1c0.6-1,0.8-1.8,0.8-1.8l-7.4-1.3L1158.6,749z"/>
					<path fill="#F48183" d="M1152,851.3c0,0-12.4,5.9-8.8,7.4c3.5,1.5,15.9-4.1,15.9-5.3c0-0.6-0.2-6.1-0.4-11.7l-7.1,1.5
						L1152,851.3z"/>
					<path fill="#F48183" d="M1182.3,847.6c-0.1-0.5-1.5-4.4-3-8.9l-7.3,0.8l2.9,8.2c0,0-10.2,9.2-6.3,9.6
						C1172.4,857.6,1182.6,848.7,1182.3,847.6z"/>
				</g>
				<g>
					<path fill="#141414" d="M1254.6,832.6l2,18.3c0,0-8.9,3.7-8.3,5.7c0.6,2,14.9-2.3,14.9-3.4c0-1.1-2.6-2-2.6-2V830L1254.6,832.6
						z"/>
					<path fill="#141414" d="M1198.7,832.6l2,18.3c0,0-8.9,3.7-8.3,5.7c0.6,2,14.9-2.3,14.9-3.4c0-1.1-2.6-2-2.6-2V830L1198.7,832.6
						z"/>
					<path fill="#7E8083" d="M1205.3,695.7l-10.2,142.1c0,0,6.4,1.5,10.3,0c3.9-1.5,19.1-107.5,19.1-107.5l27.5,105
						c0,0,7.4,2.9,9.8-2.5s-8.3-112.9-8.8-125.2c-0.5-12.3-2-20.6-15.7-20.6S1205.3,695.7,1205.3,695.7z"/>
					<path fill="#FED296" d="M1194.7,650c0,0-33.9,34.9-30.5,36.9c3.4,2,32-31.3,32.8-31.6C1197.8,654.8,1194.7,650,1194.7,650z"/>
					<g>
						<path fill="#333333" d="M1131.2,769.3l-1.4-0.3c0-0.1,2.6-15.1,1.9-41c-0.7-22.8,0.1-42.2,1.9-52l1.4,0.3
							c-0.7,3.6-2.9,18.1-1.9,51.7C1133.9,754.1,1131.2,769.2,1131.2,769.3z"/>
						<path fill="#F7941E" d="M1130.1,704.4c0,0-5,2.7-3,3.4c1.9,0.8,4.2-0.8,4.2-0.8s-0.4,5,1.9,3l0.8-3.4c0,0,1.1,3.1,3,1.9
							c1.9-1.1-2.3-4.6-2.3-4.6s15.2-11.4,15.2-23.3c0-11.8-2.7-25.5-21.7-21.7C1109.1,662.8,1114.8,692.6,1130.1,704.4z"/>
						<path fill="#FFF200" d="M1146.1,676.2c0,0-1.1-8.8-6.1-9.9C1135.1,665.1,1143.1,671.2,1146.1,676.2z"/>
					</g>
					<path fill="#333333" d="M1206.9,588.7c0,0-7.6-9.7,3-16c8.3-5,18.2-6.7,26.7-1.1c0.6,0.4,1.2,0.8,1.7,1.4
						c0.9,1,1.3,2.4,2.3,3.3c1.5,1.2,3.7,1,5.4,1.9c0.7,0.3,1.3,0.9,1.9,1.4c3.7,3.1,6.6,8.7,4.1,13.6c-0.6,1.1-1.4,2.1-1.8,3.3
						s-0.5,2.6,0.3,3.5c0.6,0.6,1.4,0.8,2.2,1.2c3.1,1.4,5.3,4.7,5.2,8.1c-0.1,3.4-2.3,6.7-5.5,7.9c-1.1,0.4-2.4,0.7-3.3,1.4
						c-1.5,1.2-1.6,3.4-2,5.3c-1.4,6.7-7.5,12-14.2,13.3c-7.3,1.4-12.5-1.7-18.6-5.1c-4.2-2.3-7.2-4.2-9.1-8.8
						c-1.9-4.7-2-9.9-1.6-14.9c0.2-3.2,0.7-6.4,1.3-9.6C1205,597.3,1207.6,589.6,1206.9,588.7z"/>
					<polygon fill="#999999" points="1284.7,753.7 1267.6,706.8 1271,701.4 1301,695.7 1327.9,739.4 1323.9,747.4 1295.9,758.8 
											"/>
					<polygon fill="#696969" points="1295.9,758.8 1323.9,747.4 1327.9,739.4 1301.3,696.1 1300.2,697.8 1293.9,705.4 1318.5,744.6 
						1290.8,705.9 1267.6,706.8 1284.7,753.7 					"/>
					<g>
						<path fill="#333333" d="M1272.4,689.8c0-1,0.1-1.8,0.7-2.4l0,0c0.3-0.2,0.6-0.3,0.8-0.3l0,0c1.3,0.1,2.7,1.2,4.7,2.7l0,0
							c1.9,1.6,4.1,3.6,6.3,5.7l0,0c4.3,4.1,8.1,8.2,8.1,8.2l0,0l-1.1,1c0,0-8.6-9.2-14.2-13.8l0,0c-1.7-1.4-3.2-2.3-3.7-2.4l0,0
							c-0.1,0.1-0.2,0.6-0.2,1.2l0,0c0,4.3,3.6,15.4,3.6,15.4l0,0l0,0l-1.4,0.5C1276,705.6,1272.4,694.6,1272.4,689.8L1272.4,689.8z
							"/>
					</g>
					<g>
						<path fill="#333333" d="M1272.6,711.9c0,0,0.1-2.5,0.1-5.8l0,0c0-3.2-0.1-7.2-0.4-10.7l0,0c-0.3-3.5-0.9-6.5-1.6-7.3l0,0
							c-0.2-0.2-0.3-0.2-0.3-0.2l0,0c0,0-0.4,0.1-0.9,0.8l0,0c-0.4,0.6-1,1.5-1.5,2.6l0,0c-1,2.3-2,5.3-2.9,8.4l0,0
							c-1.8,6.1-3.2,12.2-3.2,12.2l0,0v0l-1.4-0.3c0,0,3-13.8,6.2-20.9l0,0c1.1-2.3,1.9-4.1,3.7-4.3l0,0c1.3,0.1,1.8,1.2,2.2,2.4
							l0,0c0.4,1.3,0.7,3,0.9,5l0,0c0.4,3.9,0.5,8.6,0.5,12.3l0,0c0,3.4-0.1,5.9-0.1,5.9l0,0L1272.6,711.9L1272.6,711.9z"/>
					</g>
					<path fill="#FED296" d="M1255.7,664.4c0,0,14.7,29.3,18.2,29c3.4-0.3-13.3-34.2-13.3-34.2L1255.7,664.4z"/>
					<path fill="#F37D8C" d="M1208.9,630.7l8.8-1.1l23.7-0.1l21.8,30l-9.1,9.8l-10.6-15.3l10.9,50.5l-53.2,1.2l9.9-34.7l-0.4-5.1
						c0,0-4.6-4.3-4.9-6.9c-0.3-2.6,1.4-11.1,1.4-11.1l-12.1,15.7l-8.9-12.5L1208.9,630.7z"/>
					<path fill="#FED296" d="M1223.4,611.8l3.8,17.6l7.9,1.1c0,0-7.8,3.5-13.2,2.6c-5.3-0.9-6.1-2.1-6.1-2.1l3.7-0.9l-2.7-15
						L1223.4,611.8z"/>
					<path fill="#FED296" d="M1205.9,581.3l10.3,6.1l-3.1-5.7l10.7,5.1l-3.2-4.9c0,0,14.1,5.4,17.4,4.4c3.3-0.9,0.5,31.5-20.2,37.4
						C1217.9,623.7,1189.6,620,1205.9,581.3z"/>
					<circle fill="#FED296" cx="1236.7" cy="606.2" r="5"/>
					<g>
						<path fill="#333333" d="M1276,698.9c-0.7-6.1-2.5-12.4-4.6-12.9l0,0c-0.1-0.1-0.3-0.1-0.4-0.1l0,0c-0.6-0.1-1.7,0.9-2.5,2.9
							l0,0c-0.8,1.9-1.5,4.6-2.1,7.3l0,0c-1.1,5.3-1.5,12.8-1.5,12.8l0-2.1l0,2.1l-1.4-0.1c0,0,1-14.2,3.7-20.5l0,0
							c0.9-2.1,2-3.7,3.8-3.8l0,0c0.3,0,0.6,0.1,0.9,0.2l0,0c3.4,1.5,4.6,7.9,5.5,14.1l0,0c0.8,6.2,1,12,1,12.1l0,0l-1.5,0
							C1276.9,710.8,1276.8,705,1276,698.9L1276,698.9z"/>
					</g>
					<path fill="#FED296" d="M1269.4,687.3c0,0-21.6,18.2-20.7,20.5c0.9,2.2,25.6-15.5,25.6-15.5S1272.1,684.9,1269.4,687.3z"/>
					<polygon fill="#FEBE10" points="1260.7,708 1288.7,709.7 1295.6,752.3 1287,760.3 1260.7,757.7 1251.3,747.1 					"/>
					<polygon fill="#D49D1F" points="1295.6,752.3 1289.7,715.4 1288.2,709.6 1288,709.6 1291.6,751.4 1284.4,755.1 1283.3,741.4 
						1281.6,753.4 1265,753.7 1263,740 1261.9,753.1 1254.7,745.1 1260.9,708 1260.7,708 1251.3,747.1 1260.7,757.7 1287,760.3 
											"/>
					<path fill="#333333" d="M1206.5,590.1c0,0,3.9,2.1,4.9,1.7C1212.3,591.5,1208.4,588.3,1206.5,590.1z"/>
					<path fill="#333333" d="M1223.2,589.8c0,0,3.9,2.1,4.9,1.7C1229,591.2,1225.1,588,1223.2,589.8z"/>
					<path fill="#333333" d="M1207.2,593.3c0.3,1.1-0.3,2.3-1.4,2.8c-0.7,0.3-1.5,0.2-2.1-0.2c-0.1,0.6-0.1,1.2,0.2,1.8
						c0.7,1.6,2.5,2.4,4.2,1.8c1.6-0.7,2.4-2.5,1.8-4.2C1209.4,594.2,1208.4,593.4,1207.2,593.3z"/>
					<path fill="#333333" d="M1222.9,593.7c0.3,1.1-0.3,2.3-1.4,2.8c-0.7,0.3-1.5,0.2-2.1-0.2c-0.1,0.6-0.1,1.2,0.2,1.8
						c0.7,1.6,2.5,2.4,4.2,1.8c1.6-0.7,2.4-2.5,1.8-4.2C1225.2,594.6,1224.1,593.8,1222.9,593.7z"/>
					<path fill="#333333" d="M1208.9,608c0,0,0.3,7.1,3.6,6.1c3.3-1,5.7-6.2,5.7-6.2s-2.2,8.9-5.3,8.5
						C1209.7,616,1207.6,613.3,1208.9,608z"/>
					<path fill="#333333" d="M1229.8,582.8c0,0,1.6,15.7,8.7,19c7.1,3.3,2.2-14.6,2-15.3C1240.2,585.9,1229.8,582.8,1229.8,582.8z"
						/>
					<path fill="#F37D8C" d="M1236.6,576.9c0,0-0.1-2.6,1.8-2c1.9,0.6,1.3,2.4,1.3,2.4s2-4.7,5.1-2.6c5.2,6-3.7,3.5-5,2.9
						c0,0-0.4,2.9-2.4,0.7c0,0-3.3,4.9-4.6,2C1231.6,577.5,1230.4,574,1236.6,576.9z"/>
				</g>
			</g>
		</g>
	</g>
</g>
</svg>
