<?xml version="1.0" encoding="utf-8"?>
<!-- Generator: Adobe Illustrator 16.0.0, SVG Export Plug-In . SVG Version: 6.00 Build 0)  -->
<!DOCTYPE svg PUBLIC "-//W3C//DTD SVG 1.1//EN" "http://www.w3.org/Graphics/SVG/1.1/DTD/svg11.dtd">
<svg version="1.1" id="Capa_1" xmlns="http://www.w3.org/2000/svg" xmlns:xlink="http://www.w3.org/1999/xlink" x="0px" y="0px"
	 width="1400px" height="980px" viewBox="0 0 1400 980" enable-background="new 0 0 1400 980" xml:space="preserve">
<g opacity="0.2">
	<defs>
		<rect id="SVGID_1_" opacity="0.2" width="1400" height="980"/>
	</defs>
	<clipPath id="SVGID_2_">
		<use xlink:href="#SVGID_1_"  overflow="visible"/>
	</clipPath>
	<path clip-path="url(#SVGID_2_)" fill="#FF5A5A" d="M751.522,1199.072h4.032l5.782,1.228l64.134,11.564l17.35,16.998l33.47-1.576
		l32.768-1.228l-1.925-4.028l-1.054-8.411l38.376-11.564c0,0,2.63,18.926,5.085,21.904c2.448,2.979-9.116,6.658-6.661,22.432
		c0,0,5.081,15.418,5.26,19.271c0.174,3.857,4.202,5.259,4.202,5.259s0.875,4.206,2.455,5.956c1.576,1.755,5.43,17.703,5.43,17.703
		s12.27,54.669,12.443,60.103s37.675,12.792,57.655,8.237c0,0,11.563-0.879,8.586-11.564c0,0-0.705-6.835-9.988-23.136
		c0,0,13.489-0.697,15.771-8.935c0,0,4.729-6.131,3.152-12.443c0,0,1.346-3.857,0.32-5.434c0,0-0.495-14.717-2.95-20.15
		s-0.349-0.349-1.402-4.729c-1.053-4.381,1.228-5.782-3.152-11.391c0,0,0.522-8.062-0.522-12.617
		c-1.054-4.555,4.38-2.104,1.224-10.048c0,0-1.168-2.57-0.468-4.439c0.701-1.869,0.82-2.218-0.114-6.891
		c0,0,3.271-5.842,2.218-9.466c0,0,6.424-2.918,1.636-9.461c0,0,10.276-31.077,10.276-44.625c0,0,17.996-35.045,17.525-67.524
		c0,0,3.505-37.501,4.906-44.511c0,0,3.739-8.174,2.218-11.912c-1.513-3.738,0.364-10.052,0.364-10.052s2.325-5.021-0.946-10.162
		c0,0-0.815-2.923-0.233-4.673c0.586-1.751,3.037-3.969,0.353-9.347c0,0,0-1.283,0.353-1.984c0.349-0.701,0.463-5.141-2.809-9.461
		c-3.271-4.325,4.559-8.293,1.874-13.085c0,0-2.456-9.933-0.468-12.967c1.984-3.041,1.513-5.96,1.632-6.661s0.815-4.673,0.353-7.243
		c-0.472-2.57,2.206-2.919,0.693-7.592c0,0,0.237-0.936,0.942-2.337c0.701-1.402,0.701-3.739,0.582-4.907
		c-0.115-1.168,13.318-60.162,13.318-60.162s7.125,6.424,9.58,6.19c2.452-0.233-3.972,3.739-3.738,9.813
		c0.233,6.072-2.804,12.266-2.804,12.266s-3.156,11.802-3.156,14.721s-8.642,11.798-8.06,18.459c0,0,2.688-1.053,7.01,0.816
		l-1.755,9.461c0,0-2.099,1.636-2.099,9.113c0,7.477-2.455,27.92-2.455,27.92s-4.555,23.366,8.293,39.838
		c0,0,10.162,45.678,13.845,50.059c3.684,4.384,0.701,16.471,3.857,21.029c3.152,4.555-0.174,6.657,1.05,15.596
		c0,0-2.048,12.146-0.994,17.524c1.054,5.37,1.347,11.913,1.347,11.913s1.457,9.465,1.925,13.786
		c0.467,4.32,0.174,43.338,2.804,54.554s1.751,39.255,7.885,53.274c6.135,14.02,9.814,40.301,9.814,40.301s-1.668,2.542,0,3.771
		c1.663,1.228,3.156,2.36,6.744,1.314c3.596-1.053-11.913,7.969-11.037,12.792c0.875,4.815,5.342,8.586,5.342,8.586
		s24.535-10.867,44.602-1.489c0,0,6.393-2.455,1.751-10.954c0,0,3.679-6.399,2.364-11.478c-1.311-5.084,0.788-6.486,0.788-6.486
		s2.016,0.617,2.95,0.087c0.938-0.522,2.048-5.489,1.929-7.937c-0.118-2.455,4.222-6.079,0.008-35.635
		c0,0-0.594-23.014-2.463-27.335c-1.869-4.325,0.467-14.954-4.903-28.154c-5.378-13.204-6.895-27.806-7.01-28.272
		c-0.118-0.468-1.988-5.957-5.378-8.063c-3.382-2.099,2.106-17.755,3.39-20.206c1.283-2.455-1.75-33.528-1.521-38.082
		c0.237-4.559,3.857,9.714,5.378,10.055c1.518,0.341-0.705,15.176-0.705,15.176s-0.582,11.449,6.428,19.156
		c7.01,7.711,8.63,7.01,8.63,7.01s0.25,7.129,5.973,11.564c0,0,2.336,11.568,6.891,16.942c4.559,5.374,2.107,10.867,5.96,15.422
		c3.854,4.555,2.223,10.396,2.223,10.396s0.815,17.64,6.189,24.535c0,0,2.689,3.619,0,11.215
		c-2.688,7.589,0.582,52.333,27.339,49.529c26.748-2.805,22.193-35.509,19.041-54.087c0,0,0.115-13.2-2.396-15.596
		c-2.515-2.396,1.109-6.95,1.109-7.537c0-0.582,1.05-4.903,0.582-6.424c-0.467-1.521-0.127-4.569-2.146-7.856
		c0,0,0.222-3.826-0.887-5.988c-1.109-2.158-0.06-7.299-0.119-8.412c-0.056-1.109-0.349-11.857-0.349-11.857
		s1.283-11.097-2.103-13.667c0,0-4.092-20.091-10.396-25.817c0,0-1.401-16.238-7.477-17.291c-6.075-1.05-0.353-11.216-0.353-11.216
		s5.607-16.705,1.287-31.889c-4.325-15.188,0.815-34.701,0.114-36.919c0,0,4.559-15.889-0.582-23.715c0,0-1.521-5.607,0.229-6.309
		c1.755-0.701,1.054-4.087,1.054-4.087s2.57-8.994-1.988-12.035l-0.582-5.956c0,0,5.961-10.63,5.842-12.848
		c-0.119-2.222-0.408-3.098-0.408-3.098l1.691-2.281l2.396,2.337c0,0,1.929-1.283-1.69-15.532c0,0,0.114-9.699-0.935-12.27
		c-1.054-2.57-0.705-13.552,0.578-15.073c1.291-1.517,2.574-20.792,1.988-22.193c-0.583-1.402,0.118-11.335,0.819-11.802
		c0.701-0.464,4.907-46.143,6.776-45.561c1.869,0.586,3.854-0.467,3.854,1.287c0,1.755,1.636,4.206,1.636,4.206
		s0.467-5.025,2.804-4.439c0,0,0.293,4.087,2.075,6.31c1.782,2.221,2.717,4.558,2.717,4.558l1.984-2.222
		c0,0,1.287,0.582,1.754,2.104c0.468,1.517,1.632-1.641,2.566-1.054c0.935,0.586,1.988,2.106,1.988,2.106s0.582-5.141,1.283-5.029
		c0.705,0.119,6.895,8.416,12.384,10.867c5.493,2.455,8.06,7.826,18.226,0.233c10.166-7.592,10.515-10.63,10.515-10.63
		s-6.542,54.206,0,69.449c0,0,0.408,7.014,1.636,10.515c1.224,3.505-0.178,10.075,1.137,15.596s-0.903,35.05,0.614,40.305
		c1.521,5.256,4.205,14.603,4.205,14.603s2.805,11.097,3.973,15.072c1.168,3.969,0.586,10.863,1.636,13.434
		c1.049,2.57,5.842,8.293,5.489,10.4c-0.353,2.099,4.677,13.434,5.492,14.598c0.816,1.172,3.969,15.307,3.969,15.307
		s4.443,16.705,5.96,19.037c1.518,2.341,10.982,33.299,13.668,36.919c2.688,3.624,2.688,25.817,8.293,35.049
		c5.607,9.228,6.079,22.079,18.11,29.905c0,0-7.944,10.515-7.243,12.617c0.7,2.104,2.455,5.489,2.455,5.489
		s2.218,21.382,1.984,21.73c-0.234,0.349,1.168,1.869,1.517,1.988c0.356,0.114-1.632,12.265-1.632,12.265s-1.988,4.907-1.988,5.375
		c0,0.467-2.566,6.189-2.566,6.771c0,0.586-3.976,8.412-3.39,9.814c0.582,1.401-16.476,13.904-17.524,16.823
		c0,0-7.592,2.337-8.412,5.021c0,0-4.439,2.218-3.738,5.141s4.32,2.804,4.788,2.455c0.467-0.349,2.336,1.283,4.559,0.935
		c2.222-0.348,3.738,1.632,5.025,0.697c1.283-0.935,3.738,1.291,5.723,0.586c1.984-0.697,3.973,0.586,6.309-0.348
		c2.337-0.936,4.903,2.685,8.412,2.217c0,0,4.673,1.283,7.358,1.054c2.685-0.237,3.033,1.402,6.424,0.349
		c3.39-1.053,1.168,1.283,5.96-0.467c0,0,5.374-0.056,6.071-1.109c0,0,4.206,0,5.204-1.457c0.99-1.466,16.293-4.499,19.798-18.459
		c0,0,0.875-3.739,0.526-5.668s1.283-3.973,1.283-3.973s-0.115,8.234,2.804,11.331c2.923,3.097-15.596,31.137-17.813,42.233
		c0,0-5.489,10.043-3.738,10.979c1.75,0.934,1.168,3.508,4.555,3.857c3.39,0.348,5.025,1.053,6.542,1.053
		c1.521,0,3.505,0.816,4.439,0.119c0.938-0.705,4.792,1.861,7.01,0.349c2.222-1.521,4.907,1.283,7.244,0.349
		c2.336-0.936,3.152,0.237,4.792-0.238c1.631-0.459,3.738,0.824,7.239-0.11c3.509-0.935,5.727,0.467,7.243-0.824
		c1.521-1.283,3.854,1.521,7.01,0.824c3.156-0.705,5.141,0.696,5.842-0.119s2.103,0.119,4.324-0.815
		c2.218-0.936,3.153-0.816,4.206-1.402c1.046-0.586,3.969-0.705,4.317-1.521c0.353-0.815,3.041-0.935,3.509-1.751
		c0.467-0.823,1.576-1.521,2.277-2.922c0.7-1.402,1.548-2.273,0-8.674c-1.549-6.4,1.782-9.9-0.67-19.627
		c0,0,2.626-8.936,2.36-11.303c-0.261-2.369,6.78-1.054,5.493-6.662c-1.287-5.604-2.103-9.338-2.103-10.625s0.467-3.739,0.118-7.244
		c-0.348-3.505,1.283-3.619,0.583-7.01c-0.701-3.39,4.32-4.902,5.96-10.748c0,0,4.32-2.044,5.723-5.461
		c1.402-3.418,5.081-10.076,3.069-25.934c0,0-0.312-4.819,0.586-6.748c0.903-1.929,2.566-31.631,1.6-35.045
		c-0.962-3.418-0.467-9.465,0.294-11.041c0.76-1.576,12.324-48.717,10.748-57.83l30.312,7.363l7.478,0.114l3.857-0.349l-0.587,6.661
		l-0.696,3.85l1.283,2.107l45.679,0.7l37.088-4.146l52.748-15.247l-1.576-12.792l-1.401-11.738l-3.335-6.836l0.879-2.455
		l2.456,0.705l5.607-2.281l6.131,15.247l72.078-29.964l73.366-55.144l-125.116-195.096l-24.534,14.021l-7.358,1.576l-3.33-2.979
		l-2.452-2.804l-2.978-2.804l-1.755-2.805l-3.505-3.152l-2.277-3.33l-3.33-2.979l-1.751-2.626l-3.156-2.281l-1.576-2.455
		l-2.511-2.099l-1.984-2.456l-1.64-2.099l-1.984-2.574l-2.103-1.984l-2.222-2.57l-2.57-2.337l-2.451-2.685l-2.223-2.455
		l-2.218-2.456l-1.521-1.984l-2.218-3.271l-1.988-3.271l-0.229-2.104l-1.869-1.75l-0.119-1.64l-1.75-1.632
		c0,0,2.455-7.825,3.037-13.553c0.582-5.723,4.788-5.723,5.256-7.943c0.467-2.219,0.349-5.957-1.054-8.175
		c-1.402-2.226-2.451-7.129-2.451-7.129l-1.751-5.489c0,0,1.169-2.574,1.05-4.205c-0.119-1.64-2.218-13.901-2.218-13.901
		s-0.353-6.542-1.287-7.715c-0.935-1.164,0.233-22.427,0.233-22.427s5.26-7.711,5.727-16.824c0.468-9.112,4.436-14.02,3.854-25.937
		c0,0,9.814-11.683,9.814-15.009c0-3.327,0.352-9.814,0.352-9.814s0.175-5.607-1.58-7.885c-1.754-2.277-18.515-73.365-27.86-90.419
		c0,0-3.271-7.01-3.271-7.944s-38.432-119.627-38.083-123.132s-9.465-70.799-38.201-77.104
		c-28.74-6.309-67.992-26.285-80.958-27.334l-17.877-24.534c0,0-1.402-3.505-8.935-3.156l-1.109-5.022c0,0,3.62-5.259,3.387-10.281
		c-0.233-5.022,0.114-5.608,0.114-5.608s1.054-6.424,1.054-7.01c0-0.582,8.994-1.695,8.729-14.047
		c-0.261-12.352,0.967-14.72-0.784-19.624c-1.75-4.911-3.239-8.586-6.047-8.15c0,0,0.439-2.891,0.526-3.327
		c0.087-0.444-0.349-6.574-0.966-7.627c-0.61-1.046,0-5.517-0.61-6.832c-0.614-1.314,0.175-7.449-2.194-10.95
		c-2.36-3.509,0.092-5.085-3.413-8.764s-4.994-8.851-6.483-9.901c-1.493-1.05-6.135-5.43-13.058-8.938
		c-6.923-3.501-19.889-7.184-20.942-7.271c-1.045-0.087-18.775-8.935-43.076,4.499c0,0-14.603,10.515-16.238,13.434
		c-1.635,2.923-2.569,2.103-3.156,4.206c-0.578,2.103-2.804,2.455-3.501,4.792c-0.7,2.336-1.987,4.903-2.804,5.837
		c-0.815,0.935-1.869,4.558-1.869,5.493c0,0.935-3.152,4.554-3.042,6.539c0.119,1.988-0.578,6.194-0.11,8.412
		c0.463,2.222-2.107,17.758,3.271,25.937c0,0,0.935,5.374,0.696,6.309c-0.233,0.935,0.701,12.617,2.686,14.72
		c1.988,2.103,3.042,12.384,3.16,13.667c0.111,1.283,1.046,7.01,5.489,8.646c0,0,7.125,25.817,24.297,33.881
		c0,0,0.701,4.32,0.701,5.255s-4.087,16.938-3.739,21.73c0.349,4.788-18.748,7.651-21.9,14.836
		c-3.16,7.184-41.184,23.659-44.515,30.312c0,0-15.243,12.792-19.271,36.625c-4.032,23.834-6.135,35.572-6.135,37.501
		s-12.439,73.599-15.069,77.452c-2.63,3.857-6.428,42.178-6.194,44.979c0.234,2.804-1.636,11.215,0.468,17.057
		c2.103,5.842-0.233,21.965-0.233,21.965s0.7,15.65,2.336,17.52c1.636,1.87,4.674,37.854,4.674,37.854s-5.374,14.483-5.374,17.521
		c0,3.042-0.701,16.59,0.467,18.226s16.823,35.517,17.524,35.517s4.439,30.17,4.439,30.17s-14.954-8.792-16.008-17.556
		c-1.049-8.761-8.233-27.513-9.457-30.666c-1.231-3.152,2.099-2.804,0.697-5.781c0,0,0.436-3.592-1.576-4.555
		c-2.016-0.967-1.315-2.02-1.141-3.069c0.174-1.05,1.842-5.695-2.717-5.521l-1.402,0.526c0,0-0.174-3.418,0.618-5.434
		c0.784-2.012,3.675-6.131,2.538-11.128c-1.137-4.99,4.266-8.555-1.228-22.227c0,0-0.935-8.174-3.268-12.847
		c-2.336-4.673-9.346-25.817-28.799-31.604c-19.454-5.782-39.43,0.879-39.43,0.879s-12.792,3.327-21.025,13.667
		c-8.237,10.341-15.948,22.254-15.948,22.254l-1.925,2.978c0,0-0.531-4.206-2.107-6.13c-1.576-1.93-2.099-4.294-2.099-4.294
		s3.501-6.569,3.327-14.106c-0.175-7.533,1.108-13.204,0.174-19.16c-0.935-5.957,0.819-36.447,0.935-39.366
		c0.119-2.923,1.988-40.304,1.521-42.407c-0.467-2.104,4.032-0.879,4.032-0.879s-2.281-1.576-3.152-4.032
		c-0.88-2.447,0.696-35.041-0.179-42.229c-0.875-7.184-2.63-15.068-3.854-17.172c-1.228-2.103-2.982-5.96-2.982-5.96
		s6.31-5.077,7.711-8.586c1.402-3.501,0.527,8.237-1.228,9.291c-1.75,1.05,3.857,1.576,3.509-10.167c0,0,2.277-2.276,2.277-5.08
		c0-2.805-2.808-1.229-3.679-4.729c-0.88-3.509,2.978-10.515-1.229-20.855c0,0-2.455-2.629-4.38-6.662
		c-1.929-4.027,3.68,0.527,5.782-0.348c2.099-0.875-4.559-0.174-6.836-5.782c-2.28-5.608-0.526-5.081,0-5.081
		c0.527,0,9.814-11.568-2.455-26.986c-12.261-15.422-11.39-13.145-11.913-18.574c-0.526-5.438-4.554-21.382-4.906-26.637
		s-2.808-15.244-7.01-21.026c-4.206-5.786-3.505-12.617-4.028-14.193c-0.53-1.576-7.362-41.885-39.96-49.592
		c0,0-6.305-1.054-11.033,0.522c0,0-1.402-5.782-17.528-3.326c-16.119,2.451-25.465,13.782-33.41,21.025
		c-7.944,7.243-14.249,26.871-14.486,30.372c-0.229,3.509-5.838,16.356-8.642,19.16s-10.048,19.394-10.281,21.029
		c-0.237,1.636-8.178,10.982-9.112,11.683c-0.936,0.697-9.58,14.25-10.281,16.824c-0.701,2.566-3.973,4.903-5.604,13.782
		c-1.64,8.879-3.509,12.851-4.673,13.786c-1.172,0.935-3.977,5.841-3.977,7.711c0,1.869-11.912,10.043-14.249,12.851
		c-2.337,2.8-5.493,8.06-8.119,8.233c-2.629,0.175-18.752,9.64-19.979,13.319c-1.224,3.679-22.602,80.082-21.2,101.46
		c1.398,21.378-14.725,81.658-14.725,81.658l-1.049,12.971c0,0-5.256,10.511-5.256,11.912c0,1.402,0.697,6.662-1.401,7.359
		c-2.104,0.704-3.157,10.867-3.157,10.867s-4.554,13.318-4.554,15.77c0,2.455-3.157,14.368-3.157,14.368
		s-17.868,42.407-16.819,49.069c1.05,6.661,2.451,8.76,2.451,8.76s-2.451,11.216-1.401,14.368
		c1.054,3.156-8.761,43.461-8.761,43.461l1.402,2.277c0,0-1.663,8.233-3.505,10.776c-1.842,2.542-3.331,9.199-3.331,10.162
		c0,0.967-2.189,6.574,2.456,13.671l0.174,4.815l2.451,3.857l-1.841,8.325c0,0,0.091,4.468,0.617,5.694
		c0.523,1.229-2.455,5.608-2.455,5.608l-1.751,2.804l-1.228,1.402l-1.053,1.049l-1.402,2.805l-1.925,1.58l-1.576,2.099l-2.455,3.505
		l-3.68,2.451l-0.353,2.982l-3.501,4.559l-1.576,1.75l-1.406,1.577l-1.576,1.576l-1.224,2.978l-2.629,2.456
		c0,0-0.179,0.174-0.531,1.054c-0.349,0.871-2.273,2.978-2.273,2.978l-2.629,1.402v1.224l-2.63,2.804l-1.751,2.63l-2.281,1.576
		l-0.871,1.754l-16.063-14.898c0,0-94.161,134.934-97.67,147.551c0,0-2.979,6.135-5.251,8.408
		c-2.281,2.281-9.64,15.77-10.516,20.328l-22.93,37.501l34.494,56.427l76.399,36.447L751.522,1199.072z M1678.863,803.746
		l1.925,2.978l1.402,2.277l3.509,3.509l2.099,2.451l3.331,3.331l1.929,2.277l3.152,3.331l2.455,2.978l3.152,3.68l2.805,2.276
		l1.75,3.684l1.755,1.576l1.929,1.751l1.228,2.28l-8.938,4.024l-27.513-46.083L1678.863,803.746z M1653.628,775.532l8.293,9.699
		l2.805,5.956l1.401,2.218l0.82,2.106l1.049,2.337l2.574,4.555l1.869,4.907l1.283,1.517l1.636,3.271l1.751,2.805
		c0,0,0.819,3.271,1.054,3.619c0.233,0.353,1.635,3.51,1.865,3.977c0.237,0.467,1.172,2.218,1.172,2.218l1.05,2.103l0.701,2.686
		l0.935,1.054l1.053,3.152l1.751,3.037l1.64,3.042l1.984,4.202l1.287,2.158l-0.936,0.761l-3.742-4.088l-1.283-1.521l-1.287-2.099
		l-1.283-1.988l-1.754-2.218l-2.104-2.57l-1.521-2.923l-1.865-2.919l-1.755-2.685l-1.983-2.689l-1.984-2.919l-1.64-2.337
		l-2.804-3.271l-1.165-2.689l-1.987-2.685l-1.636-2.809l-1.984-2.447l-2.104-3.271l-1.635-2.106l-0.119-2.452l-1.283-2.57
		l-0.349-2.217l-3.041-12.385L1653.628,775.532z M1646.971,789.667l3.973,5.845l4.906,31.307h-1.401l-2.222-1.983l-0.349-2.689
		l-0.468-1.287l-0.586-2.099l-1.632-2.107l-0.118-2.099l-1.287-3.331l-0.816-2.515l-0.701-2.333L1646.971,789.667z M1608.77,824.835
		c0,0,1.636-5.961,2.103-7.01c0.468-1.054,2.686-5.141,2.686-5.141l0.705,12.15H1608.77z M1638.793,803.453l-4.439,21.382h-3.854
		c0,0-0.349-2.574-0.468-4.911c-0.118-2.337,0.229-1.632,0-2.804c-0.233-1.165,6.543-20.206,6.543-20.206L1638.793,803.453z
		 M1628.86,783.01h2.923l3.619,10.633l-6.542,19.042C1628.86,812.685,1627.814,786.981,1628.86,783.01z M1624.072,804.392
		l-1.169,8.76l-2.565,11.684h-2.923c0,0,1.401-6.075,0-7.597c-1.402-1.521-1.283-13.434-1.283-13.434l6.771-21.73L1624.072,804.392z
		 M1565.486,524.248c0,0,4.381,18.221,9.988,24.182c0,0,6.661,38.554,16.118,49.766c0,0,4.911,5.786,5.26,12.439
		c0.353,6.661,4.206,13.497,4.206,13.497l5.956,15.069c0,0,9.117,24.883,8.938,26.285c-0.174,1.401-2.625,9.987-1.929,12.791
		c0.705,2.805-2.277,41.354-2.277,41.354l0.701,3.683c0,0-3.501,14.78-3.326,17.204c0.174,2.424,0.349,12.412-0.175,15.564
		c-0.53,3.152,1.05,8.06,3.501,9.287c2.456,1.228,4.555,8.06,4.555,8.06l1.228,3.683c0,0-4.555,19.976-4.027,24.356
		c0.526,4.38-2.104,9.461-2.104,9.461s-1.929,5.256-2.629,5.434c-0.701,0.174-3.505,8.586-3.505,8.586l-29.264-0.875l-16.297,49.766
		l0.875-40.13c0,0,11.042-22.602,11.739-31.719c0.704-9.108,5.96-56.364,0.586-84.637s-5.374-25.002-4.439-31.544
		c0.935-6.543-5.137-39.018-5.137-39.018s7.473-19.857-7.248-37.148l-1.983-2.685c0,0,13.318-11.921,14.486-14.487
		c1.169-2.57-2.455-10.748-15.714-26.344C1553.57,566.129,1566.366,536.513,1565.486,524.248z M1331.2,674.42
		c0.696-2.099,0.522-5.604,1.75-8.233c1.228-2.626,2.456-9.81,2.456-9.81c4.729-9.117,3.326-16.127,3.326-16.127
		s1.228-11.563,3.156-13.667c1.929-2.103,6.309-12.265,4.202-25.937c-2.099-13.663,1.054-22.602,1.054-21.9
		c0,0.697,3.505,4.031,2.804,6.657c-0.701,2.63,1.576,12.792,1.576,12.792l-0.174,7.537c-5.086,11.037,1.929,15.421,1.929,15.421
		s1.224,1.925-1.755,1.925s-5.26,2.979-5.26,2.979s-3.675,20.681-5.781,26.637c-2.1,5.957,0.53,13.145,0.53,13.145
		s2.804,4.377,0,5.957c-2.804,1.576-0.879,8.233-1.933,8.586c-1.046,0.353-2.8,10.689-2.8,10.689s-1.054-2.277-1.755-1.229
		c-0.697,1.054-5.782-2.451-5.782-2.451C1329.973,685.113,1330.495,676.527,1331.2,674.42z M1249.102,691.422
		c0,0,2.919-0.352,4.218-2.717c0,0,1.216,2.801,3.489,2.104c2.281-0.701-2.012,10.598-9.545,12.355
		C1247.264,703.164,1249.624,695.45,1249.102,691.422z M1172.318,1065.604c1.172,3.624,4.673,35.045,2.106,30.491
		C1171.851,1091.541,1172.318,1065.604,1172.318,1065.604z M1159.004,685.232c0,0,2.685-0.119,2.919-0.935
		c0,0,1.983,2.685,6.07,0.935c0,0,1.988,11.794,2.227,12.848c0.229,1.053,0.815,7.01,0.815,7.01s-7.711,3.271-9.112,4.791
		c-1.406,1.518-0.115-7.128-2.104-15.307C1157.831,686.396,1159.004,685.232,1159.004,685.232z M986.182,1025.886
		c0,0,10.661-10.399,5.172-17.991c0,0-1.279-3.387-1.279-4.088c0-0.7,1.747-3.504,1.279-5.374
		c-0.459-1.869,1.992-6.661,0.943-10.867c-1.054-4.206,0.467-65.068-2.337-70.91c-2.804-5.841,2.249-100.379,1.457-102.921
		c-0.788-2.539,4.119-14.982-5.607-28.915c0,0-1.751-3.239,2.281-0.875c4.031,2.364,5.607,2.451,5.607,2.451s0.262,3.944,3.24,4.646
		c0,0-5.87,19.715-0.784,46.7c5.077,26.986,4.554,33.47,4.554,33.47s-0.76,2.978,0.871,6.193c1.64,3.208,1.466,43.806,1.466,43.806
		s-2.107,4.091-0.468,7.478c1.632,3.386-0.118,6.657-0.118,6.657s-3.152,6.78-0.349,15.659c0,0-0.237,3.734-1.521,5.838
		c-1.283,2.103-0.349,7.357-0.119,8.182c0.237,0.815,0.353,6.186-0.815,6.771c-1.165,0.587,0.467,5.49,0.7,6.777
		c0.234,1.287-2.336,5.373-0.353,8.297c1.988,2.918,0.82,4.554,0.82,4.554s-3.271,4.206,0.819,7.129l0.115,7.707
		c0,0-2.103,6.891,2.57,8.993c0,0-4.792,5.842,0,8.063v6.424c0,0-6.309,5.256-1.869,9.231l0.349,4.903c0,0-2.805,56.72-1.576,65.306
		c1.228,8.587,3.097,23.656,3.097,23.656s-1.168,10.166-5.374,15.596c0,0-5.256-44.511-7.358-48.364c0,0,0-3.156-0.82-4.206
		c-0.815-1.049-0.349-5.492-0.935-6.428c-0.586-0.935-0.229-3.734-0.586-4.316c-0.349-0.586,1.054-5.378,0-7.129
		c-1.05-1.75-0.578-3.152-0.931-5.021s-0.119-7.01-1.517-8.765c-1.402-1.754,0-7.124,0-7.124l2.566-13.086
		c0,0,2.257-7.825-3.192-11.563C980.732,1028.689,986.182,1025.886,986.182,1025.886z M856.195,896.68v-3.854
		c-2.1-5.846-2.686-32.713-2.686-32.713l12.031,53.854L856.195,896.68z M859.525,834.76c9.699,10.166,11.156,2.629,11.857,0.879
		c0.701-1.751-1.224-15.596-1.224-15.596s-1.933-11.042-0.526-13.846c1.397-2.804,0-7.533,0-7.533
		c1.397-4.205,1.929-13.14,1.929-13.14s5.077-30.146,5.607-31.37c0.522-1.224,1.75-13.636,1.75-13.636l3.153-4.761
		c0,0-3.327,16.642-4.499,41.647c-1.165,24.998,16.355,73.829,16.475,75.817c0.115,1.984,0.935,8.293,0.935,8.293
		s2.218,3.271,2.218,5.021s0.586,10.748,1.054,11.684c0.467,0.934,3.62,4.673,2.57,8.819c-1.054,4.146,1.75,8.705,2.8,14.661
		c1.054,5.961,6.836,37.85,6.135,41.006s0,8.76,0,8.76s3.679-1.576,2.277,4.559c-1.402,6.131-1.228,16.823,0.705,17.521
		c1.925,0.705,0.871,9.988,0.871,10.515c0,0.527-0.175,6.309-1.046,6.662c-0.879,0.352-1.58,2.103,0.349,4.375
		c1.925,2.281,2.63,5.26,2.63,5.26s-3.509,2.455-2.456,4.206c1.054,1.755,1.577,13.846,1.577,13.846
		c-5.608,4.031,1.228,11.216-1.268,12.792c-2.491,1.576,1.441,7.357,0,8.411c-1.438,1.05-1.01,9.462-0.31,16.119
		c0.701,6.661,0,12.792,0,12.792l-43.104-141.234l-2.455-8.063l0.697-5.259l-0.816-0.936l-0.348-3.619l-1.521-2.804v-3.271
		l-0.815-3.034l-0.119-1.758l-0.467-1.984l-0.697-2.8l-0.353-2.574l-0.582-2.686l-0.586-3.271c0,0-0.816-2.923-0.935-3.271
		c-0.119-0.349-0.234-4.674-0.234-4.674l-1.228-3.619l-0.642-1.869l-0.819-3.391l-0.701-2.103v-3.152l0.233-1.169l-1.283-2.57
		l-1.054-5.141l-0.696-4.962c9.813-0.353,0-8.324,0-8.324v-4.468L859.525,834.76z M849.831,813.12l6.047-4.293l0.697,9.64
		c0,0-2.979,3.413-3.374,3.766c-0.396,0.353-1.533-1.224-2.67-0.701c0,0-1.488-0.522-2.103-0.348
		C847.814,821.357,849.918,815.837,849.831,813.12z M843.11,867.939l0.823-2.337v-2.099l0.464-1.287v-3.624l1.517-5.723
		l-0.582,21.263l-3.038-4.439L843.11,867.939z M837.739,845.278l-1.869,12.031l-14.139,27.921l14.139-41.94L837.739,845.278z
		 M828.742,846.562l3.39-6.075l1.636,0.701L822.9,871.797l-1.984-0.816L828.742,846.562z M789.898,894.343l1.054-1.054v-1.397
		l2.63-2.107l2.625-2.978l1.05-1.229l1.228-1.924l1.402-1.755v-1.397l2.63-1.581l1.576-2.626l1.754-1.58l1.05-1.75l1.402-1.228
		v-1.58l2.103-1.751l1.754-2.804l1.751-1.228v-1.751l2.103-0.875v-1.401l2.626-2.452l1.054-2.281l1.576-1.576h1.402l1.228-2.63
		l-1.751,7.185l-0.879,2.455l-0.875,2.104l-0.527,2.451l-1.049,2.979l-1.402,5.521l-2.63,6.574l-1.397,5.782l-5.26,15.421
		c0,0-1.576,2.452-1.75,2.979c-0.175,0.523-1.229-0.879-1.229-0.879l-0.353-2.1l-0.174-2.455l-0.526-4.031l-15.248,1.402
		L789.898,894.343z"/>
</g>
<g>
	<circle fill="#FF5A5A" cx="352.841" cy="352.985" r="100.037"/>
	<path fill="#333436" d="M229.105,466.059h0.994l1.426,0.302l15.815,2.852l4.278,4.191l8.253-0.389l8.081-0.303l-0.476-0.994
		l-0.259-2.074l9.463-2.852c0,0,0.648,4.667,1.253,5.401c0.604,0.734-2.247,1.642-1.642,5.531c0,0,1.253,3.802,1.296,4.753
		c0.043,0.951,1.037,1.296,1.037,1.296s0.216,1.038,0.605,1.47c0.389,0.432,1.339,4.364,1.339,4.364s3.024,13.481,3.068,14.821
		c0.043,1.339,9.29,3.154,14.216,2.031c0,0,2.852-0.217,2.117-2.853c0,0-0.173-1.686-2.463-5.704c0,0,3.327-0.173,3.889-2.203
		c0,0,1.167-1.513,0.778-3.068c0,0,0.332-0.951,0.079-1.34c0,0-0.123-3.629-0.727-4.969c-0.605-1.34-0.086-0.086-0.346-1.167
		c-0.259-1.08,0.303-1.426-0.777-2.809c0,0,0.129-1.987-0.129-3.111c-0.259-1.124,1.08-0.519,0.302-2.478
		c0,0-0.288-0.633-0.115-1.095c0.173-0.461,0.202-0.547-0.029-1.699c0,0,0.807-1.44,0.547-2.333c0,0,1.584-0.72,0.403-2.333
		c0,0,2.535-7.663,2.535-11.004c0,0,4.437-8.642,4.321-16.65c0,0,0.865-9.247,1.21-10.976c0,0,0.922-2.016,0.547-2.938
		c-0.374-0.922,0.09-2.478,0.09-2.478s0.573-1.239-0.234-2.506c0,0-0.201-0.72-0.057-1.152c0.144-0.432,0.749-0.979,0.086-2.305
		c0,0,0-0.316,0.086-0.489s0.115-1.268-0.692-2.333c-0.807-1.066,1.124-2.045,0.461-3.227c0,0-0.605-2.449-0.115-3.197
		c0.49-0.75,0.374-1.47,0.403-1.643c0.029-0.173,0.201-1.152,0.086-1.786c-0.116-0.634,0.544-0.72,0.171-1.872
		c0,0,0.059-0.23,0.232-0.576c0.173-0.346,0.173-0.922,0.144-1.21c-0.029-0.288,3.284-14.835,3.284-14.835s1.757,1.584,2.362,1.527
		c0.605-0.058-0.979,0.922-0.922,2.42c0.057,1.498-0.691,3.024-0.691,3.024s-0.778,2.91-0.778,3.63s-2.132,2.909-1.988,4.551
		c0,0,0.663-0.259,1.729,0.202l-0.432,2.333c0,0-0.519,0.403-0.519,2.247s-0.605,6.885-0.605,6.885s-1.124,5.762,2.045,9.823
		c0,0,2.506,11.264,3.414,12.344c0.908,1.081,0.173,4.062,0.951,5.186c0.777,1.123-0.043,1.642,0.259,3.846
		c0,0-0.504,2.996-0.245,4.321c0.259,1.325,0.332,2.938,0.332,2.938s0.359,2.333,0.475,3.399c0.115,1.065,0.043,10.687,0.691,13.453
		c0.648,2.766,0.432,9.679,1.944,13.136c1.512,3.457,2.42,9.938,2.42,9.938s-0.411,0.627,0,0.929
		c0.41,0.303,0.778,0.583,1.664,0.325c0.886-0.26-2.938,1.965-2.722,3.153s1.318,2.118,1.318,2.118s6.049-2.68,10.997-0.367
		c0,0,1.577-0.605,0.432-2.701c0,0,0.907-1.578,0.583-2.83c-0.324-1.254,0.195-1.6,0.195-1.6s0.497,0.152,0.727,0.021
		c0.231-0.129,0.504-1.354,0.475-1.958c-0.028-0.605,1.042-1.499,0.002-8.787c0,0-0.146-5.675-0.607-6.741
		c-0.461-1.066,0.115-3.687-1.21-6.942c-1.325-3.256-1.7-6.856-1.728-6.971c-0.029-0.116-0.49-1.469-1.326-1.988
		c-0.835-0.518,0.519-4.378,0.836-4.983c0.316-0.605-0.433-8.268-0.375-9.391c0.058-1.124,0.951,2.396,1.325,2.48
		c0.375,0.084-0.173,3.742-0.173,3.742s-0.144,2.823,1.584,4.724c1.729,1.901,2.128,1.729,2.128,1.729s0.062,1.757,1.473,2.852
		c0,0,0.576,2.852,1.7,4.177s0.519,2.679,1.469,3.803c0.951,1.123,0.547,2.563,0.547,2.563s0.202,4.35,1.527,6.049
		c0,0,0.663,0.893,0,2.766c-0.663,1.872,0.144,12.905,6.741,12.214s5.473-8.757,4.695-13.337c0,0,0.029-3.255-0.59-3.846
		c-0.62-0.59,0.273-1.714,0.273-1.858s0.259-1.21,0.144-1.584s-0.032-1.127-0.529-1.938c0,0,0.054-0.943-0.22-1.476
		c-0.273-0.533-0.014-1.8-0.029-2.074c-0.014-0.274-0.086-2.924-0.086-2.924s0.317-2.736-0.518-3.371c0,0-1.008-4.955-2.564-6.366
		c0,0-0.346-4.004-1.844-4.264s-0.086-2.766-0.086-2.766s1.383-4.119,0.317-7.864c-1.066-3.745,0.202-8.556,0.029-9.103
		c0,0,1.124-3.918-0.144-5.848c0,0-0.375-1.383,0.058-1.556s0.259-1.008,0.259-1.008s0.634-2.218-0.49-2.967l-0.144-1.469
		c0,0,1.469-2.621,1.44-3.168s-0.101-0.764-0.101-0.764l0.417-0.562l0.59,0.576c0,0,0.475-0.317-0.417-3.831
		c0,0,0.029-2.391-0.23-3.025s-0.173-3.342,0.144-3.716c0.317-0.375,0.634-5.127,0.49-5.473c-0.144-0.346,0.029-2.794,0.202-2.91
		c0.173-0.115,1.21-11.378,1.671-11.235c0.46,0.145,0.95-0.115,0.95,0.317s0.403,1.037,0.403,1.037s0.116-1.239,0.691-1.095
		c0,0,0.073,1.008,0.512,1.556s0.669,1.124,0.669,1.124l0.49-0.547c0,0,0.317,0.144,0.432,0.518
		c0.115,0.375,0.403-0.403,0.634-0.259c0.23,0.145,0.49,0.519,0.49,0.519s0.144-1.268,0.316-1.239
		c0.173,0.029,1.7,2.075,3.054,2.679c1.354,0.605,1.988,1.93,4.494,0.058c2.506-1.872,2.593-2.621,2.593-2.621
		s-1.613,13.366,0,17.125c0,0,0.101,1.729,0.403,2.593c0.302,0.864-0.043,2.485,0.281,3.846c0.324,1.361-0.224,8.642,0.151,9.938
		c0.375,1.296,1.037,3.601,1.037,3.601s0.691,2.737,0.979,3.716s0.144,2.679,0.403,3.313s1.44,2.045,1.354,2.564
		c-0.086,0.518,1.153,3.312,1.354,3.601c0.202,0.288,0.979,3.774,0.979,3.774s1.095,4.119,1.469,4.695
		c0.375,0.577,2.708,8.21,3.371,9.104s0.663,6.366,2.045,8.642c1.383,2.275,1.499,5.444,4.465,7.374c0,0-1.959,2.593-1.786,3.111
		s0.605,1.354,0.605,1.354s0.547,5.272,0.49,5.358c-0.058,0.086,0.288,0.461,0.375,0.49c0.087,0.029-0.403,3.025-0.403,3.025
		s-0.49,1.21-0.49,1.325c0,0.116-0.633,1.527-0.633,1.671c0,0.145-0.98,2.074-0.836,2.42s-4.062,3.428-4.321,4.148
		c0,0-1.873,0.577-2.074,1.239c0,0-1.094,0.547-0.922,1.268c0.173,0.721,1.066,0.691,1.181,0.605
		c0.115-0.087,0.576,0.316,1.124,0.23c0.547-0.087,0.922,0.402,1.239,0.172s0.922,0.317,1.412,0.145s0.979,0.145,1.555-0.086
		s1.21,0.662,2.074,0.547c0,0,1.152,0.316,1.815,0.26c0.663-0.059,0.749,0.346,1.584,0.086c0.835-0.26,0.288,0.316,1.469-0.115
		c0,0,1.325-0.015,1.498-0.273c0,0,1.037,0,1.282-0.36c0.245-0.36,4.019-1.109,4.882-4.551c0,0,0.216-0.922,0.13-1.397
		s0.317-0.979,0.317-0.979s-0.029,2.031,0.691,2.794s-3.846,7.677-4.393,10.414c0,0-1.354,2.477-0.922,2.707
		s0.288,0.864,1.124,0.951c0.835,0.086,1.239,0.259,1.613,0.259c0.374,0,0.864,0.202,1.094,0.029
		c0.231-0.173,1.182,0.46,1.729,0.087c0.547-0.375,1.21,0.316,1.786,0.086s0.778,0.058,1.181-0.059
		c0.403-0.114,0.922,0.203,1.786-0.027s1.411,0.114,1.786-0.203c0.375-0.316,0.951,0.375,1.729,0.203
		c0.778-0.174,1.268,0.172,1.44-0.029s0.519,0.029,1.066-0.201c0.547-0.231,0.778-0.202,1.037-0.346
		c0.259-0.145,0.979-0.174,1.065-0.375s0.75-0.23,0.864-0.432c0.115-0.203,0.389-0.375,0.562-0.721s0.381-0.562,0-2.139
		c-0.382-1.578,0.439-2.441-0.166-4.84c0,0,0.648-2.203,0.583-2.787c-0.064-0.584,1.671-0.26,1.354-1.643
		c-0.317-1.382-0.519-2.304-0.519-2.621s0.115-0.922,0.029-1.786c-0.086-0.864,0.317-0.893,0.144-1.729
		c-0.173-0.835,1.066-1.209,1.469-2.65c0,0,1.066-0.504,1.412-1.347c0.346-0.842,1.253-2.484,0.756-6.395
		c0,0-0.077-1.188,0.145-1.664c0.222-0.475,0.632-7.799,0.395-8.642c-0.238-0.843-0.116-2.333,0.072-2.723
		c0.187-0.389,3.039-12.013,2.65-14.259l7.475,1.815l1.844,0.029l0.951-0.086l-0.144,1.642l-0.173,0.95l0.317,0.519l11.263,0.173
		l9.146-1.023l13.006-3.759l-0.389-3.154l-0.346-2.895l-0.821-1.685l0.216-0.605l0.605,0.173l1.383-0.562l1.512,3.759l17.774-7.389
		l18.09-13.597l-30.852-48.107l-6.05,3.457l-1.814,0.389l-0.821-0.734l-0.605-0.692l-0.734-0.691l-0.432-0.691l-0.864-0.778
		l-0.562-0.821l-0.821-0.734l-0.432-0.648l-0.778-0.562l-0.389-0.605l-0.619-0.518l-0.49-0.605l-0.403-0.518l-0.49-0.634
		l-0.519-0.49l-0.547-0.634l-0.633-0.576l-0.605-0.663l-0.547-0.605l-0.547-0.605l-0.375-0.49l-0.547-0.807l-0.49-0.807
		l-0.057-0.518l-0.461-0.433l-0.028-0.403l-0.433-0.403c0,0,0.605-1.93,0.75-3.341c0.144-1.411,1.181-1.411,1.296-1.959
		c0.115-0.547,0.086-1.469-0.26-2.016c-0.346-0.548-0.605-1.757-0.605-1.757l-0.432-1.354c0,0,0.288-0.634,0.259-1.037
		c-0.029-0.403-0.548-3.428-0.548-3.428s-0.086-1.613-0.317-1.901s0.058-5.531,0.058-5.531s1.296-1.901,1.411-4.148
		s1.095-3.457,0.951-6.395c0,0,2.42-2.881,2.42-3.702s0.086-2.42,0.086-2.42s0.043-1.382-0.389-1.944
		c-0.432-0.562-4.565-18.091-6.871-22.296c0,0-0.806-1.729-0.806-1.959c0-0.23-9.477-29.498-9.391-30.362
		c0.086-0.865-2.333-17.458-9.42-19.013c-7.086-1.556-16.766-6.481-19.963-6.741l-4.407-6.049c0,0-0.346-0.864-2.204-0.778
		l-0.273-1.239c0,0,0.893-1.296,0.835-2.535s0.029-1.383,0.029-1.383s0.259-1.584,0.259-1.728s2.218-0.418,2.153-3.464
		c-0.064-3.046,0.238-3.629-0.194-4.839c-0.432-1.21-0.799-2.117-1.491-2.009c0,0,0.108-0.713,0.13-0.821
		c0.021-0.108-0.086-1.621-0.238-1.88c-0.151-0.259,0-1.361-0.151-1.685c-0.151-0.324,0.043-1.836-0.541-2.701
		c-0.583-0.864,0.022-1.253-0.842-2.161s-1.231-2.182-1.599-2.441c-0.368-0.259-1.513-1.339-3.219-2.204
		c-1.707-0.864-4.905-1.771-5.164-1.793c-0.259-0.021-4.63-2.204-10.623,1.109c0,0-3.601,2.593-4.004,3.313
		s-0.634,0.518-0.778,1.037c-0.144,0.518-0.691,0.604-0.864,1.181c-0.173,0.576-0.49,1.21-0.692,1.44
		c-0.201,0.23-0.46,1.124-0.46,1.354s-0.778,1.123-0.75,1.613c0.029,0.49-0.144,1.527-0.028,2.074
		c0.115,0.547-0.519,4.379,0.807,6.395c0,0,0.23,1.325,0.173,1.556c-0.058,0.23,0.172,3.111,0.662,3.63
		c0.49,0.518,0.75,3.054,0.778,3.371c0.028,0.316,0.259,1.728,1.354,2.131c0,0,1.757,6.366,5.992,8.354c0,0,0.173,1.066,0.173,1.296
		s-1.009,4.177-0.922,5.358s-4.623,1.887-5.401,3.659c-0.778,1.771-10.155,5.833-10.976,7.475c0,0-3.759,3.154-4.753,9.031
		c-0.994,5.876-1.512,8.771-1.512,9.247s-3.068,18.148-3.716,19.099c-0.648,0.951-1.584,10.4-1.527,11.091
		c0.058,0.691-0.403,2.766,0.115,4.206s-0.058,5.416-0.058,5.416s0.173,3.86,0.576,4.321s1.152,9.333,1.152,9.333
		s-1.325,3.572-1.325,4.321c0,0.749-0.173,4.09,0.115,4.494s4.148,8.757,4.321,8.757c0.173,0,1.094,7.439,1.094,7.439
		s-3.687-2.168-3.946-4.329c-0.259-2.16-2.031-6.784-2.333-7.562c-0.303-0.778,0.518-0.691,0.172-1.426c0,0,0.108-0.885-0.389-1.123
		c-0.497-0.238-0.324-0.497-0.281-0.756c0.043-0.259,0.454-1.404-0.669-1.361l-0.346,0.13c0,0-0.043-0.843,0.151-1.34
		c0.194-0.497,0.907-1.512,0.626-2.744s1.051-2.11-0.303-5.48c0,0-0.23-2.017-0.806-3.168c-0.576-1.152-2.305-6.366-7.101-7.792
		c-4.796-1.426-9.723,0.216-9.723,0.216s-3.154,0.821-5.185,3.37c-2.031,2.549-3.933,5.488-3.933,5.488l-0.475,0.734
		c0,0-0.13-1.037-0.519-1.512c-0.389-0.476-0.519-1.059-0.519-1.059s0.864-1.62,0.821-3.479c-0.043-1.858,0.273-3.255,0.043-4.724
		c-0.23-1.469,0.202-8.988,0.23-9.708s0.49-9.938,0.375-10.457c-0.115-0.518,0.994-0.216,0.994-0.216s-0.562-0.389-0.777-0.994
		c-0.216-0.604,0.173-8.642-0.043-10.414c-0.216-1.771-0.648-3.716-0.951-4.234s-0.735-1.469-0.735-1.469s1.556-1.253,1.902-2.117
		c0.345-0.864,0.129,2.031-0.303,2.29s0.951,0.389,0.864-2.506c0,0,0.562-0.562,0.562-1.253s-0.692-0.302-0.908-1.167
		s0.734-2.592-0.302-5.142c0,0-0.605-0.648-1.081-1.642c-0.475-0.994,0.908,0.129,1.426-0.086c0.519-0.216-1.124-0.043-1.685-1.426
		c-0.562-1.383-0.13-1.253,0-1.253s2.419-2.852-0.605-6.654c-3.024-3.803-2.809-3.241-2.938-4.58c-0.13-1.34-1.124-5.272-1.21-6.568
		c-0.086-1.296-0.692-3.759-1.729-5.185c-1.037-1.426-0.864-3.111-0.994-3.5c-0.13-0.389-1.815-10.328-9.853-12.229
		c0,0-1.555-0.259-2.722,0.13c0,0-0.346-1.426-4.321-0.821c-3.975,0.605-6.279,3.399-8.239,5.185
		c-1.958,1.786-3.514,6.626-3.572,7.49c-0.058,0.864-1.44,4.033-2.132,4.725c-0.691,0.691-2.477,4.782-2.535,5.185
		c-0.058,0.403-2.017,2.708-2.247,2.88c-0.23,0.173-2.362,3.515-2.535,4.148s-0.979,1.21-1.382,3.399
		c-0.403,2.189-0.865,3.169-1.152,3.399c-0.288,0.23-0.979,1.44-0.979,1.901c0,0.46-2.938,2.477-3.515,3.169
		c-0.576,0.691-1.354,1.987-2.002,2.03c-0.648,0.043-4.624,2.377-4.926,3.284c-0.302,0.907-5.574,19.747-5.228,25.019
		c0.345,5.272-3.63,20.136-3.63,20.136l-0.259,3.198c0,0-1.296,2.593-1.296,2.938s0.173,1.642-0.346,1.814
		c-0.518,0.173-0.778,2.679-0.778,2.679s-1.123,3.284-1.123,3.889c0,0.605-0.778,3.543-0.778,3.543s-4.407,10.457-4.148,12.099
		c0.259,1.643,0.604,2.161,0.604,2.161s-0.604,2.766-0.346,3.543c0.259,0.778-2.161,10.716-2.161,10.716l0.346,0.562
		c0,0-0.411,2.031-0.864,2.657c-0.454,0.627-0.821,2.269-0.821,2.506c0,0.237-0.54,1.62,0.605,3.371l0.043,1.188l0.604,0.951
		l-0.454,2.053c0,0,0.022,1.102,0.151,1.404c0.13,0.302-0.604,1.382-0.604,1.382l-0.433,0.692l-0.302,0.345l-0.259,0.259
		l-0.346,0.691l-0.476,0.389l-0.389,0.518l-0.605,0.864l-0.907,0.605l-0.086,0.735l-0.864,1.124l-0.389,0.432l-0.346,0.389
		l-0.389,0.389l-0.302,0.734l-0.648,0.605c0,0-0.043,0.043-0.13,0.259c-0.086,0.216-0.562,0.734-0.562,0.734l-0.648,0.346v0.302
		l-0.647,0.691l-0.432,0.648l-0.562,0.389l-0.216,0.432l-3.961-3.673c0,0-23.219,33.272-24.083,36.383c0,0-0.734,1.512-1.296,2.074
		c-0.562,0.562-2.376,3.889-2.592,5.012l-5.654,9.247l8.506,13.914l18.839,8.987L229.105,466.059z M457.773,368.577l0.475,0.734
		l0.346,0.562l0.864,0.864l0.519,0.605l0.821,0.821l0.476,0.562l0.778,0.821l0.605,0.735l0.777,0.907l0.692,0.562l0.432,0.908
		l0.432,0.389l0.476,0.432l0.302,0.562l-2.204,0.993l-6.784-11.364L457.773,368.577z M451.551,361.62l2.045,2.392l0.691,1.469
		l0.346,0.547l0.202,0.519l0.259,0.576l0.634,1.124l0.461,1.21l0.317,0.375l0.403,0.807l0.432,0.691c0,0,0.202,0.807,0.26,0.893
		c0.057,0.086,0.403,0.864,0.46,0.979c0.058,0.115,0.289,0.547,0.289,0.547l0.259,0.519l0.173,0.662l0.23,0.26l0.26,0.777
		l0.432,0.749l0.403,0.75l0.49,1.037l0.317,0.533l-0.23,0.188l-0.922-1.008l-0.316-0.375l-0.317-0.518l-0.317-0.49l-0.433-0.547
		l-0.518-0.634l-0.375-0.721l-0.46-0.72l-0.432-0.663l-0.49-0.663l-0.49-0.72l-0.403-0.576l-0.691-0.807l-0.288-0.663l-0.49-0.662
		l-0.403-0.692l-0.49-0.604l-0.518-0.807l-0.403-0.519l-0.029-0.605l-0.316-0.634l-0.086-0.547l-0.749-3.054L451.551,361.62z
		 M449.909,365.105l0.979,1.44l1.21,7.72h-0.346l-0.547-0.49l-0.086-0.663l-0.116-0.317l-0.144-0.519l-0.403-0.519l-0.029-0.519
		l-0.317-0.821l-0.201-0.62l-0.173-0.576L449.909,365.105z M440.489,373.776c0,0,0.403-1.469,0.519-1.729s0.663-1.268,0.663-1.268
		l0.173,2.996H440.489z M447.893,368.504l-1.095,5.272h-0.951c0,0-0.086-0.634-0.115-1.21c-0.029-0.576,0.058-0.403,0-0.691
		c-0.057-0.288,1.613-4.983,1.613-4.983L447.893,368.504z M445.444,363.463h0.721l0.893,2.622l-1.613,4.695
		C445.444,370.78,445.185,364.443,445.444,363.463z M444.263,368.735l-0.288,2.161l-0.634,2.88h-0.72c0,0,0.345-1.498,0-1.873
		c-0.346-0.375-0.317-3.312-0.317-3.312l1.671-5.358L444.263,368.735z M429.816,299.657c0,0,1.08,4.494,2.463,5.963
		c0,0,1.642,9.506,3.975,12.271c0,0,1.21,1.426,1.297,3.068c0.086,1.642,1.037,3.328,1.037,3.328l1.469,3.716
		c0,0,2.247,6.136,2.204,6.482c-0.043,0.345-0.648,2.462-0.475,3.154c0.173,0.692-0.562,10.198-0.562,10.198l0.173,0.907
		c0,0-0.864,3.645-0.821,4.242c0.043,0.598,0.086,3.061-0.043,3.838c-0.13,0.778,0.259,1.988,0.864,2.291
		c0.605,0.303,1.124,1.988,1.124,1.988l0.303,0.907c0,0-1.124,4.926-0.994,6.006c0.129,1.08-0.519,2.333-0.519,2.333
		s-0.475,1.296-0.648,1.34c-0.173,0.043-0.864,2.117-0.864,2.117l-7.216-0.216l-4.019,12.272l0.216-9.896
		c0,0,2.722-5.574,2.895-7.821s1.469-13.899,0.144-20.871s-1.325-6.165-1.095-7.778s-1.267-9.621-1.267-9.621
		s1.843-4.897-1.786-9.161l-0.49-0.663c0,0,3.284-2.938,3.572-3.572c0.288-0.633-0.605-2.65-3.875-6.496
		C426.878,309.984,430.033,302.681,429.816,299.657z M372.045,336.688c0.172-0.518,0.129-1.382,0.432-2.031
		c0.302-0.648,0.605-2.419,0.605-2.419c1.167-2.247,0.821-3.976,0.821-3.976s0.302-2.852,0.778-3.371
		c0.475-0.518,1.555-3.024,1.037-6.395c-0.519-3.37,0.259-5.574,0.259-5.401c0,0.173,0.864,0.994,0.691,1.642
		c-0.173,0.648,0.389,3.154,0.389,3.154l-0.043,1.858c-1.253,2.722,0.476,3.803,0.476,3.803s0.302,0.475-0.433,0.475
		c-0.734,0-1.296,0.735-1.296,0.735s-0.907,5.099-1.426,6.568c-0.518,1.469,0.13,3.241,0.13,3.241s0.691,1.08,0,1.469
		c-0.691,0.389-0.216,2.031-0.476,2.117c-0.259,0.086-0.691,2.636-0.691,2.636s-0.26-0.562-0.432-0.302
		c-0.173,0.259-1.426-0.605-1.426-0.605C371.742,339.323,371.872,337.207,372.045,336.688z M351.801,340.879
		c0,0,0.72-0.087,1.04-0.67c0,0,0.299,0.691,0.861,0.518c0.562-0.172-0.497,2.614-2.354,3.047
		C351.347,343.774,351.93,341.873,351.801,340.879z M332.867,433.147c0.289,0.893,1.153,8.642,0.519,7.519
		S332.867,433.147,332.867,433.147z M329.583,339.353c0,0,0.663-0.029,0.72-0.23c0,0,0.49,0.663,1.498,0.23
		c0,0,0.49,2.909,0.548,3.168c0.058,0.259,0.202,1.729,0.202,1.729s-1.901,0.807-2.247,1.181c-0.346,0.375-0.029-1.757-0.519-3.774
		S329.583,339.353,329.583,339.353z M286.969,423.353c0,0,2.629-2.564,1.276-4.437c0,0-0.316-0.835-0.316-1.008
		c0-0.173,0.43-0.865,0.316-1.326c-0.114-0.46,0.491-1.642,0.231-2.679c-0.259-1.037,0.115-16.045-0.576-17.485
		c-0.692-1.44,0.554-24.752,0.36-25.379c-0.195-0.626,1.015-3.694-1.383-7.129c0,0-0.432-0.8,0.562-0.216
		c0.994,0.583,1.383,0.605,1.383,0.605s0.065,0.972,0.8,1.145c0,0-1.448,4.861-0.194,11.516c1.252,6.654,1.123,8.253,1.123,8.253
		s-0.187,0.735,0.216,1.527c0.404,0.792,0.36,10.802,0.36,10.802s-0.519,1.009-0.115,1.844c0.403,0.835-0.029,1.642-0.029,1.642
		s-0.778,1.671-0.086,3.86c0,0-0.058,0.921-0.375,1.44c-0.317,0.518-0.086,1.814-0.029,2.017c0.058,0.201,0.086,1.526-0.202,1.67
		c-0.288,0.144,0.115,1.354,0.173,1.671s-0.576,1.325-0.086,2.045s0.202,1.124,0.202,1.124s-0.807,1.037,0.202,1.757l0.029,1.901
		c0,0-0.519,1.7,0.634,2.218c0,0-1.181,1.44,0,1.988v1.584c0,0-1.556,1.296-0.461,2.276l0.086,1.209c0,0-0.691,13.986-0.389,16.104
		c0.303,2.117,0.764,5.833,0.764,5.833s-0.288,2.506-1.325,3.846c0,0-1.296-10.975-1.814-11.926c0,0,0-0.778-0.202-1.037
		c-0.201-0.259-0.086-1.354-0.23-1.584s-0.057-0.921-0.144-1.065c-0.086-0.145,0.26-1.326,0-1.757
		c-0.259-0.432-0.144-0.778-0.23-1.239s-0.029-1.729-0.375-2.161c-0.346-0.432,0-1.757,0-1.757l0.634-3.227
		c0,0,0.557-1.93-0.788-2.852C285.625,424.044,286.969,423.353,286.969,423.353z M254.917,391.493v-0.951
		c-0.519-1.44-0.663-8.066-0.663-8.066l2.967,13.28L254.917,391.493z M255.737,376.225c2.391,2.506,2.751,0.648,2.924,0.216
		s-0.302-3.846-0.302-3.846s-0.476-2.722-0.129-3.414c0.345-0.691,0-1.858,0-1.858c0.345-1.037,0.475-3.241,0.475-3.241
		s1.253-7.433,1.383-7.735c0.129-0.302,0.432-3.363,0.432-3.363l0.778-1.174c0,0-0.821,4.104-1.109,10.27
		c-0.288,6.165,4.033,18.206,4.062,18.695c0.028,0.49,0.23,2.045,0.23,2.045s0.547,0.807,0.547,1.239c0,0.432,0.144,2.65,0.26,2.881
		c0.115,0.23,0.893,1.152,0.634,2.174c-0.26,1.023,0.432,2.146,0.691,3.615c0.259,1.469,1.685,9.333,1.512,10.111
		c-0.172,0.778,0,2.16,0,2.16s0.908-0.389,0.562,1.124c-0.346,1.512-0.303,4.148,0.173,4.321c0.475,0.173,0.216,2.463,0.216,2.592
		c0,0.13-0.043,1.556-0.259,1.643c-0.217,0.086-0.389,0.518,0.086,1.08c0.475,0.562,0.648,1.296,0.648,1.296
		s-0.864,0.605-0.605,1.037c0.259,0.433,0.389,3.414,0.389,3.414c-1.382,0.994,0.303,2.765-0.312,3.154
		c-0.615,0.389,0.355,1.815,0,2.074c-0.355,0.259-0.25,2.333-0.077,3.976s0,3.154,0,3.154l-10.629-34.827l-0.605-1.988l0.173-1.296
		l-0.201-0.23l-0.086-0.893l-0.375-0.691v-0.807l-0.201-0.749l-0.029-0.433l-0.115-0.49l-0.173-0.691l-0.086-0.634l-0.144-0.663
		l-0.145-0.807c0,0-0.201-0.72-0.23-0.807c-0.028-0.086-0.057-1.152-0.057-1.152l-0.303-0.893l-0.158-0.461l-0.202-0.835
		l-0.173-0.519v-0.777l0.058-0.288l-0.317-0.634l-0.259-1.268l-0.173-1.224c2.42-0.086,0-2.052,0-2.052v-1.102L255.737,376.225z
		 M253.347,370.888l1.491-1.058l0.172,2.376c0,0-0.734,0.843-0.832,0.929c-0.098,0.086-0.378-0.302-0.659-0.173
		c0,0-0.367-0.129-0.518-0.086C252.849,372.919,253.368,371.558,253.347,370.888z M251.69,384.406l0.202-0.576v-0.518l0.115-0.317
		v-0.893l0.375-1.412l-0.144,5.243l-0.749-1.094L251.69,384.406z M250.365,378.817l-0.461,2.967l-3.485,6.885l3.485-10.342
		L250.365,378.817z M248.146,379.134l0.836-1.498l0.403,0.172l-2.68,7.547l-0.489-0.201L248.146,379.134z M238.569,390.917
		l0.259-0.26v-0.345l0.648-0.519l0.648-0.735l0.259-0.302l0.302-0.475l0.346-0.433v-0.345l0.648-0.389l0.389-0.648l0.433-0.389
		l0.259-0.432l0.345-0.303v-0.389l0.519-0.432l0.432-0.692l0.432-0.302v-0.432l0.519-0.216v-0.346l0.648-0.605l0.259-0.562
		l0.389-0.389h0.346l0.302-0.648l-0.432,1.771l-0.216,0.605l-0.216,0.519l-0.129,0.604l-0.259,0.735l-0.346,1.361l-0.648,1.62
		l-0.345,1.426l-1.296,3.803c0,0-0.389,0.605-0.432,0.735c-0.043,0.129-0.302-0.217-0.302-0.217l-0.087-0.518l-0.043-0.605
		l-0.13-0.994l-3.759,0.346L238.569,390.917z"/>
</g>
<g>
	<circle fill="#FF5A5A" cx="714.352" cy="706.555" r="100.037"/>
	<path fill="#333436" d="M809.666,727.68l-11.37,1.075c0,0-5.381-11.792-4.96-12.119c0.422-0.327,0.795-1.31,0.795-1.31
		s-0.046-1.731,0.375-3.463s-1.123-11.792-1.123-11.792l-0.725-4.702c0,0,0.327-0.023,0.607-0.188
		c0.281-0.164,0.96-0.865,0.328-1.427s-2.106-5.264-2.316-5.545c-0.211-0.28-1.334-3.72-1.614-4.983
		c-0.281-1.264-0.982-4.702-1.264-4.983c-0.28-0.28-0.421-2.246-0.562-2.737c-0.14-0.492-0.632-2.457-0.772-3.369
		s-1.685-3.72-1.685-3.72c-0.14-2.667-1.122-2.387-0.982-3.229c0.141-0.842-0.771-3.369-1.053-3.931
		c-0.281-0.561-0.843-1.824-1.123-2.315s0-2.246,0-2.246l-2.456-3.79c0,0-1.264-2.316-1.334-2.737
		c-0.07-0.422-1.235-2.667-1.235-2.667l-0.729-2.457c0,0-1.334-4.07-1.708-4.259c-0.374-0.187-0.608-2.151-0.608-2.151
		c4.258-1.825,2.808-4.726,2.808-4.726s-0.374-2.527-0.281-2.995c0.094-0.468-0.936-3.838-0.936-3.838
		c0.233-3.182-1.076-3.79-1.076-3.79s-1.497-0.515-1.685-2.854c-0.188-2.339-4.726-2.994-4.726-2.994
		c-2.199-8.188-8.563-11.229-9.031-11.885s-2.433-0.375-3.604-0.843c-1.169-0.469-4.07-0.234-4.07-0.234l-4.001-0.35
		c2.948-2.598,5.124-11.582,5.124-11.582c0.912-3.649,1.685-13.616,0-17.477s-9.194-6.247-9.194-6.247s-1.825-3.72-9.826-3.089
		c-8.002,0.633-13.828,13.126-16.215,18.951c-2.386,5.825-0.467,12.307,1.03,14.692c1.497,2.388,1.403,5.429,1.403,5.429
		s-2.059-1.731-2.246-1.731s-1.45-0.375-1.45-0.375l-1.076-1.028l-1.638-0.375l-3.135-0.468c-0.234-0.047-2.34,0-2.34,0
		l-0.655-0.515h-1.45l-5.1-2.386l-0.702-1.171l-1.31-0.748c0.046-1.123,1.31-4.913,1.31-4.913
		c5.662-6.505,5.007-10.669,5.007-10.669c3.088,0.936,3.742-4.538,3.742-4.538c1.919-6.224-0.374-6.271-0.374-6.271
		c-0.094-1.17,0.562-4.913,0.562-4.913c0.654-2.715-0.047-6.178-0.375-6.926c-0.327-0.749-0.233-2.434-0.233-2.434l-0.421-2.105
		l-0.749-1.123v-1.356l-1.122-0.281l-0.843-1.076l-0.562,0.047v-1.076l-0.795-0.094l-0.281-0.842l-1.123-0.094l-0.422-1.217
		l-0.795,0.608l-0.374-0.702l-0.796,0.188l-0.328-0.702v-0.748l-1.31-0.047l-0.234-0.749l-2.34,0.234l-1.216,0.374l-0.281-0.374
		l-1.31,0.327l-0.421-0.327l-1.311,0.234h-0.468l-1.264,0.187l-0.795-0.187l-1.357,0.842l-0.795,0.233l-1.451,0.843h-0.562
		l-0.889,1.264h-0.421L683,548.698h-0.655l-0.468,0.796h-0.702v0.842l-0.748,0.328l-0.562,1.17l-0.375,1.919
		c0,0-0.047,0.888-0.141,1.169c-0.093,0.28-0.14,3.557-0.14,3.557l0.234,1.871c0,0,0.094,2.621-0.047,2.948
		c-0.14,0.327-0.316,3.416-0.316,3.416c-1.263,0.351-2.351,2.982-1.263,7.439s3.369,3.791,3.369,3.791
		c1.158,3.438,0.105,13.055-0.948,13.124c-1.053,0.071-1.895,1.334-1.895,1.334c-0.281,0.281-2.808,1.438-2.808,1.438l-1.158-0.525
		l-1.86,1.123c-3.299,0.141-4.492,1.192-4.492,1.192l-8.282,2.457c-13.546,1.053-17.617,18.179-20.869,27.515
		c-3.252,9.334-7.838,15.967-7.838,15.967l3.252,2.165c0,0-0.748,2.9-2.526,4.585s-3.837,13.195-4.96,15.348
		s-2.901,21.806-3.931,23.817s-0.655,4.398-0.655,4.398s0.842,1.076-0.093,3.463c-0.936,2.387-0.328,5.615-1.731,8.188
		c-1.404,2.573-0.375,3.696-0.375,3.696l2.434,2.434c0,0,0.375,1.264,0.936,3.135c0.562,1.872,1.965,0.608,1.965,1.451
		c0,0.842-0.702,4.023-0.702,4.023l-4.398-0.655l-0.515,9.5l-0.281,1.169l-2.947,34.673l-0.843,22.181l-0.936,4.585h21.618
		l2.527-30.696l-0.749-10.949l-0.936-29.854l-5.147,0.281l-1.872-5.147l1.778-2.854c0,0,2.761,1.685,3.556,1.169
		c0.796-0.515,0.468-1.824,0.468-1.824c-0.842-1.029-2.199-3.838-2.527-4.773c-0.327-0.936-0.281-4.305-0.234-5.896
		c0.046-1.591-2.667-4.866-2.808-6.083c-0.14-1.217,0.656-5.896,1.123-7.112c0.468-1.217,5.99-12.213,5.99-12.213
		c3.743-4.96,6.598-15.348,6.785-15.909c0.187-0.562,2.527-7.534,3.182-7.768c0.655-0.234,0.936-0.89,1.357-1.451
		c0.421-0.562,3.603-6.129,3.79-3.228c0.188,2.9,3.135,20.307,2.761,21.477c-0.374,1.17-0.562,11.558,0.491,11.979
		c1.053,0.422,0.913,1.475,0.913,1.475c1.193,2.246,0.655,2.27,0.655,2.27c-2.293,2.152-2.667,9.826-2.667,10.481
		s0.234,4.819,0.234,4.819s1.029-1.591,1.123-1.029c0.093,0.562-0.141,1.872-0.328,2.573c-0.187,0.702,0,6.458-0.328,7.487
		s-0.141,1.824-0.094,3.557c0.047,1.73,0.141,4.819,0.141,4.819s0.21,9.276-0.316,10.188c-0.526,0.913-0.105,2.772-0.105,2.772
		s1.193,8.177,0.562,9.967c-0.631,1.79-0.07,1.755,0.21,5.475s1.123,11.16,1.685,12.143c0.562,0.982,0.983,3.439,0.842,4.914
		c-0.14,1.473-0.304,4.188-0.304,4.188c-2.059,1.31-0.842,4.118-0.748,4.679c0.093,0.562,0.28,2.784-0.913,2.854
		c-1.193,0.07-1.403,3.158-1.965,3.51c-0.562,0.351-0.562,2.456-0.562,2.456s0.562,2.247-0.491,2.878
		c-1.053,0.632-1.404,2.947-1.404,2.947s0.913,2.176-0.21,2.598c-1.124,0.421-1.334,2.878-1.334,2.878
		c-3.79,11.511-4.773,26.765-5.007,29.479c-0.233,2.714,3.393,9.406,3.673,10.458c0.281,1.053-0.562,9.336-1.123,9.897
		s-0.842,3.93-0.842,5.123s1.825,3.088,1.825,3.088s0.771,1.381-0.023,1.756c-0.796,0.374-0.608,2.994-0.562,3.322
		c0.046,0.327,1.263,1.263,1.263,1.73c0,0.469-0.538-0.21-0.959,3.229c-0.421,3.438,5.053,6.246,5.053,6.246
		c2.316,2.878,13.921,1.24,15.699-1.053c1.777-2.293-1.498-10.81-1.638-11.184c-0.14-0.374-1.217-2.901-0.281-2.012
		c0.936,0.889,2.152,1.029,2.152,1.029s-0.608-3.369,0.234-4.398c0.842-1.029,1.404-2.9,1.404-2.9s0.141-4.072,0.234-4.82
		c0.093-0.749,0.515-5.054-0.468-7.206c-0.982-2.152-1.45-7.253-1.123-8.797c0.328-1.544,1.778-10.855,2.527-8.563
		c0.749,2.293,2.62,10.763,2.62,11.979s-0.187,3.416,0.328,5.942c0.515,2.526,6.738,4.609,6.738,4.609
		c0.842,3.228-0.842,14.014-0.749,21.079c0.093,7.065,8.376,11.511,11.136,11.324c2.761-0.187,2.761-2.105,2.761-2.105
		c0.983-0.328,0.772-9.055,0.772-9.055l1.006,0.234l-0.047-0.491l-0.608-0.515l0.328-0.608c2.527-1.124,0.281-4.141,0.281-4.141
		s-0.07-1.404,0.772-2.528c0.843-1.122,0.772-3.368,0.772-3.368l0.982-2.878c0,0,3.86-0.21,5.334-0.702
		c1.473-0.49,5.965-2.878,5.965-2.878c-1.333,2.247-1.053,3.229-1.053,3.229s-0.842,9.546-0.771,10.388
		c0.07,0.843,1.475,3.299,1.475,3.299s1.263-0.352,0.982,5.826c-0.281,6.176,6.527,5.193,6.527,5.193
		c9.545-0.702,8.142-4.913,8.142-6.036s-4.142-10.669-4.142-10.669s-1.895-2.597-1.544-4.492s-0.632-4.491-0.632-4.491
		s0.211-5.124,0.281-5.615c0.07-0.492,1.123-4.071,1.123-5.265s2.807-14.669,2.807-14.669l1.404,6.317l8.984-1.475l6.668-0.21
		c-0.281,3.719,2.667,5.614,1.333,6.387c-1.333,0.771-0.631,2.105-2.315,3.72s-6.247,3.579-6.247,3.579
		c-3.089,0.141-2.878,2.388-2.878,2.388s-1.123,1.544,0.702,2.455c1.824,0.913,14.037,0.772,14.529,1.124
		c0.49,0.351,0.421,3.229,0.49,3.438c0.071,0.211,0.469,2.48,0.469,2.48l2.433,0.28l-0.187,0.75c0,0-1.498,2.433-1.685,3.182
		c-0.188,0.748-1.965,2.62-1.965,2.62c-3.557,2.901-2.153,4.397-2.153,4.397c1.592,3.65,7.486,3.463,7.486,3.463
		c13.289-1.965,13.195-7.299,13.477-9.077s0.843-1.685,0.843-1.685h2.152c0,0,1.965-2.152,2.245-2.527
		c0.281-0.373,2.995-3.368,4.118-4.397c1.123-1.03,0.562-4.586,0.188-6.738c-0.374-2.153-0.374-8.049-0.188-10.575
		c0.188-2.527,0.281-9.078,0.281-9.078l6.831,0.749l12.821,1.404l20.027-19.279l-0.936-10.762L809.666,727.68z M625.82,718.227
		l0.281-4.211l0.889,0.28L625.82,718.227z M627.634,706.984h-0.644v-0.877l0.644-0.14V706.984z M630.312,718.929l-2.527-0.188
		v-4.491h1.451L630.312,718.929z M676.122,788.322c0,0-0.562,0-0.936-1.686c-0.375-1.685,3.556-7.86,3.556-7.86
		C678.087,781.115,676.122,788.322,676.122,788.322z M706.7,791.457c-2.316,1.544-7.088,9.756-7.088,9.756
		c-0.772-5.825,1.333-15.371,1.333-16.284c0-0.912,0.913-6.036,0.913-6.036l0.982-0.771l2.036-0.352
		C705.507,779.244,709.017,789.912,706.7,791.457z M722.914,606.861c-0.141-0.281,0-1.93,0-1.93c0.562,0.982,0.597,1.93,0.597,1.93
		S723.054,607.142,722.914,606.861z M775.414,735.82c0,0,0.609-2.198,0.75-2.619c0.14-0.422,0.748-2.574,0.795-3.136
		s0.795-2.013,1.076-2.199c0.28-0.187,0.701-3.136,0.701-3.136s-0.187-3.134,1.919-8.438s0.375-19.123,0.515-19.403
		c0.141-0.281,1.123,0,1.123,0s0.608,0.374,0.796,0.608s2.059,0,2.059,0s0.233,2.808,0,3.135c-0.233,0.328-1.497,5.475-1.918,6.691
		s-0.375,7.439-0.375,7.439s0.375,0.281,0.702,1.872s1.591,3.322,1.591,3.322l-6.13,14.693L775.414,735.82z M788.423,723.562
		c-0.047,0.28-0.979,7.065-1.191,7.3c-0.212,0.233-4.096,3.79-7.091,3.509c0,0,5.521-13.43,5.896-13.944c0,0,1.45,0.328,1.73,0
		C788.048,720.099,788.47,723.28,788.423,723.562z M790.769,727.211c0,0-1.316-2.246-0.614-6.505c0,0,0.62-1.392,0.614-2.544
		c0,0,0.526-0.332,0.719-0.473c0.193-0.141,0.649-0.404,0.86-0.703c0.211-0.298,5.06,11.909,5.06,11.909L790.769,727.211z"/>
</g>
<g>
	<circle fill="#FF5A5A" cx="363.119" cy="706.555" r="100.037"/>
	<path fill="#333436" d="M492.344,598.242c-1.078-0.453-3.29-3.742-3.29-3.742s0.17-0.737,0.567-1.814
		c0.397-1.078,0.51-2.552,0.51-3.459s-2.155-6.976-1.928-7.202c0.227-0.228,0.624-1.701,0.624-1.701s0,0.623,1.021,1.021
		c1.021,0.396,1.304-3.232,1.872-1.871c0.567,1.36-0.17,1.134,0.567,1.021c0.737-0.113,1.758-3.119,0.908-5.33
		c-0.851-2.212-2.835-2.438-3.799-2.553c-0.964-0.113-4.14,0.341-4.31,1.815c-0.17,1.474-2.268,2.607-2.268,2.607
		s-4.424-2.041-9.698-1.587c-5.273,0.453-6.025,4.792-8.662,4.792c-2.637,0-5.997-5.7-6.593-6.891
		c-0.595-1.19,1.191-2.892,1.361-3.572s1.105-3.402,2.042-4.169c0.936-0.765,1.957-1.786,2.296-2.977
		c0.341-1.191,0.681-4.934,0.596-5.188c-0.085-0.256,0.425-1.617,0.425-1.617l0.085-2.211l1.531-1.616l-2.382-1.871l0.425-1.616
		l-2.211-3.487c0,0-0.425-1.021-1.872-2.808c-1.446-1.786-2.509-2.127-2.509-2.127l-0.468-1.403c0,0-2.637-1.616-2.765-2.169
		c-0.127-0.553-3.104-1.701-3.104-1.701c-0.808-1.062-4.849-0.553-4.849-0.553l-0.553,0.704c0,0-4.083-0.236-4.125,0
		c-0.042,0.235-1.403,0.954-1.953,0.912c-0.55-0.043-1.832-1.063-1.832-0.894c0,0.171,0.127,0.596-0.383,0.894
		s-2.679,0.085-2.552,0.426c0.127,0.34,0.596,0.723,0.766,1.403c0.17,0.68-3.701,1.701-3.701,1.701s-4.423,2.722-5.358,2.85
		c-0.936,0.127-2.297,2.083-1.872,1.871c0.425-0.213,0.255,0.681,0,1.829c-0.255,1.147,1.021,2.424,0.893,2.169
		c-0.127-0.255,0.766-0.596,0.766-0.596c0.128-0.255,0.851-1.148,0.638,0.553s-1.616,3.658-1.361,5.359
		c0.255,1.701-0.383,3.657-0.511,3.785c-0.127,0.128-1.573,2.68-2.254,3.189c-0.681,0.511-1.659,2.424-1.403,3.913
		c0.255,1.488,2.296,1.19,3.104,1.701s0.468,1.275,0.425,1.616s0.383,1.318,0.383,1.318l0.127,1.276l0.893,0.34l1.106,0.085
		l1.361,0.299l0.425,0.553c0,0,0.765,0.042-1.276,1.232c-2.042,1.191-0.638,2.681-0.638,2.681s0.51,0.509,0.127,2.339
		c-0.383,1.828-1.148,3.231,4.21,4.423c5.359,1.19,7.103,2.297,7.103,2.297s1.262,0.595,0.638,2.069
		c-0.624,1.475-5.047,1.531-9.583,4.311c-4.537,2.778-4.65,7.769-4.65,7.769c-0.794,2.269,1.928,27.561,1.587,28.694
		c-0.34,1.134-0.17,4.424-0.17,4.424s1.985,0.623,0.567,3.799c-1.417,3.176-0.17,5.784-0.737,6.918
		c-0.567,1.135-0.34,5.614-0.34,5.614s-0.397,2.155-0.794,1.984c-0.397-0.169-1.19,1.702-1.36,2.552
		c-0.17,0.852-2.893,6.976-2.893,6.976l-0.794,1.19l-1.304,1.532c0,0-0.851,2.098-1.587,2.154c-0.738,0.057-2.722,2.608-2.722,2.608
		s-1.163,4.084-1.673,4.084s-2.211,2.168-2.297,2.508c-0.085,0.342,0.51,2.085,0.51,2.085s-0.382,1.233-0.382,1.403
		c0,0.171-5.274,5.699-5.274,5.699s0.255,1.956-0.425,5.316c-0.681,3.359,1.318,2.893,1.786,5.146s1.318,2.424,1.318,2.424
		l-0.425,0.851v1.021v0.936v0.766v1.106l-0.766,1.361v1.276v1.02v1.399l-0.34,0.897l-0.681,2.382v2.808l-1.728,2.296l-8.11,36.577
		l-5.274-0.34c0,0,1.191-4.707,0.737-5.218s-0.057-1.758-0.057-1.758c1.815-1.701,1.531-10.037,1.418-10.265
		c-0.113-0.227-0.624-3.799-0.284-4.366c0.34-0.567,0.284-3.687,0.284-3.687c0.17-0.51,0.34-2.607,0.34-2.607
		c1.928-1.645,4.593-9.527,4.593-9.527s3.856-19.904,4.48-21.379c0.624-1.475-0.227-7.146,0.851-9.414
		c1.078-2.268,0.964-12.703,1.021-12.986c0.057-0.283-1.984-20.188-2.098-22.342c-0.113-2.155-0.737-4.537-0.737-4.537
		s-3.119-4.82-3.516-5.501s-4.65-3.232-4.65-3.232l-0.227-1.19l-1.843-2.723c2.41-2.665-0.936-1.105-0.539-2.296
		c0.397-1.191-1.021-1.475-1.106-1.475c-0.085,0-2.325,0.651-2.325,0.651s-1.843-2.381-3.601-3.657s-4.905,0.426-4.905,0.426
		c-1.673-2.382,0.993-7.542,1.531-8.109s1.843-2.609,2.438-3.432s0.369-4.394,0.369-4.394c1.304-13.44-4.196-19.622-14.404-19.168
		c-10.207,0.454-12.164,6.691-12.164,6.691l-0.553,1.659c0,0-2.68,6.167-2.212,8.25c0.468,2.085,0.511,3.999-0.936,6.423
		c-1.446,2.424,2.509,7.4,3.53,9.271c1.021,1.871,1.872,5.486,1.872,5.486c-7.528,1.319-5.444,5.401-5.444,5.401
		c-11.483,4.85-10.377,7.996-11.483,9.442c-1.106,1.445-2.552,27.446-3.176,27.9c-0.624,0.453-1.46,5.728-1.46,5.728
		s1.233,4.013,0,5.161c-1.233,1.147-0.383,3.104-0.383,3.104c-0.851,0.51-2.467,3.317-2.467,3.317s-0.084,0.553-0.978,3.019
		c-0.893,2.468-0.978,7.869-0.978,7.869c-3.105,1.403-3.232,4.125-3.232,4.125c1.744,4.083,0.425,5.359,0.425,5.359
		s-2.807,2.084-3.36,3.827c-0.553,1.744,0.51,1.914,0.553,2.723c0.043,0.809-0.298,1.488-0.298,1.488l-4.678,5.529
		c0,0,0.425-1.659,0.425-1.999s0.383-4.339-0.34-4.339s-4.551-5.698-4.551-5.698s-1.446-0.256-1.276-2.174
		c0.17-1.92-0.596-3.78-0.596-3.78l-2.636-11.483c3.062-4.339-0.766-6.295-0.596-7.23c0.17-0.937-4.167-18.799-4.253-19.904
		c-0.085-1.106-2.892-14.546-2.892-14.546s-2.126-7.656-3.062-20.67c-0.936-13.016-5.827-20.671-6.805-21.181
		c-0.979-0.511-1.063,0.128-1.063,0.128l-1.446-0.766c0.638,0.127,0.809-0.639,1.106-1.404c0.298-0.766-0.723-1.445-0.085-1.743
		s0.893-1.446,0.893-1.446c1.488-1.573-0.085-3.956-0.085-3.956c0.765-0.595-0.723-2.509-0.723-2.509s1.191-0.723,1.914-1.361
		c0.724-0.638,0-3.529,0-3.529c-0.127-0.851-3.189-0.979-3.02-1.574c0.17-0.596-1.233-2.339-1.573-2.169
		c-0.341,0.17-1.446-0.17-1.489-0.808c-0.042-0.639-1.148-1.063-1.063-1.616c0.085-0.554-1.063-1.319-1.361-1.319
		s-1.148-0.553-1.191-0.808c-0.042-0.256-1.148-1.488-1.191-1.701c-0.042-0.212-0.709,0.1-1.276-1.29
		c-0.567-1.39,0.255-4.849,0.255-4.849s2.609,0.737,4.821-0.17c2.211-0.908,1.248-2.212,1.248-2.212s-6.125-2.722-6.125-3.119
		c0-0.396-1.361-1.248-1.021-2.098c0.34-0.852-1.248-5.16-1.531-5.558c-0.284-0.397-2.836-1.418-3.006-1.701
		c-0.17-0.284-2.779-3.687-2.779-3.687l-1.985-0.057c-9.243-1.758-17.125,3.516-17.125,3.516s-1.503,1.318-3.332,2.212
		c-1.829,0.894-2.892,4.168-2.892,4.168s-2.084,4.211-2.764,5.019c-0.681,0.809-0.213,7.826-0.127,9.229
		c0.084,1.403,1.318,2.254,1.318,2.254s1.021,2.085,0.851,1.999c-0.17-0.085-0.893-0.553-1.191,0.405
		c-0.297,0.958-1.021,0.573-1.021,0.573s-1.829-1.445-1.701,0.256s-0.638,1.36-0.638,1.36s-1.149-0.255-1.233,0
		c-0.085,0.255-0.341,0.894-0.851,0.808c-0.511-0.085-1.276,0-1.404,0.426c-0.127,0.425-1.148,0.596-1.148,0.596
		c-0.51-0.043-0.978,0.426-1.106,1.403c-0.127,0.979-2.381,0.724-2.381,0.724c-1.403,0.467,0.17,1.914,0.255,1.53
		c0.085-0.383,1.063-0.085,1.659,0.426c0.596,0.511,0.383,0.936,0.383,1.19c0,0.256,0.128,1.233,0.085,1.361
		c-0.042,0.127-1.021-0.724-1.021,0.809c0,1.53,1.786,1.615,1.786,1.615c0.425,0.681,0.851,1.276,0.851,1.276l-2.807,0.766
		c0,0-1.446,1.701-2.297,1.616c-0.851-0.086-2.297,3.147-2.297,3.147l-0.907,0.822l-14.744,19.507l-8.052,1.928l-0.284,36.861
		c-2.042,4.593,13.78,85.855,13.78,85.855l17.013,4.31l5.104-2.495c0.114,0.908,0.794,5.331,0.794,5.331s0.34,3.402,0.681,3.97
		s0.681,3.176,0.114,4.31c-0.567,1.134,0,3.856,0.34,4.99c0.34,1.135,0.113,4.877,0.227,6.125c0.113,1.247-0.114,3.175-0.227,4.31
		c-0.113,1.134,0.227,2.155,0.227,2.949c0,0.793,0.454,3.516,0.454,4.536s0.567,3.402,0.567,4.424c0,1.02,0.567,3.742,0.567,4.082
		s0.766,5.614,0.766,5.614s1.446,18.289-1.021,25.859s2.807,12.419,2.977,13.439s4.168,0.766,3.232,1.446
		c-0.936,0.68-1.786,4.338-1.786,4.338c-4.764,2.893-1.021,6.55-1.021,6.55s3.487,1.106,9.186,1.021
		c5.7-0.085,6.465-3.402,7.826-3.147c1.361,0.256,4.849-0.936,4.849-0.936l0.68-2.977c0,0-0.17,1.701,2.977-3.743
		s0.766-11.313,0.766-12.504s-3.488-9.612-3.658-10.378s-2.041-9.187-1.957-11.398c0.085-2.212-1.361-8.25-1.19-10.037
		c0.17-1.786-1.531-8.846-1.531-9.527c0-0.68-0.936-3.997-0.851-4.508s-0.851-4.424-0.851-4.424s0.085-2.637,0.17-3.062
		c0.085-0.426-1.276-3.487-0.255-4.168c1.021-0.681,0.595-3.828,0.595-5.104c0-1.275-0.255-8.676-0.68-11.143
		c-0.426-2.467,0.68-16.672,0.68-16.672l7.145-3.289c0,0,1.021,0,1.134,3.912c0.113,3.913,2.325,10.548,2.325,10.548l0.567,1.985
		c-1.021,0,0.057,2.665-0.057,3.516s1.815,3.062,1.191,5.217c-0.624,2.155,0.567,3.233,0.567,3.233l0.397,3.629l1.475,1.19
		l0.34,2.495c0,0,0.397,1.247,0.17,2.042c-0.227,0.794,0.34,4.707,0.34,4.707l0.454,3.799c0,0-0.624,5.898-1.191,7.656
		c-0.567,1.757,2.098,7.371,2.098,7.371l-1.814,5.558c0,0-1.318,1.886-1.786,2.736c-0.468,0.851,1.659,5.784,2.296,9.612
		c0.638,3.827,2.254,3.615,2.552,5.699c0.298,2.084,1.149,3.955,1.149,3.955l0.042,1.19c-0.453,4.82,3.402,12.533,8.053,12.362
		c4.65-0.169,5.444-2.778,5.444-2.778s29.772-2.154,30.169-1.531c0.397,0.624,0.907,1.078,0.907,1.078l-2.042,2.892
		c-6.635,1.475-6.181,3.062-6.181,3.062l-1.021,4.025c-1.531,5.502,6.805,5.842,8.733,5.955c1.928,0.113,7.429-0.964,7.429-0.964
		l1.304,1.701c11.455-0.057,14.177-2.212,14.177-2.212l-1.078-2.552c0.737-1.134-0.397-5.841,0-6.861s-0.908-2.949-0.908-2.949
		s-0.17-3.346-0.17-3.856c0-0.51,0.114-3.572,0.114-3.572c3.119-1.758,1.701-5.047,1.701-5.047s-1.985-1.361-1.701-1.758
		c0.283-0.397-0.567-5.898-0.511-6.067c0.057-0.171,0.567-3.8,0.34-7.146s0.794-4.877,0.794-4.877l16.389,3.232l-0.454,1.248
		l-0.851,1.417l-2.325,3.062c0,0-1.645,4.933-1.815,5.671c-0.17,0.736,0.057,6.975,0.681,9.3c0.624,2.324,1.928,2.041,1.928,2.041
		l0.17,1.077l0.567,0.908l0.341,4.253l0.851,0.34l0.113,2.382l0.681,2.042c0,0-0.17,1.701-0.397,2.212s1.701,1.247,2.268,1.701
		c0.567,0.453,0.624,1.304,0.624,1.304c1.134,3.346,9.47,1.759,11.512,1.759s4.196-6.182,3.005-7.09
		c-1.191-0.906-3.856-5.67-3.856-5.67s0.057-0.396,0.51-0.738c0.454-0.34-0.284-4.025-0.284-4.025
		c2.325-0.567,1.021-3.742,1.645-3.63c0.624,0.113,2.496-1.36,3.516-2.835s-0.851-3.062-0.681-3.742
		c0.17-0.681-0.567-2.893-0.737-3.63c-0.17-0.737-0.539-7.825-0.539-7.825l0.425-3.913l2.127-4.423l1.957-6.125l1.077-8.279
		l20.642,1.871l2.722-10.661l0.099-3.219c0,0,3.36,1.616,3.19,2.638c-0.17,1.021,0.51,2.622,0.51,2.622
		c0.227,2.042,9.527,15.879,12.93,19.735c3.402,3.856,2.155,3.742,2.155,3.742c-0.908,6.691,0.227,11.001,0.227,11.001
		s3.969,1.815,3.969,2.723s2.609,4.14,2.609,4.14s-0.397,0.851-0.851,1.418c-0.454,0.566-0.341,1.531-0.341,1.531
		s1.021,0.68,1.021,1.417s0.227,2.722,0.227,3.119s-1.814,2.948-2.949,4.026c-1.134,1.077-3.799,5.444-4.423,7.031
		c-0.624,1.589,0.284,1.078,0.511,3.233c0.227,2.154,4.253,2.438,4.253,2.438c3.969-0.567,6.805-2.382,6.805-2.382l-0.17,1.871
		l-1.248,1.475c0,0-0.51,1.417-3.459,3.118s-3.459,3.856-3.516,4.026c-0.057,0.171-0.624,2.836,2.325,3.97
		c2.949,1.135,17.069-0.453,21.379-0.85c4.31-0.398,3.403-2.553,5.898-2.609c2.495-0.057,4.536-1.688,4.536-1.688
		s-0.297-1.488-0.127-1.914c0.17-0.425-0.468-3.274-0.468-3.274s-1.191-1.701-0.468-2.254s-0.68-1.105,0.425-2.765
		c1.105-1.658,1.063-5.402,1.063-5.402l-1.488-1.615l1.063-0.511c1.276-1.445,1.361-4.679,1.276-5.358
		c-0.085-0.681-2.892-8.762-2.892-8.762c2.042-2.467,3.233-28.921,3.658-30.962c0.425-2.042-0.425-4.764-0.425-4.764
		s-0.766,0.511,0.425-2.723c1.19-3.231-2.297-8.506-2.297-8.506s0.851-3.317,0.51-4.423c-0.34-1.106-0.766-4.764-0.595-5.529
		c0.17-0.766-0.511-9.356-0.511-9.356s-2.835-10.661-1.077-13.497s2.381-11.002,2.381-11.002c1.475,1.248,7.599-0.396,7.939-0.51
		c0.34-0.113,1.871-0.907,5.217-1.814c3.346-0.907,10.832-4.48,10.832-4.48s-0.907-0.453-0.567-1.758
		c0.34-1.304-1.305-3.459-1.134-4.82c0.17-1.361-0.567-2.665-0.567-2.665s-0.51,0.964-0.851,0.511
		c-0.34-0.454-1.701-0.625-1.701-0.625s-0.227-4.422-0.057-4.706s1.531-1.021,1.531-1.021l-0.737-3.176l0.227-2.495l-2.042-4.594
		l-1.276-10.377c2.467-3.232-0.17-11.144-0.17-11.144l-1.673-1.39l0.737-1.53c0,0,0.17-1.475,0.284-1.758
		c0.113-0.284,1.758-3.006,1.758-3.006c4.763-3.517,5.897-11.229,5.897-11.229l0.681-2.268c0,0,14.291-7.826,20.642-14.404
		c6.351-6.578-17.977-30.112-17.693-31.473C498.979,609.131,493.421,598.696,492.344,598.242z M225.418,620.926l-2.269,0.34
		l8.109-13.325L225.418,620.926z M293.738,591.338c0,0-0.383,2.425-0.761,2.467c-0.378,0.043-0.43,0-0.728-0.893
		S293.738,591.338,293.738,591.338z M305.774,716.422l-1.446,2.51l-7.74-28.623c0,0-3.062-14.206-3.147-14.886
		c-0.085-0.682-1.872-4.679-1.957-5.529s-1.872-6.21-1.872-6.21s-1.531-3.657-1.19-4.848c0.34-1.191-1.361-7.826-1.191-8.337
		c0.17-0.51,2.381-9.526,2.381-9.526c0.425,1.105,3.318,14.63,2.807,18.032c-0.51,3.402,2.212,12.25,2.212,12.25
		s3.232,13.609,4.083,17.353c0.851,3.742,3.657,2.722,3.913,5.104s2.042,2.467,2.126,4.253c0.085,1.786,1.191,5.699,1.276,5.955
		c0.085,0.255,0.596,3.657,0.596,4.422c0,0.766,0.596,1.191,0.425,2.34s0.425,5.656,0.425,5.656L305.774,716.422z M325.466,722.632
		l-3.317-2.169l4.466-5.529l1.318,1.106v0.553v0.553l-0.255,0.851l-0.383,0.978l-0.34,1.021l-0.34,0.724l-0.255,1.062
		L325.466,722.632z M331.548,724.205l-0.42,0.767l-0.345,0.935l-4.295-2.424l1.446-3.36l0.425-1.339l0.298-1.34l0.383-0.469
		l1.318,1.106c0,0,1.318,1.233,1.318,1.361c0,0.127,0.936,1.232,1.446,1.318c0.51,0.085-1.191,2.679-1.191,2.679L331.548,724.205z
		 M335.971,728.671l-4.125-2.296l0.51-1.234l1.106-2.041l0.553-1.659l0.425-1.147l0.681-0.213l0.213,1.36
		c0,0,0.042,1.404,0.085,1.532c0.042,0.127,0.383,1.403,0.383,1.403l0.17,1.701V728.671z M340.862,716.593
		c-0.298,0.127-0.638,2.381-0.383,2.509c0.255,0.128-0.042,1.744-0.255,2.042c-0.213,0.297-1.735,2.68-1.463,3.487
		c0.272,0.809,0.315,2.552,0.315,2.552l-1.744-0.553c0,0-0.638-1.787-0.638-2.765c0-0.979,0-2.041-0.213-2.68
		c-0.213-0.638-0.511-2.254-0.511-2.254s1.191-2.17,0.511-4.891c-0.094-0.374,1.489-0.894,1.701-1.276
		c0.213-0.383,1.446-2.084,1.446-2.084s1.063,2.808,1.233,2.892C341.032,713.657,341.16,716.465,340.862,716.593z M409.592,695.667
		c0,0,0.723-0.085,0.851,0.213s1.531,0,1.531,0l-2.381,7.528l-1.446,3.146C408.146,706.555,409.677,696.007,409.592,695.667z
		 M411.421,707.618l-1.829-1.616l1.063-2.637l1.531-4.21L411.421,707.618z M413.505,707.15l-0.723,0.468l0.723-11.568
		c0,0,1.531-0.425,1.616,0.511C415.207,697.496,413.505,707.15,413.505,707.15z M446.042,770.097
		c-0.766,0.766-0.936,3.147-0.681,3.997c0.255,0.852-3.402-5.358-4.678-6.464c-1.276-1.106-0.17-1.701-1.305-2.212
		c-1.134-0.511-1.645-2.438-1.928-3.402c-0.284-0.964,1.248-2.608-0.681-4.934s0-3.176-0.567-4.99s3.289,0.851,2.722-6.012
		c-0.567-6.861,1.078-6.351,1.304-6.464c0.227-0.113,1.39-4.396,1.39-4.396s3.487,14.461,3.317,18.459s1.021,7.996,1.106,9.697
		C446.126,765.078,446.807,769.331,446.042,770.097z M479.017,717.727c-0.454,0.511-1.304,1.247-1.304,1.645
		c0,0.396-1.701,1.645-1.645,1.871s-1.191,1.702-1.078,2.042c0.114,0.34-1.191,2.041-2.098,2.382s0.567-5.671,0.737-5.842
		c0.17-0.169,1.134-3.459,1.248-4.366c0.113-0.906,1.191-4.366,1.191-5.388c0,0,0.454,2.326,0.964,2.27
		c0.51-0.058,2.552-0.284,3.062-0.341c0.511-0.057,0.567,3.856,0.567,3.856S479.471,717.216,479.017,717.727z M493.648,638.108
		c0,0-2.354-2.722-2.552-3.062c-0.199-0.34-0.028-2.183,0-2.438c0.028-0.255,0.227-0.878,0.227-0.878
		c1.616,0.197,3.459,4.479,3.459,4.479L493.648,638.108z"/>
</g>
<g>
	<circle fill="#FF5A5A" cx="703.148" cy="352.985" r="100.037"/>
	<path fill="#333436" d="M650.333,493.133c0,0,3.746-1.873,1.098-4.391c-2.647-2.518-6.65-3.357-6.65-3.357s8.071-0.968,8.652-2.195
		c0.581-1.227,3.357-3.615-5.811-5.359l-5.359-1.227l-3.616-2.26l-1.356-0.775l-0.84-1.033l-1.356-0.388l-0.646-1.937l-3.035-2.454
		l-0.258-2.001c0,0,2.002-1.808,1.679-2.97c-0.323-1.163-1.421-2.066-1.421-2.066l2.906-3.616l0.258-4.649l11.966-22.297
		c0,0,1.549-2.152,1.722-3.96c0.172-1.808,3.099-3.358,3.271-3.96c0.172-0.603,3.271-3.186,3.788-5.51
		c0.517-2.325,3.788-12.569,3.788-12.569l-3.443-37.104c0,0,3.185,7.317,6.026,9.986s8.523,16.615,8.523,16.615v4.735
		c0,0-0.689,1.894-0.431,2.325c0.258,0.43-0.086,4.993-0.086,4.993l-0.452,3.745c0,0-0.258,1.42-0.194,1.808
		c0.065,0.387,0.065,2.454,0.065,2.906c0,0.451,0.064,2.905,0.064,2.905s-1.033,4.649-1.098,5.037
		c-0.064,0.388-3.551,18.724,0.323,30.605c0,0-0.99,3.616-1.076,4.218s-1.937,2.368-1.937,2.755s0.817,4.046,1.334,4.132
		c0.517,0.086-1.593,2.626,0.129,4.132l0.215,2.109c0,0-1.765,3.185-1.808,3.529s0.473,1.636,0.473,1.636s-1.291,2.927-1.119,3.185
		c0.172,0.258,0.516,0.861,0.516,0.861l-1.593,6.156c0,0-1.205,2.281,2.454,3.486c3.659,1.206,31.271,4.541,34.113,1.377
		c0,0,3.808-1.356,1.097-3.616c0,0,2.065-0.774,2.324-1.162c0.258-0.387-0.323,2.324,0,2.905c0,0-0.064,2.066,4.391,2.583
		c4.455,0.516,12.01,3.422,12.01,3.422s11.687,0.775,13.3-2.26l0.453-1.485c0,0,2.388-1.614,2.388-4.067
		c0,0,3.229-1.033,4.004-0.969s11.493-0.129,11.493-0.129s-1.68,4.003-1.743,4.648c-0.064,0.646-2.712,2.002-2.519,3.422
		c0.193,1.421-1.033,3.681,3.357,4.648c4.391,0.969,10.977,0.195,11.429,0c0.451-0.193,2.841-2.001,2.97-2.904
		c0.13-0.904,2.906-3.164,2.906-3.164s-0.388-6.844-0.904-7.877s2.26-0.516,2.26-0.516v-3.1l0.322-3.099l1.485-2.389l0.388-3.68
		c0,0,2.518-23.869,2.174-26.537c-0.344-2.669,0.064-3.788,0.032-4.649s-0.549-2.238-0.549-2.755s0.603-3.357,0.173-4.046
		c-0.431-0.688-0.518-4.993-0.431-6.543c0.085-1.549-0.689-3.874-0.689-3.874s0.258-4.39-0.086-5.337
		c-0.345-0.947,0.086-3.443-0.087-4.132c-0.172-0.688-0.258-7.231-0.516-8.092s0.172-7.146,0-8.523
		c-0.173-1.377,0.774-9.211,0.774-10.331c0-1.12,1.412,2.927,1.412,2.927l2.29-0.947c0,0-0.431-5.08,0-7.06
		s-1.205-13.602-1.205-13.602l9.75,0.258l17.627-5.101l-5.769-19.521l-14.032-34.436l-3.186,0.947c0,0-4.734-0.431-7.06-0.086
		s-2.325-0.688-2.325-0.688l-1.376-0.603c0,0-4.735-3.53-6.026-4.219c0,0-2.228-1.958-2.874-1.926
		c-0.646,0.032-2.033-0.807-2.421-0.646c-0.388,0.162-1.065,1.228-1.324,1.324c-0.258,0.097-0.839-2.421-0.839-2.421
		s2.486-0.484,2.486-3.325s-0.582-4.197-0.775-5.101c-0.193-0.904,0.452-4.714-0.452-7.361c-0.903-2.647-2.712-3.164-3.034-3.874
		c-0.323-0.71-4.391-3.229-5.23-5.166c-0.839-1.937-1.808-2.712-1.808-2.712l-1.873,1.033c0,0-4.261,0.968-4.325,1.292
		c-0.064,0.323-2.647,1.549-2.647,1.549s-1.55,1.614-2.777,1.227c-1.227-0.387-3.68,5.359-3.614,5.553
		c0.063,0.193,0.322,1.162,0.322,1.162l-0.969,2.002l-0.129,2.582l0.517,2.389l0.71,3.164c0,0-0.581,6.457,2.518,7.749
		c2.484,1.035,2.562,0.536,2.495,0.297c-0.025-0.064-0.041-0.103-0.041-0.103s0.025,0.044,0.041,0.103
		c0.357,0.885,3.021,7.481,3.381,7.903c0.388,0.452-3.486,4.197-3.486,4.197l-1.098,0.968l-0.258,2.97c0,0-3.681,3.164-3.681,3.68
		s-0.646-4.067-6.586-7.231c0,0-1.033-2.454,1.033-5.94c2.065-3.487,1.872-12.268,1.485-13.236c0,0,0.742-1.711,0.742-2.454
		c0-0.743,0.872-5.166,0.194-5.908c-0.679-0.742-1.066-4.358-1.023-5.09c0.044-0.732-1.248-4.907-1.592-5.553
		c-0.345-0.646-2.842-13.215-15.174-5.338c0,0-7.038,1.033-7.684,14.979c0,0-2.001,0.84-0.646,5.359
		c1.356,4.52,3.293,3.293,3.293,3.293s1.485,4.649,1.808,5.036c0.322,0.388,0.064,3.681-0.451,3.874
		c-0.518,0.194-3.939-1.549-5.424-1.098c-1.485,0.452-4.003,2.26-4.003,2.26s-4.971,5.23-5.682,5.617
		c-0.71,0.388,0.71-9.556,0.968-10.977c0.258-1.42,0.775-6.457-3.809-10.589c-4.584-4.132-9.75-11.234-10.137-12.268
		s2.604-8.2,2.69-8.544c0.086-0.345,6.284,0.947,6.284,0.947l28.581-1.808l-0.258-5.768l9.643-1.98l9.469-5.596l-13.859-49.889
		l-12.074,4.197l-4.907,0.646l-3.745-6.263c0,0,0.193-3.422-0.775-4.907c-0.968-1.485-1.55-2.776-2.066-5.94
		c-0.517-3.164-2.26,0.71-2.26,0.71l-4.132,3.229c0,0-1.098,0.258-0.969,1.033c0.129,0.775-1.873,0.904-1.55,2.131
		c0.323,1.227-0.968,1.227-0.646,2.259c0.323,1.033-0.387,1.098-0.194,1.873c0.194,0.775,2.195,4.714,2.195,4.714l-0.904,4.391
		l-9.362,0.129v1.679l-6.974,1.744l3.357,15.883l-1.033,20.209c0,0-2.26,6.392-3.229,6.909c-0.969,0.517,1.162-5.617,1.162-5.617
		l1.291-6.328l0.258-5.424c0,0-0.323-4.778-2.454-5.94c-2.13-1.162-2.454-2.195-2.97-2.454c-0.517-0.258-3.487-3.681-7.167-3.81
		s-6.65,0.194-7.49,0.775c-0.84,0.581-1.614,0.452-1.614,0.452l-1.098-0.194c0,0,0.904-3.681,0.839-5.876
		c-0.065-2.195,1.808-0.258,2.001-5.94c0,0,1.485-8.006,0.582-10.653c-0.904-2.647-0.904-2.647-0.904-2.647
		s-0.323-4.197-0.581-5.553c-0.258-1.356-2.195-3.81-6.457-4.972c-4.262-1.162-10.589-1.743-11.299-1.227
		c-0.71,0.517-5.424-0.194-6.521,4.455c0,0-2.195,2.519-2.776,4.262s-3.035,8.264-2.647,10.137c0.388,1.873-1.614,3.616,1.356,9.427
		c0,0,1.098,1.55-0.387,2.001c-1.485,0.452,2.776,1.228,1.743,4.327l-2.259,1.355c0,0-2.26-2.97-9.104,1.098v-2.519l-6.457,4.907
		l-3.68-6.069l-26.752,15.496l-23.159,12.311c0,0,8.351,20.575,14.205,22.383c0,0,3.616-1.894,4.218-2.497
		c0.603-0.603-3.185,13.43-3.185,13.43l17.907,9.126l4.477-5.94l8.179-14.377c0,0,1.635,7.834,2.152,8.523
		c0.516,0.688,1.291,25.655,1.98,27.204c0.688,1.55,0.603,3.788,0.516,4.563c-0.086,0.775,0.029,3.874,0.058,4.218
		s-0.66,2.755-0.66,2.755s-2.238,6.198-2.238,6.973s-3.413,10.675,2.899,20.317c0,0,1.836,7.231,2.438,7.748
		s1.033,1.119,1.033,1.119s-1.377,7.834,0.431,11.192c1.808,3.357,1.463,6.715,1.463,7.231c0,0.517,1.119,9.04,1.549,9.986
		c0.431,0.947-3.185,8.609-2.583,11.192c0.603,2.583,0,8.437,0,8.867c0,0.43-0.086,2.755-0.086,2.755s0.086,3.013-0.258,3.271
		c-0.344,0.258-0.517,2.41-0.517,3.185s-0.603,2.755-0.517,3.788s1.636,34.608,3.616,38.74c0,0-2.668,4.477-1.636,5.94
		c1.033,1.464,0.517,1.722,0.517,1.722s-2.583,2.669-2.497,3.271c0.086,0.603,0.474,1.636,0.474,1.636s-1.549,6.414-0.861,7.92
		c0.689,1.507,0.818,0.818,0.861,1.076s0.129,2.368,0.129,2.368l1.722,0.688l1.671,3.831c0,0-1.22,1.098,8.465,2.131
		C630.898,492.938,643.941,497.781,650.333,493.133z M755.952,460.115c0.431-4.281,0.361-24.388,0.013-25.61
		c-0.388-1.356,0-7.555,0-7.555c0.903,1.938,1.097,6.845,1.097,6.845s-0.322,6.457-0.257,7.037c0.063,0.582,2.194,3.81,2.194,3.81
		C759.623,450.263,756.769,457.683,755.952,460.115c-0.047,0.468-0.1,0.753-0.159,0.798
		C755.676,461.001,755.756,460.701,755.952,460.115z M739.307,472.686c-0.346,0.129-1.593-0.861-1.593-0.861
		C738.059,471.438,739.65,472.557,739.307,472.686z M719.161,469.437c0.322-0.194,0.516-3.681,0.516-3.681s1.551-2.195,1.744-3.099
		c0.194-0.904-1.355-4.455-1.355-4.455l5.488-18.66c0,0,0.388-1.808,0.388-3.099s1.872-2.841,1.937-3.68s-0.969-3.229-0.969-3.229
		l1.228-3.616l-1.228-1.033c0,0,0.581-2.26,0.839-3.035c0.259-0.775-0.774-2.776-0.774-2.776c1.163-5.294,0.323-23.825,0.323-23.825
		s-0.345-1.679-0.129-2.368c0.215-0.688-0.861-2.54-0.861-2.54l0.215-1.937c0.861-2.97-0.473-3.357-0.473-3.357
		s-0.302-2.669,0.042-4.132c0.345-1.464,0.044-3.573,0.044-3.573s0.387-0.366,0.646-1.27c0.258-0.904,2.066-13.817,2.066-13.817
		h2.712c0,0,1.678,0.904,1.549,1.098c-0.129,0.193-0.968,4.778-1.033,5.811c-0.064,1.033-0.172,20.403-0.172,20.403
		s0.731-0.387,0.72,0.215c-0.013,0.603,1.648,8.179,1.905,11.923c0.259,3.745,2.261,12.397,2.261,12.397l1.614,6.909
		c0,0,0.258,4.068,0.322,4.713c0.064,0.646,1.809,2.841,1.809,2.841s1.097,1.033-0.13,2.228c-1.227,1.195-0.903,7.716-0.516,12.3
		c0.387,4.584,0.538,20.124,0.538,20.124s2.496,2.195,2.238,3.229c-0.259,1.033-2.066,2.066-2.54,2.669
		c-0.474,0.602,0,2.711,0,2.711s-1.593-1.464-3.271-1.076c-1.679,0.387,0.517,2.712,0,2.625c-0.517-0.086-7.404,3.702-7.404,3.702
		h-2.496l-4.391-3.702c-0.215-3.164-2.948-2.841-2.948-2.841S718.839,469.63,719.161,469.437z M707.087,439.477
		c0.775-1.098,0.84-3.293,0.259-4.326c-0.581-1.033,0-1.938,0-1.938c1.227-1.679,0.839-3.551,1.032-4.003
		c0.194-0.452,1.033-2.841,1.227-4.197c0.194-1.356,0.065-3.874,0-4.197c-0.064-0.323,0-2.195,0-3.1
		c0-0.904-1.549-2.776-1.549-2.776l1.098-4.197l1.355,2.712l0.064,1.743l0.194,5.166l1.421,3.099c0,0,0.645,2.324,0.193,3.164
		c-0.452,0.84,0.129,1.744,0.129,1.744s0.646,0.646-0.322,0.775c-0.969,0.129,0.258,1.646,0.258,1.646s0.258,1.195-0.258,1.324
		c-0.518,0.129-1.228,4.778-1.228,5.553c0,0.775-0.774,3.164-0.774,3.164l-1.913,10.008c0,0-0.541-0.968-0.411-1.614
		c0.129-0.646-0.259-5.294-0.259-5.294S706.312,440.575,707.087,439.477z M683.649,465.541c2.927-4.132-0.688-7.834,0-9.384
		c0.689-1.55,6.026-18.337,6.629-20.231c0.603-1.894,1.463-4.735,1.808-5.337c0.344-0.603,0.344-1.292,0.344-1.722
		c0-0.43,0.603-1.377,0.603-1.377s0.538,2.625,0.307,2.884s-0.479,1.7-0.437,2.023s0.043,1.463,0.043,1.463
		c-1.463,8.954,4.993,29.013,4.993,29.013l0.474,4.261l-0.344,4.477l2.41,2.238c0,0-0.517,2.325,0.474,3.358
		c0.815,0.852,1.777,3.396,2.089,4.095c0.062,0.062,0.105,0.121,0.105,0.166c0,0.053-0.039-0.017-0.105-0.166
		c-0.347-0.353-1.487-0.91-1.487-0.91l-4.088-0.387l-0.689-0.775l-1.119-0.388l-0.818-0.43l-1.292-0.388l-0.99-0.731h-0.603
		l-1.033-0.689l-1.162-0.474l-1.249-0.43l-0.947-0.775c0,0-1.938-1.162-1.852-1.765c0.086-0.603,3.96,0.774,3.96,0.774
		s3.616,0.474,1.206-2.109c-2.411-2.583-6.543,0-6.543,0s-0.517-1.033-0.778-1.377c-0.262-0.344,1.38-2.583,1.38-2.583
		L683.649,465.541z M687.093,471.998c0,0,2.281-0.947,2.97,0.603C690.063,472.6,688.212,472.643,687.093,471.998z M698.694,208.068
		l0.839-2.002c0.516,0.452,1.485,2.97,1.485,2.97v2.131h-1.485l-0.839-1.098V208.068z M653.625,264.403
		c3.487,2.809-0.355,5.875-0.258,5.714c0.097-0.161-0.291-2.583-0.258-2.711C653.141,267.276,653.625,264.403,653.625,264.403z
		 M649.752,333.716c-0.129-0.323,0.452-1.485,0.452-1.808c0-0.323-0.387-1.808-0.387-2.389c0-0.582,0.129-2.776,0.129-2.776
		s7.941,0.581,8.652,0c0.71-0.582,1.033,3.099,1.033,3.099s-1.033,1.872-1.033,2.454c0,0.581-1.227,3.292-1.098,3.81
		c0.129,0.516-1.873,3.68-1.744,4.261c0.129,0.581-1.098,4.584-0.968,5.23c0.129,0.646-0.452,3.487-0.517,4.713
		c-0.065,1.227-1.162,4.197-1.162,4.197s-0.517-6.65-0.839-7.941c-0.323-1.292-2.001-5.422-2.647-5.972
		c-0.646-0.55,1.098-3.972,1.162-4.488C650.85,335.588,649.881,334.039,649.752,333.716z M644.264,241.535
		c-0.258,0.473,0,4.692,0,4.692l-1.636-1.42L644.264,241.535z"/>
	<path fill="#333436" d="M653.368,270.117c-0.097,0.162,3.745-2.905,0.258-5.714c0,0-0.484,2.873-0.516,3.002
		C653.077,267.534,653.464,269.956,653.368,270.117z"/>
	<path fill="#333436" d="M644.264,241.535l-1.636,3.271l1.636,1.42C644.264,246.227,644.005,242.008,644.264,241.535z"/>
	<path fill="#333436" d="M701.019,211.167v-2.131c0,0-0.969-2.518-1.485-2.97l-0.839,2.002v2.001l0.839,1.098H701.019z"/>
</g>
<g>
	<circle fill="#FF5A5A" cx="1047.148" cy="352.985" r="100.037"/>
	<path fill="#333436" d="M907.891,475.242l4.896,1.008l8.498,4.177h7.49l5.329,1.584c0,0,1.151,2.641,1.248,3.601
		c0.096,0.96,1.633,9.122,1.92,9.986c0.288,0.864,0.864,1.728,1.345,1.728c0.479,0-0.192,6.146,0,6.914
		c0.191,0.768-0.961,8.738,10.754,8.738c0,0,10.274-0.289,7.97-6.146c-2.304-5.857-2.304-5.857-2.304-5.857
		s-0.913-4.345-0.697-5.281s2.809-5.185,2.953-5.401c0.144-0.216-0.24-2.089-0.336-5.737c-0.096-3.649,0.096-9.218,0.096-9.218
		l3.12-16.228c0,0-1.2-10.083-0.719-14.115c0.479-4.033-1.729-7.489-1.729-7.489s-0.096-6.818-0.192-7.105
		c-0.096-0.289,0.192-4.801,0.192-4.801l1.633-10.851c0,0,0.672-3.168,0.384-4.225c-0.287-1.056,4.129-21.125,4.129-21.125
		s1.633,16.996,1.536,18.148c-0.096,1.152-0.471,12.291,0.005,13.923s0,4.609,0,4.609s-1.061,13.539-0.389,15.939
		s-0.192,16.419-0.192,16.419l-0.479,10.85c0,0-1.537,8.546-1.057,9.218c0.48,0.672,1.248,1.632,1.248,1.632l0.385,4.705
		c0,0,6.48,1.776,8.978,1.681c2.497-0.096,4.177-1.249,4.177-1.249s13.059,4.657,19.541,3.865c6.481-0.792,8.497-5.329,8.497-5.329
		s1.656-2.521-7.633-1.873c0,0-4.754-2.304-6.626-2.376c-1.872-0.072-2.521-2.016-2.521-2.016l-1.8-1.584l-3.386-6.841l1.297-17.932
		c0,0,2.305-14.619,2.521-15.915c0.216-1.296-0.72-6.193-0.792-6.698s-1.009-1.44-1.009-1.44l0.792-3.528
		c0,0,1.488-6.842,0.721-9.722c-0.769-2.881-0.769-12.483,1.248-15.268s1.633-7.105,1.633-7.105s5.089-4.321,5.568-5.377
		c0.48-1.056,2.689-1.44,2.689-1.44l2.304-1.536c0,0,0.48,5.953,0.769,6.913c0.288,0.96,1.632,8.45,1.824,8.738
		c0.191,0.288-0.192,8.065-0.384,9.41c-0.192,1.345-1.249,5.474-0.48,6.434c0.768,0.96-0.384,7.009,0.288,8.45
		s0.576,7.874,0.576,7.874l-3.073,9.506l2.018,1.92l1.44-3.553l0.479,8.162c0,0,1.345,6.385,2.449,7.922
		c1.104,1.536,2.352,11.234,2.352,11.234s-0.12,4.897,0,5.185c0.12,0.288,1.057,2.448,1.057,2.448l0.576,4.105
		c0,0,1.296,5.185,1.872,5.833c0.576,0.648-2.521,5.473-2.521,6.193c0,0.721-1.152,4.393,5.042,5.257
		c6.192,0.864,7.776-5.401,7.776-5.401l0.36-3.601l2.448-2.953l1.152,4.897c0,0,0.433,4.754,0.721,4.969
		c0.288,0.217,2.088,3.745,2.088,3.745s-5.401,10.73,4.105,10.946c0,0,8.785,0.648,6.77-7.273c-2.018-7.922-1.297-5.473-1.225-5.689
		c0.072-0.216,3.817-1.512,3.817-1.512l1.296-6.626c0,0,0.192-15.771,0-18.94c-0.192-3.169-1.248-15.267-0.96-17.476
		c0.287-2.208,0.191-12.675,0.191-12.675l2.209,2.017c0,0,1.056,10.754,1.344,13.155s1.825,25.925,2.209,29.19
		c0.384,3.265,0.672,9.89,3.553,11.523c2.881,1.632,2.784,4.129,2.784,4.129l2.4,2.4c0,0,5.474,5.281,12.291,4.129
		s3.745-6.626,3.745-6.626s-2.785-4.513-3.841-5.185c-1.057-0.672-0.097-2.017-0.097-2.017l0.865-2.304l-3.842-4.993l0.479-2.593
		l0.769-2.017c0,0,0.097-2.304-0.287-4.225c-0.385-1.921-0.577-3.073-0.577-3.073l0.577-2.977c0,0,5.99-12.194,6.644-14.499
		c0.653-2.305,0.653-6.433,0.653-6.433l3.36-5.954l0.481-3.553c0,0,1.055-3.169,1.055-3.457c0-0.288-0.768-12.098,0-14.115
		c0.769-2.017,1.153-8.258,0.865-9.89s0.479-11.042,0.479-11.042s0.48-5.281,0-5.953c-0.479-0.672-0.672-10.082-0.672-10.082
		s3.745,6.817,12.387,7.009s9.313-0.864,9.313-0.864l2.593,2.4c0,0,1.921,6.53,2.977,8.066c1.057,1.537,1.152,7.97,1.345,8.738
		c0.191,0.768,1.439,11.522,1.536,11.811c0.096,0.289,0.576,47.05,2.977,51.659c2.4,4.609-0.576,15.843,3.457,21.22l1.536,1.345
		c0,0,0.096,8.259,8.93,9.507s8.065-3.842,6.241-6.818c-1.823-2.977-0.384-4.512-0.384-4.512s5.185,0.096,5.185-3.074
		c0-3.168,0.865-2.785-1.632-6.721c-2.497-3.937,2.016-10.274,2.593-11.811c0.575-1.537,0.96-4.897,0-6.625
		c-0.961-1.728-0.769-3.361-0.769-3.361l6.529,2.305l-1.632,12.483l15.459,4.225l4.417-2.4l16.899-0.096l14.403-19.108
		l-19.107-63.085l-7.202,3.241l-2.736-7.85c0,0,2.064-4.706,1.488-10.946c-0.577-6.241-0.577-6.241-0.577-6.241
		s0.577-4.129,0.577-5.089s1.248-25.734-0.192-33.223c-1.439-7.49-0.864-9.89-0.864-9.89s3.554-25.349-0.096-32.839
		s-8.737-6.817-12.771-7.298c0,0-1.44-2.208-2.209-3.553c-0.768-1.344,0.096-3.841,0.096-3.841s3.457-14.403-3.456-26.117
		c-6.914-11.715-13.443-8.354-13.443-8.354s-13.442,0.48-17.763,10.946c0,0-0.385,4.417,0.671,5.857
		c1.057,1.44-3.456,10.946,0.961,13.539l1.92,1.825c0,0,1.44-0.096,1.536,0.48s0.288,1.824,0.096,2.497
		c-0.191,0.672-3.168,2.592-3.168,2.592s-2.209,2.497-1.824,3.649c0.384,1.152-5.186,1.537-5.762,1.632
		c-0.576,0.096-11.426,5.473-11.426,14.787s0.096,27.078-0.673,29.767s-2.305,25.253-0.769,28.326l-0.096,5.954
		c0,0,0.096,6.049,0.385,6.721c0.288,0.672,0.863,9.698,0.863,9.698s-6.913-1.824-8.737-2.305c-1.824-0.48-2.593-7.394-2.593-8.258
		c0-0.864,2.977-1.92,2.977-1.92s-3.744-16.131-4.992-16.227l-11.812-6.529c0,0-0.863-1.153-1.824-1.345
		c-0.96-0.192-0.575-4.225-0.575-4.225s3.744-2.208,4.608-6.53c0.864-4.321,4.705-4.801,1.92-12.771
		c-2.784-7.97-12.099-14.115-24.196-5.281c0,0-5.186,3.745-5.281,10.85c0,0,0.576,1.344,1.439,1.344c0,0-0.191,9.122,0.77,11.186
		c0.959,2.064,3.072,4.561,3.12,5.041c0.048,0.48-8.594,4.177-9.387,5.186c-0.791,1.008-7.705,16.347-7.705,16.347
		s-4.897-3.457-10.082-4.033c-5.186-0.576,4.032-0.576,4.104-4.321v-2.305c0,0,1.225-0.864,0.145-1.08s-1.08-1.08-1.009-1.729
		c0.072-0.648,1.369-1.44,1.44-1.729c0.072-0.288,0.072-2.376,0.072-2.376s1.656-1.369-0.648-3.313s-1.801-1.728-1.944-2.161
		c-0.144-0.432-0.144-1.656-0.144-1.656s2.016-5.689-1.656-7.417c-3.674-1.728-10.082-6.553-21.894-0.576
		c0,0-1.848-30.606-5.497-43.761l-2.112-13.347c0,0-1.632-6.818-12.387-10.466c-10.754-3.649-8.93-3.841-8.93-3.841l-3.648-4.608
		c0,0,3.552-1.152,3.552-2.401c0-1.248-0.191-3.457-0.191-3.457s0.864-1.44,0.864-2.208s0.961-2.4,0.961-2.4l2.207-3.361
		c0,0,2.018-0.192,0.481-5.377l0.959-2.688c0,0,0.385-6.241-0.096-7.97c-0.479-1.728,1.057-2.208,1.057-2.208
		s0.384-7.585-12.195-11.138c0,0-3.168-0.48-3.264-0.864c-0.096-0.384-4.513-0.672-4.513-0.672s-20.693,0.432-11.187,28.806
		c0,0,1.584,9.938-1.152,11.955l-2.545,0.816l-4.033,7.49c0,0-19.492,9.266-22.948,18.196c-3.458,8.93-3.169,57.756-2.737,59.917
		c0,0,0.145,3.889,0.576,4.321c0.433,0.432-4.608,8.065-4.177,10.802c0.433,2.736,5.329,10.802,6.481,11.667
		s0.288,9.074,0.288,9.074s-0.864,6.481-0.864,7.345s2.881,3.745,2.881,3.745l-7.058,10.37l-6.553-1.44l-2.161,3.961l-4.969-1.152
		l-27.223,63.589l29.526,12.963H907.891z M1164.361,391.8l2.305,9.026l-2.305,1.344V391.8z M1156.968,320.841
		c0,0,1.393,15.411,1.168,20.524c-0.224,5.113,1.16,12.458,1.16,12.458s-0.145,2.017,1.729,10.226
		c1.872,8.21-2.041,10.658-2.041,10.658c0.433-0.48-0.812-12.674-0.812-12.674s-0.052-2.208-0.003-2.449
		c0.048-0.24-0.576-3.649-0.576-3.649s-0.492-1.716,0.048-2.688s-0.145-1.836-0.496-2.196c-0.353-0.36-0.08-1.369-0.008-2.484
		c0.072-1.117-0.36-1.729-0.36-1.729s-0.288-2.376-0.288-2.701s-0.864-2.749-0.864-2.749
		C1153.031,335.34,1156.968,320.841,1156.968,320.841z M1155.84,389.976c0.287-0.72,1.711-1.008,2.296-2.161
		c0.584-1.152,1.304-4.825,1.304-4.825l1.081,1.8l-0.54,2.089l-0.541,3.601l-4.7,14.763l-5.525,1.656
		C1149.214,406.899,1155.552,390.696,1155.84,389.976z M1120.096,283.345c0.24,0,3.601-1.776,3.601-1.776l-4.32,3.697
		C1119.376,285.266,1119.855,283.345,1120.096,283.345z M1111.982,323.194c0,0,1.344,4.128,0.863,5.233
		c-0.479,1.104-0.288,6.914-0.479,7.202c-0.192,0.288-2.305,4.033-2.4,3.504C1109.869,338.605,1111.982,323.194,1111.982,323.194z
		 M993.492,363.522c0.049-2.545,3.457-6.193,3.457-6.193l5.714-3.397c0,0.108,2.664,5.473,5.726,6.445c0,0-3.962,2.701-5.149,2.521
		c-1.188-0.18-6.338,2.305-6.962,4.705s-4.272,6.818-4.272,6.818S993.444,366.067,993.492,363.522z M934.896,386.375
		c0,0-0.936,0.864-1.224-0.36c-0.288-1.225,1.224-2.953,1.224-2.953V386.375z M932.952,362.898c0.191-0.768,0.768-4.129,1.536-5.761
		c0.768-1.632-1.057-4.993-1.057-4.993l3.072-9.41l1.572-10.077l0.061-0.39l2.305,3.361c0,0-0.768,2.688-1.44,4.705
		c-0.672,2.017-0.864,4.897-0.864,4.897v8.546l-1.248,5.089l-1.349,4.705l1.156,2.977l-1.151,7.298
		C935.545,373.845,932.76,363.666,932.952,362.898z M933.96,391.344l0.936,11.378l-1.953-0.864L933.96,391.344z M926.902,389.472
		l1.44,10.01l-0.648,1.368l-3.816-1.08L926.902,389.472z"/>
</g>
<g>
	<circle fill="#FF5A5A" cx="1047.148" cy="706.555" r="100.037"/>
	<path fill="#333436" d="M1195.758,732.023c0.805,0.302,3.418-3.217,3.418-3.217l-0.904-2.212v-1.307c0,0-3.82-12.466-6.583-17.393
		c-2.763-4.926-7.19-4.624-8.095-6.434c-0.905-1.81-0.302-2.614-0.302-2.614c2.413-1.407,3.82-7.64,6.032-12.164
		c2.211-4.523,1.005-12.265,0.904-13.17c-0.101-0.904,2.212-1.709,1.206-2.01c-1.005-0.302-1.81,0.401-1.709-0.503
		c0.101-0.905,0-2.614,0-2.614l-2.312,1.006l-1.91-2.514c-19.403-11.461-25.971-0.535-26.842,1.407
		c-0.871,1.944-1.341,7.373-1.341,7.373s0,0-2.212,1.407s-0.805,2.748-0.805,2.748s0,1.81-0.201,1.876
		c-0.201,0.067-0.201,0.938-0.201,1.207c0,0.268,0.27,1.474,0,1.542c-0.268,0.066-0.2,1.474-0.2,1.474l-0.269,2.077
		c0,0-0.401,2.212,0.537,3.553c0.938,1.341,6.366,2.413,6.366,2.413c-1.608,0.268-3.753,5.361-3.753,5.361l-9.785,2.413
		l-9.919,13.94l-2.145,2.814l1.474,2.278l-3.887,5.228c0,0-7.238-3.082-7.774-4.021s-6.702-5.361-6.702-5.361
		c0.938-2.682-1.475-19.839-1.475-19.839v-4.289l-1.072-3.888c0,0-2.011-1.742-1.322-6.165c0.688-4.424-0.822-23.458-0.822-23.458
		s0.67-24.396,0.805-26.809c0.134-2.412-0.402-15.816-4.692-20.91c-4.289-5.094-9.784-2.145-8.712-3.485
		c1.072-1.34,0.536-7.238,0.536-7.238l4.323,4.805c-2.042-2.683-2.045-8.691-2.045-8.691s2.278-1.743-2.814-15.281
		c-5.094-13.538-17.962-16.487-24.396-14.342c-6.435,2.144-8.981,11.393-9.785,12.733c-0.805,1.341-1.608,16.085-4.826,20.24
		c-3.217,4.155-2.547,12.868-2.547,12.868s-8.578,2.145-11.527,6.032c-2.949,3.887-2.011,28.886-2.011,28.886
		s-2.312-9.651-2.312-9.953s-0.604-5.127-0.604-5.127l-4.726-9.752c-1.407-10.857-5.729-19.604-9.449-22.72
		s-31.769-11.862-31.769-11.862c-3.116-3.017-2.412-8.043-2.412-8.043c4.021-12.466-0.805-16.286-0.905-17.593
		s-6.232-6.736-10.757-8.144c-4.523-1.407-11.661,1.407-11.661,1.407c-9.148,5.529-10.154,14.678-10.154,14.678
		s1.24,3.117,0.637,4.592c-0.603,1.475-1.005,6.903,0.938,8.444s1.742,2.849,1.843,3.753c0.101,0.905,1.608,3.82,1.608,3.82
		s-0.101,0.503,0.201,2.514c0.302,2.01,1.207,3.116,1.207,3.116s-10.154,5.831-15.784,9.651c-5.629,3.819-5.529,30.762-5.529,30.762
		l-0.603,5.027l2.011,2.111c0,0,0.904,4.624-0.805,11.058c-1.709,6.435-2.011,15.482-2.011,15.482
		c-1.81,3.116,0.302,27.244,0.905,30.193c0.603,2.949,0.402,12.23,0.402,12.23c0-1.105-3.117-1.407-3.117-1.407
		s-2.111-0.604-3.418-3.619s-5.831-5.429-5.831-5.429c-9.349-0.503-13.672,3.016-15.481,3.619s-5.026,1.005-5.932,1.81
		c-0.904,0.805-2.011,2.345-2.011,2.345s0.201,2.279-2.011,6.301c-2.211,4.021-1.105,9.148-0.703,15.684
		c0.402,6.534,0,10.153,0,10.153c-7.238,3.217-19.201,17.359-21.413,20.643c-2.212,3.284-1.508,13.538-1.508,13.538
		c-2.347,3.284-0.402,5.663-0.402,5.663s1.14-0.938,1.341-0.502c0.201,0.436,1.493,2.58,1.493,2.58
		c-0.283,2.412,1.087,7.64,2.494,14.979s0.737,18.029,0.737,18.029l-4.491,7.238c0,0,1.81-0.268,1.26,0
		c-0.551,0.268-3.94,13.271-4.074,15.75s-4.424,11.796-4.893,12.533c-0.469,0.736-3.619,1.005-3.619,1.005l0.336,1.943l1.407,0.47
		c0,0-2.48,1.675-3.016,4.825c-0.537,3.149,1.34,4.155,1.34,4.155s4.893-1.139,8.578,0.201c3.687,1.341,15.75,0.938,16.823,0.804
		c1.071-0.134,1.071-2.948,1.071-2.948c0.101-1.221-4.021-2.38-4.021-2.982c0-0.604-3.82-3.52-3.82-3.52s-1.709-1.909-1.608-2.412
		s-0.704-3.418-0.704-3.418c-0.201-5.328,8.144-23.424,8.144-23.424l2.513-1.106l4.021,0.402l1.105-4.423l1.709,3.317l1.81,0.201
		c0,0,0.201,5.528,1.609,10.656c1.407,5.127-1.006,13.37-1.709,13.169c-0.704-0.201-1.609,3.519-1.811,5.128
		c-0.2,1.608,3.72,3.116,5.529,2.915s3.82,0.904,3.82,0.904c1.508,2.916,11.461,4.424,13.371,2.815s-0.604-5.429-0.704-6.233
		c-0.101-0.804-2.915-3.217-2.915-3.217s-3.418-4.021-3.519-4.825c-0.101-0.805-2.514-3.217-2.514-3.217l-0.502-1.71l0.436-8.778
		l0.535-11.26l0.135-1.877c0,0-1.341-12.868-0.67-14.745c0.67-1.876-1.14-7.07-1.14-7.07c1.105-1.508-1.206-6.133-0.604-7.037
		c0.604-0.905-1.206-5.73-0.703-6.938c0.502-1.206-0.503-2.312-0.503-2.312l-0.905-4.424l-0.401-3.82
		c5.328-2.211,21.212-22.519,21.212-22.519s13.069-14.275,13.471-14.175c0.402,0.101,2.514-0.101,2.514-0.101
		s0.402-0.503,2.614-0.704c2.211-0.201,3.92-2.312,3.92-2.312c1.006,0,1.006-1.909,1.006-1.909s-1.206-2.413-0.805-8.848
		c0.402-6.434-4.825-9.952-4.926-10.958c-0.101-1.005-1.105-10.254,0.805-17.794c1.909-7.539,4.624-23.122,4.624-23.625
		c0-0.502,0.704-7.539,0-9.248s1.508-17.191,1.608-16.688s2.212,4.423,2.413,6.232s0.703,13.271,0.703,13.271
		c-1.91,5.228-1.307,14.577-1.307,14.577c-2.212,5.026-1.81,14.376-1.81,14.376c-0.704,0.201-1.508,5.026-1.508,5.026
		c-2.614,8.345,3.686,46.278,3.82,47.619c0.134,1.34,2.814,25.065,2.814,25.065l-0.134,2.279c0,0,1.608,3.752,1.608,4.423
		c0,0.67-1.072,3.351-1.072,3.351s1.341,6.971,0.805,6.971c-0.537,0-1.207,5.228-1.207,5.228s4.424,32.84,4.691,34.851
		c0.269,2.011,3.954,10.054,3.954,10.054c-4.322,13.974,0.101,14.979,0.101,14.979l-2.513,4.524l-2.514,3.418
		c0,0-1.91,3.116,2.413,4.223c4.323,1.105,14.879-0.604,14.879-0.604l3.116-2.514l1.206-1.005c0,0,1.006-1.407,1.006-2.011
		s-0.503-5.228-0.503-5.228c2.915-4.825,3.016-11.863,2.915-13.17s-4.222-12.868-4.222-12.868
		c0.904-4.523-0.805-32.873-0.805-32.873l9.752,1.206l-1.608,15.18c-3.82,7.339,1.307,28.25,1.307,28.25l2.111,5.026
		c0,0-1.207,1.81-0.201,3.217c1.005,1.407,6.032,8.144,6.032,8.144c0.502,10.556,12.968,6.836,16.486,5.429
		c3.519-1.408-0.101-7.439-0.101-7.439l-6.534-10.254l0.904-0.101l0.102-2.011l1.005-3.318c0,0,2.212-12.265,2.814-17.09
		c0.604-4.825,1.006-22.419,1.006-22.419l14.175,0.704l0.704-6.333l11.158,0.502l5.63-46.244l7.339,6.333l6.233,0.201l0.603,2.815
		c0,0-0.603,1.206-0.603,1.81c0,0.603,0.603,3.317,0.502,4.523c-0.1,1.207,0.604,3.117,0.604,3.117
		c-1.105,0.2-0.703,5.328-0.904,6.132c-0.201,0.805-0.402,4.825-0.402,4.825c-1.407,3.619,0.302,15.482,0.201,18.498
		s2.011,12.466,2.011,12.768s2.11,6.836,1.307,14.778c-0.805,7.941,2.111,11.26,1.81,11.862c-0.302,0.604-0.503,4.524-0.503,4.524
		s1.308,4.423,0.905,5.328c-0.402,0.904,0.603,2.814,0.603,2.814s-0.2,3.218,0,3.72c0.201,0.503-0.302,5.328-0.302,5.63
		s0.604,2.614,0.604,2.915c0,0.302,1.105,2.715,1.407,2.715s6.736,0.201,7.842,0s5.127-0.503,5.831-1.006
		c0.703-0.502,0.904-2.513,0.904-2.513l1.006-8.847l1.709-1.91l0.201-2.011l-0.101-2.814l1.105-3.117l1.307-3.116l-0.101-2.212
		l-1.105-2.814c0,0-0.703-3.116,0.805-5.228s2.312-3.82,3.519-5.127c1.206-1.308,2.312-6.233,2.312-7.038
		c0-0.804-0.502-4.825,0.201-7.138c0.704-2.312,2.212-10.857,2.212-10.857l1.106-13.068l0.1-5.932l-0.402-3.116l0.604-2.916
		l-0.201-1.91l-0.301-3.016c0,0-0.302-2.111,0.401-4.423c0.704-2.312,1.709-5.128,1.709-5.128l8.144-5.228l-5.228-13.17
		c1.81-2.11,1.407-19.302,3.82-15.683c2.412,3.619,12.868,11.964,14.677,13.572c1.811,1.608,4.122,0.201,4.122,0.201
		c4.927-3.82,10.958-11.36,10.958-11.36l1.307,0.703l2.111,22.117c0,0-2.211,4.726-2.513,7.339
		c-0.302,2.614,1.508,5.228,0.904,6.334c-0.603,1.105-1.105,9.751-1.105,9.751h1.206l0.201,1.207c0,0,1.508,3.418,0.503,5.228
		c-1.006,1.81,0.703,9.048,0.703,9.048s0.604,5.127,0.101,5.931c-0.502,0.805,0.201,7.439-0.201,8.144
		c-0.402,0.703-1.105,6.735-1.105,6.735s1.709,3.116,1.307,3.619s0.905,4.825,0.905,4.825l0.401,4.323l0.604,3.619
		c0,0,0.704,3.921,0.805,4.926c0.101,1.006,0.603,4.223,0.603,5.228c0,1.006,4.726,5.229,4.726,5.229s0.402,0.603,1.508,2.814
		s1.608,7.339,1.608,7.339c-1.91,11.661,6.635,12.164,6.635,12.164c-0.904,3.72,2.514,3.58,2.514,3.58
		c11.461,0.967,13.571-0.865,14.074-1.972c0.503-1.105,0.302-3.418,0.302-3.418s-1.407-4.926,0.302-6.031
		c1.709-1.106,0.401-6.032,0.401-6.032s-0.804-0.604,0.303-1.407c1.105-0.805,1.809-5.831,1.508-7.54
		c-0.302-1.709-0.503-3.72-0.402-5.026c0.101-1.308-0.101-4.726,0-5.73c0.101-1.006-0.704-3.921-0.402-4.826
		c0.302-0.904,0.302-4.222,0.402-4.725s-0.101-4.424-0.101-4.424s0.101-2.714,0.101-3.619c0-0.904-2.212-2.513-2.212-3.418
		c0-0.904,2.011-4.423,2.312-5.429c0.302-1.005,0.704-5.228,0.704-5.228l1.105-3.418c0,0-0.101-3.317,0.904-5.026
		c1.006-1.709-1.005-3.217,0-5.429c1.006-2.212,0.805-4.424,0.905-5.127c0.101-0.704,0.401-2.312,0.401-3.217
		c0-0.905,0.704-6.535,0.704-6.535s4.323-14.175,5.63-18.698c1.307-4.524,1.105-10.456,1.105-10.456
		S1194.953,731.722,1195.758,732.023z M943.056,735.911v-3.553l1.206-4.021c-0.135,2.077,0.604,5.696,0.604,5.696L943.056,735.911z
		 M1062.353,659.741l-2.915-0.704l-1.207-9.449C1058.633,652.201,1062.353,659.741,1062.353,659.741z M1024.018,687.689
		c-0.535-0.604-0.068-8.345,0-10.255s-0.169-14.275-0.571-16.989c-0.401-2.715,1.207-19.604,1.207-19.604
		c1.005,1.407,4.222,4.825,6.232,9.65s2.614,9.651,2.413,10.254c-0.201,0.604-2.814,6.233-2.614,14.075
		C1030.886,682.662,1024.553,688.292,1024.018,687.689z M1024.754,718.15c0.804-1.106,1.307-6.938,1.307-6.938l1.105,1.81v1.006
		l0.604,1.041v1.472l0.589,2.312C1028.358,718.854,1023.949,719.256,1024.754,718.15z M1063.559,674.821l-2.814,10.354
		l-3.117,12.466l-1.307,2.714v4.927l-1.508,4.523l-0.904,4.726l-0.905,1.508l-2.312,15.481h-3.72l-0.2-9.45l-15.985-3.016
		l-3.016-10.757c0,0,2.312-3.016,3.016-3.72c0.704-0.703,5.328-7.439,5.196-9.551c-0.132-2.11,1.439-5.228,1.439-6.132
		c0-0.905,3.217-6.636,3.217-6.636c6.213-10.493,7.401-16.767,7.536-19.668c-0.041-0.622-0.076-1.263-0.097-1.945
		c0,0,0.157,0.622,0.097,1.945c0.976,14.765,7.543,12.832,7.543,12.832l8.546-4.523l1.206,2.111L1063.559,674.821z
		 M1099.448,597.864c0.101-0.353-0.955-3.217-1.056-4.323c-0.1-1.105,0.679-2.613,0.679-2.613l-0.377-1.508l0.754-0.353
		c0.051,0.252,0.755,2.715,0.755,2.715l0.251,6.886C1100.454,598.668,1099.348,598.216,1099.448,597.864z M1169.72,826.925
		c-0.302,0.805-1.005,6.435-1.005,6.435l-1.407-1.207c0,0,0.401-2.211,0.503-3.217c0.1-1.005-1.106-4.926-1.106-4.926
		s-1.005-5.026-1.307-5.328s0-2.312,0-2.312l1.307-1.81c-0.201,3.116,2.212,6.032,2.614,6.334c0.401,0.302,0.401,1.91,0.401,1.91
		S1170.021,826.121,1169.72,826.925z M1187.078,740.367c-0.268,1.24-0.334,6.669-0.871,5.529
		c-0.536-1.139-0.335-11.059-0.335-11.059C1186.207,735.71,1187.347,739.128,1187.078,740.367z"/>
	<path fill="#333436" d="M1105.414,605.333c0.156,0.205,0.321,0.396,0.502,0.558L1105.414,605.333z"/>
</g>
<g>
	<g>
		<g>
			<g>
				<polygon fill="#FF5A5A" points="1209.615,176.209 1330.66,176.209 1308.172,140.562 1330.66,104.916 1209.615,104.916 				"/>
				<polygon fill="#333436" points="1271.246,140.562 1209.615,176.209 1209.615,140.562 				"/>
			</g>
			<g>
				<polygon fill="#FF5A5A" points="191.08,176.209 70.035,176.209 92.521,140.562 70.035,104.916 191.08,104.916 				"/>
				<polygon fill="#333436" points="129.449,140.562 191.08,176.209 191.08,140.562 				"/>
			</g>
			<g>
				<rect x="129.449" y="69.27" fill="#FFFFFF" width="1140.688" height="71.293"/>
				<text transform="matrix(1 0 0 1 152.4478 124.8018)"><tspan x="0" y="0" fill="#333436" font-family="'ProximaNova-Black'" font-size="58.7985">FAMILY SHOPPING </tspan><tspan x="556.344" y="0" fill="#333436" font-family="'ProximaNova-RegularIt'" font-size="58.7985">FREE VECTOR PACK</tspan></text>
			</g>
		</g>
		<g>
			<g>
				<polygon fill="#FF5A5A" points="1400,980 1400,903.533 1373.053,876.586 1314.904,895.234 1399.67,980 				"/>
				<polygon fill="#FF5A5A" points="1314.904,895.234 1133.586,953.383 1160.203,980 1399.67,980 				"/>
			</g>
			<rect x="1133.586" y="876.586" fill="#FFFFFF" width="239.467" height="76.797"/>
			<text transform="matrix(1 0 0 1 1154.2969 911.5791)"><tspan x="0" y="0" fill="#333436" font-family="'ProximaNova-SemiboldIt'" font-size="29.3234">FILES FORMAT</tspan><tspan x="1.797" y="26.463" fill="#333436" font-family="'ProximaNova-BoldIt'" font-size="30.7538">AI / PDF / EPS</tspan></text>
		</g>
	</g>
</g>
</svg>
